<svg xmlns="http://www.w3.org/2000/svg" xmlns:xlink="http://www.w3.org/1999/xlink" viewBox="0 0 215.12 185.18"><defs><style>.cls-1{fill:#16110d;}.cls-2{fill:url(#New_Gradient_Swatch_4);}.cls-3{fill:url(#New_Gradient_Swatch_4-2);}.cls-4{fill:url(#New_Gradient_Swatch_4-3);}.cls-5{fill:url(#New_Gradient_Swatch_4-4);}.cls-6{fill:url(#New_Gradient_Swatch_4-5);}.cls-7{fill:url(#New_Gradient_Swatch_4-6);}.cls-8{fill:url(#New_Gradient_Swatch_4-7);}.cls-9{fill:url(#New_Gradient_Swatch_4-8);}.cls-10{fill:url(#New_Gradient_Swatch_4-9);}.cls-11{fill:url(#New_Gradient_Swatch_4-10);}.cls-12{fill:url(#New_Gradient_Swatch_4-11);}</style><linearGradient id="New_Gradient_Swatch_4" x1="117.56" y1="18.41" x2="311.36" y2="18.41" gradientTransform="translate(314.72 99.45) rotate(180)" gradientUnits="userSpaceOnUse"><stop offset="0" stop-color="#328b31"/><stop offset="1" stop-color="#96cf24"/></linearGradient><linearGradient id="New_Gradient_Swatch_4-2" x1="147.78" y1="11.62" x2="272.6" y2="11.62" xlink:href="#New_Gradient_Swatch_4"/><linearGradient id="New_Gradient_Swatch_4-3" x1="192.36" y1="44.55" x2="257.24" y2="44.55" xlink:href="#New_Gradient_Swatch_4"/><linearGradient id="New_Gradient_Swatch_4-4" x1="178.82" y1="5.58" x2="243.71" y2="5.58" xlink:href="#New_Gradient_Swatch_4"/><linearGradient id="New_Gradient_Swatch_4-5" x1="121.46" y1="-4.22" x2="137.76" y2="-4.22" xlink:href="#New_Gradient_Swatch_4"/><linearGradient id="New_Gradient_Swatch_4-6" x1="258.12" y1="-71.44" x2="276.94" y2="-71.44" xlink:href="#New_Gradient_Swatch_4"/><linearGradient id="New_Gradient_Swatch_4-7" x1="186.31" y1="58.17" x2="199.98" y2="58.17" gradientTransform="translate(254.13 193.32) rotate(-147.85)" xlink:href="#New_Gradient_Swatch_4"/><linearGradient id="New_Gradient_Swatch_4-8" x1="141.54" y1="-28.58" x2="161.43" y2="-28.58" xlink:href="#New_Gradient_Swatch_4"/><linearGradient id="New_Gradient_Swatch_4-9" x1="112.72" y1="5.37" x2="121.13" y2="5.37" xlink:href="#New_Gradient_Swatch_4"/><linearGradient id="New_Gradient_Swatch_4-10" x1="243.39" y1="-77.21" x2="255.1" y2="-77.21" xlink:href="#New_Gradient_Swatch_4"/><linearGradient id="New_Gradient_Swatch_4-11" x1="173.46" y1="60.95" x2="183.86" y2="60.95" gradientTransform="translate(254.88 185.19) rotate(-147.85)" xlink:href="#New_Gradient_Swatch_4"/></defs><g id="Layer_2" data-name="Layer 2"><g id="Layer_2-2" data-name="Layer 2"><path class="cls-1" d="M169.45,21.75C152.93,16,144.23,24.68,115,35.05a169.3,169.3,0,0,0-66.3,43C30.52,97.25,19.57,109.18,17,125l-7.8,13.28,15.13,24,.45.55c10.67,15.89,33.44,22.75,66.58,17,33-5.66,63.18-22.35,86.54-46.28,33-33.8,40.25-65.62,28.47-85.7l-.51-1L191.32,23.81Z"/><path class="cls-1" d="M148.48,161.45a158.82,158.82,0,0,1-56.57,21.72c-33.24,5.72-58.07-.84-69.9-18.48l-.27-.3-16.44-26,8.51-14.5c3-17,15.41-30.06,32.48-48.11A173.22,173.22,0,0,1,113.9,31.91c8.15-2.89,14.6-5.61,20.29-8,14.38-6.07,23.12-9.76,36-5.41l23.11,2.18,15.39,24.49.65,1.23c13.69,23.33,2.87,56.87-29,89.56A168.21,168.21,0,0,1,148.48,161.45ZM13.09,138.22l14.26,22.51c10.47,15.58,32.93,21.13,63.43,15.88,31.37-5.39,61.46-21.49,84.73-45.32,29.24-30,40-61.26,28-81.7l-.6-1.13L189.38,27l-21-2.07c-10.64-3.72-17.63-.76-31.57,5.12-5.78,2.44-12.32,5.21-20.65,8.17a166.25,166.25,0,0,0-65,42.12C32.49,100,22.65,111,20.28,125.53l-.1.62Z"/><path class="cls-2" d="M141.29,3.4C189.76,1.58,210.68,34.87,188,77.75S107.7,156.87,59.23,158.69-10.16,127.22,12.5,84.34,92.82,5.22,141.29,3.4Z"/><path class="cls-1" d="M134,137c-23.59,14.62-50.29,24.1-74.67,25-24.68.92-43.49-6.88-53-22S-2,104.62,9.56,82.78C32.68,39,91.72,1.93,141.16.07h0c24.68-.92,43.5,6.88,53,22S202.5,57.47,191,79.31C179.24,101.49,158.28,122,134,137ZM70,30.66c-23.23,14.4-43.29,34-54.51,55.23C5.06,105.53,3.84,123.51,12,136.5s24.89,19.7,47.1,18.87c47.33-1.77,103.84-37.3,126-79.17,10.38-19.64,11.6-37.62,3.44-50.61s-24.9-19.7-47.1-18.87C118.08,7.6,92.52,16.67,70,30.66Z"/><path class="cls-1" d="M131,30.11C98.27,33.19,58,58.5,41,86.63s-4.2,48.44,28.5,45.35,73-28.39,89.94-56.52S163.68,27,131,30.11Z"/><path class="cls-1" d="M121.34,116.39c-16.54,10.25-35,17.35-51.49,18.9-17.13,1.62-29.92-2.82-36-12.51S29.3,99.65,38.19,84.91C55.61,56,97.09,30,130.66,26.79h0c17.14-1.61,29.92,2.83,36,12.52s4.54,23.13-4.34,37.87S138.42,105.8,121.34,116.39ZM82.63,51.29c-16.14,10-30.38,23.19-38.74,37.06-7.52,12.47-9.09,23.44-4.41,30.89s15.25,10.8,29.75,9.43c31.74-3,70.94-27.63,87.4-54.93,7.52-12.47,9.08-23.44,4.4-30.89s-15.24-10.8-29.74-9.43h0C115.68,34.89,98.26,41.6,82.63,51.29Z"/><path class="cls-3" d="M139.51,43.68c-32.71,3.09-73,28.39-89.94,56.52-6.13,10.16-8.32,19.28-7.16,26.66,6.15,4.26,15.32,6.24,27.13,5.12,32.71-3.08,73-28.39,89.94-56.52,6.12-10.16,8.32-19.27,7.15-26.66C160.48,44.54,151.32,42.57,139.51,43.68Z"/><path class="cls-1" d="M121.34,116.39c-16.54,10.25-35,17.35-51.49,18.9-12.15,1.15-22.29-.82-29.33-5.69l-1.17-.81-.22-1.41c-1.34-8.45,1.29-18.44,7.59-28.9,17.41-28.87,58.9-54.95,92.47-58.11,12.16-1.15,22.3.82,29.34,5.69l1.17.81.22,1.41c1.34,8.46-1.29,18.45-7.59,28.9C153.48,91.85,138.42,105.8,121.34,116.39Zm-75.81,8.52c5.7,3.39,13.85,4.69,23.7,3.76,31.74-3,70.94-27.63,87.4-54.93,5.11-8.47,7.47-16.38,6.89-23-5.7-3.38-13.85-4.68-23.7-3.75h0c-31.73,3-70.94,27.62-87.4,54.92C47.31,110.39,45,118.3,45.53,124.91Z"/><polygon class="cls-1" points="95.63 126.7 144.66 95.55 137.06 83.5 88.02 114.65 95.63 126.7"/><polyline class="cls-1" points="70.67 87.68 101.58 68.04 113.08 85.94 131.13 74.48 123.52 62.44 105.48 73.9 93.98 56 62.99 75.69 70.59 87.73 70.66 87.69"/><polygon class="cls-4" points="94.24 54.83 63.25 74.52 57.48 65.53 105.07 35.29 122.36 62.17 105.75 72.73 94.24 54.83"/><path class="cls-1" d="M104.81,36.46l16.38,25.45L106,71.56,95.41,55.08l-.91-1.42-1.42.9L63.51,73.35l-4.86-7.57,46.16-29.32m.52-2.33-49,31.14L63,75.68,94,56l11.5,17.9,18-11.46-18.2-28.3Z"/><polygon class="cls-5" points="71 86.61 87.6 76.07 99.11 93.95 130.1 74.26 135.89 83.24 88.28 113.48 71 86.61"/><path class="cls-1" d="M87.34,77.23,97.94,93.7l.91,1.41,1.42-.9,29.58-18.79L134.72,83,88.54,112.32,72.18,86.87l15.16-9.64m.51-2.32-18,11.44L88,114.65l49-31.16-6.7-10.4-31,19.69L87.85,74.91Z"/><polygon class="cls-6" points="189.37 116.03 176.96 96.24 180.85 91.32 193.26 111.1 189.37 116.03"/><polygon class="cls-7" points="50.25 180.27 37.78 160.35 44.13 161.52 56.6 181.44 50.25 180.27"/><rect class="cls-8" x="118.25" y="33.73" width="6.66" height="15.1" transform="translate(-3.32 71.03) rotate(-32.15)"/><polygon class="cls-9" points="168.06 142.21 153.29 118.5 158.4 113.85 173.17 137.56 168.06 142.21"/><polygon class="cls-10" points="199.49 100.99 193.59 91.56 196.09 87.17 202 96.61 199.49 100.99"/><polygon class="cls-11" points="65.55 181.24 59.62 171.77 65.4 172.09 71.33 181.56 65.55 181.24"/><rect class="cls-12" x="132.73" y="34.02" width="6.66" height="8.97" transform="matrix(0.85, -0.53, 0.53, 0.85, 0.37, 78.31)"/></g></g></svg>