<svg width="18" height="18" viewBox="0 0 18 18" fill="none" xmlns="http://www.w3.org/2000/svg">
<g filter="url(#filter0_d)">
<rect y="0.75" width="16.9508" height="16.5" rx="8.25" fill="#50E3C2"/>
<path d="M14.4694 7.53576C14.4694 5.61883 11.7848 4.06494 8.47417 4.06494C5.16352 4.06494 2.48047 5.61883 2.48047 7.53576V11.3626C2.48016 11.496 2.49332 11.6289 2.5197 11.759C2.85861 13.4882 5.39573 14.8387 8.47417 14.8387C11.5526 14.8387 14.0913 13.4935 14.4365 11.7642C14.4621 11.634 14.4752 11.5012 14.4757 11.3679V7.53752L14.4694 7.53576Z" fill="#FFD087"/>
<path d="M8.47478 14.9999C5.35555 14.9999 2.73213 13.6214 2.37439 11.7939C2.34627 11.6523 2.33207 11.5076 2.33203 11.3625V7.53563C2.33203 5.52925 5.08725 3.89819 8.47478 3.89819C11.8623 3.89819 14.6191 5.52925 14.6191 7.53563V11.3625C14.6191 11.5076 14.6049 11.6523 14.5767 11.7939C14.219 13.6214 11.5956 14.9999 8.47478 14.9999ZM8.47478 4.23142C5.252 4.23142 2.63015 5.7134 2.63015 7.53563V11.3625C2.6306 11.4833 2.64216 11.6038 2.66467 11.722C2.99416 13.4004 5.48892 14.6649 8.47008 14.6649C11.4512 14.6649 13.9523 13.4004 14.2755 11.722C14.304 11.6046 14.3209 11.484 14.3257 11.3625V7.53563C14.3257 5.71866 11.6976 4.23142 8.47478 4.23142Z" fill="#7B413B"/>
<path d="M14.4695 7.53572C14.4695 8.28168 14.4731 9.02647 14.4804 9.77009C14.4804 10.3857 14.5652 11.1153 13.9799 11.4713C13.9516 11.4884 13.9208 11.4997 13.8889 11.5046C13.3915 11.559 13.3256 10.5523 12.7263 11.0855C12.3952 11.3801 12.2932 11.901 12.061 12.2763C11.8518 12.6407 11.5464 12.9233 11.187 13.0848C10.3492 13.4216 9.85181 12.6499 9.14731 12.343C8.93395 12.2402 8.6949 12.2253 8.47263 12.3009C8.19491 12.4131 8.00192 12.699 7.76813 12.8937C7.15935 13.397 6.30894 13.1936 5.81155 12.6043C5.56522 12.3114 5.31417 11.9817 4.96428 11.887C4.50769 11.7642 4.05424 12.0378 3.59765 11.8729C3.13998 11.6741 2.77153 11.2806 2.57307 10.7785C2.53699 10.6926 2.50247 10.6032 2.47266 10.519V7.53747C2.47266 5.62054 5.1557 4.06665 8.46635 4.06665C11.777 4.06665 14.4695 5.61879 14.4695 7.53572Z" fill="white"/>
<path d="M14.3692 7.53574C14.3692 8.41266 14.3865 9.30536 14.388 10.1893C14.388 10.5015 14.3755 10.8452 14.206 11.1083C14.126 11.2363 13.9722 11.4082 13.8216 11.3942C13.7221 11.3705 13.6332 11.3084 13.5706 11.2188C13.4691 11.0696 13.3422 10.9444 13.1971 10.8505C13.1075 10.8184 13.0118 10.8141 12.9201 10.8379C12.8284 10.8616 12.7441 10.9126 12.6762 10.9855C12.4299 11.1995 12.3012 11.5117 12.1679 11.8256C12.0269 12.1774 11.8153 12.4883 11.5497 12.7341C11.4165 12.8614 11.2599 12.9543 11.0909 13.0061C10.9219 13.0579 10.7448 13.0675 10.5722 13.034C10.2854 12.9398 10.0157 12.7902 9.77509 12.592C9.2479 12.222 8.66108 11.9308 8.11506 12.4289C7.83734 12.6815 7.61611 12.9551 7.24896 13.0445C6.92138 13.1122 6.58294 13.0502 6.29185 12.8691C5.99373 12.6937 5.80388 12.3903 5.5544 12.1413C5.3266 11.8929 5.02221 11.7516 4.70399 11.7467C4.30859 11.7467 3.91947 11.908 3.53977 11.7274C3.22149 11.562 2.95677 11.2906 2.78193 10.9504C2.67503 10.798 2.60675 10.6163 2.58423 10.4243V9.99987C2.58423 9.20013 2.58423 8.40038 2.58423 7.60064C2.58423 6.65357 3.1836 5.94152 3.86142 5.45571C4.95974 4.66649 6.30754 4.32449 7.59414 4.214C9.04259 4.06917 10.5021 4.26697 11.8776 4.79452C12.7955 5.16457 13.8828 5.79946 14.261 6.87981C14.3344 7.08882 14.3727 7.31119 14.3739 7.53574C14.377 7.56288 14.3888 7.58783 14.4071 7.60592C14.4255 7.624 14.4491 7.63399 14.4736 7.63399C14.498 7.63399 14.5216 7.624 14.54 7.60592C14.5583 7.58783 14.5701 7.56288 14.5732 7.53574C14.5622 6.42382 13.7526 5.60654 12.9461 5.09442C11.7223 4.31572 10.2756 4.01757 8.88859 3.96496C7.43567 3.90708 5.93097 4.12631 4.58945 4.77347C3.69981 5.20491 2.68936 5.92924 2.43517 7.05344C2.38524 7.33805 2.36732 7.62851 2.38183 7.91808V9.35622C2.38183 9.72627 2.37398 10.0981 2.38183 10.4681C2.40692 10.6641 2.47363 10.8506 2.57639 11.0118C2.73812 11.3333 2.9662 11.6068 3.24165 11.8098C3.55572 12.0156 3.92582 12.0872 4.28349 12.0115C4.49044 11.9677 4.70232 11.9612 4.9111 11.9922C5.11739 12.0501 5.30496 12.1716 5.45242 12.343C5.69248 12.5973 5.88861 12.8797 6.18515 13.0585C6.45868 13.2273 6.76908 13.3069 7.08107 13.2883C7.37734 13.2676 7.66066 13.1451 7.89226 12.9375C8.24058 12.6271 8.4979 12.2588 8.99058 12.4114C9.6025 12.5955 10.0371 13.2287 10.6898 13.2883C11.3426 13.3479 11.9451 12.7621 12.2432 12.1518C12.4095 11.801 12.5193 11.3907 12.8127 11.1521C13.0371 10.9768 13.172 11.082 13.3352 11.2802C13.4431 11.4494 13.6018 11.5695 13.7824 11.6187C14.0381 11.6572 14.2735 11.4082 14.399 11.1819C14.5281 10.9129 14.5904 10.6101 14.5795 10.305C14.5889 9.88587 14.5795 9.4632 14.5685 9.04403C14.5685 8.54244 14.5685 8.04085 14.5685 7.53925C14.5658 7.51205 14.5544 7.48686 14.5363 7.46843C14.5182 7.45 14.4947 7.43959 14.4702 7.43916C14.4458 7.43873 14.422 7.44831 14.4034 7.46609C14.3848 7.48388 14.3726 7.50865 14.3692 7.53574Z" fill="#7B413B"/>
<path d="M13.6977 5.83448C13.6977 5.07156 13.409 3.4861 12.4864 3.24408C11.4681 2.97574 10.6412 3.75444 10.2505 4.22096C9.07216 4.01285 7.87188 4.01285 6.69352 4.22096C6.30283 3.75444 5.47439 2.97574 4.45609 3.24408C3.53507 3.4861 3.23852 5.07156 3.24636 5.83448C2.75683 6.33607 2.47754 6.91659 2.47754 7.53569C2.47754 9.45262 5.16058 11.0048 8.47123 11.0048C11.7819 11.0048 14.4665 9.45262 14.4665 7.53569C14.4696 6.91659 14.1904 6.33607 13.6977 5.83448Z" fill="white"/>
<path d="M8.47467 11.1942C5.07615 11.1942 2.31152 9.55262 2.31152 7.53572C2.31152 6.90785 2.57826 6.29226 3.08035 5.75208C3.09447 5.05055 3.35179 3.34232 4.42187 3.05996C5.46527 2.78636 6.31255 3.50894 6.75815 4.0193C7.89675 3.82988 9.05416 3.82988 10.1928 4.0193C10.6384 3.50894 11.4841 2.79162 12.529 3.05996C13.5991 3.34232 13.8564 5.05757 13.869 5.75208C14.3727 6.29226 14.6394 6.90785 14.6394 7.53572C14.6394 9.55262 11.8732 11.1942 8.47467 11.1942ZM4.87846 3.37915C4.75064 3.37952 4.62327 3.396 4.49875 3.42826C3.67344 3.64574 3.41141 5.16981 3.41926 5.83276V5.91694L3.36434 5.97306C2.89363 6.45361 2.65043 6.99379 2.65043 7.53572C2.65043 9.34392 5.26287 10.8171 8.47467 10.8171C11.6865 10.8171 14.3005 9.34392 14.3005 7.53572C14.3005 6.99379 14.0541 6.45361 13.5866 5.97306L13.5301 5.91694V5.83276C13.5301 5.16981 13.2759 3.64574 12.4506 3.42826C11.5202 3.18448 10.7513 3.90004 10.3763 4.35077L10.3151 4.42268L10.2257 4.4069C9.0648 4.20522 7.88298 4.20522 6.72207 4.4069L6.63263 4.42268L6.57144 4.35077C6.24979 3.96493 5.63473 3.37915 4.87846 3.37915Z" fill="#7B413B"/>
<path d="M11.4122 7.80933C11.7094 7.80933 11.9504 7.54 11.9504 7.20776C11.9504 6.87553 11.7094 6.6062 11.4122 6.6062C11.115 6.6062 10.874 6.87553 10.874 7.20776C10.874 7.54 11.115 7.80933 11.4122 7.80933Z" fill="#7D3D42"/>
<path d="M11.4118 7.82329C11.3035 7.82329 11.1977 7.78739 11.1076 7.72014C11.0176 7.65288 10.9474 7.55729 10.9059 7.44544C10.8645 7.3336 10.8537 7.21053 10.8748 7.09179C10.8959 6.97306 10.9481 6.864 11.0246 6.7784C11.1012 6.6928 11.1988 6.6345 11.305 6.61088C11.4112 6.58726 11.5213 6.59939 11.6214 6.64571C11.7215 6.69204 11.807 6.77049 11.8672 6.87115C11.9273 6.97181 11.9594 7.09015 11.9594 7.21121C11.9594 7.37354 11.9017 7.52923 11.7991 7.64402C11.6964 7.7588 11.5571 7.82329 11.4118 7.82329ZM11.4118 6.62017C11.3072 6.61982 11.2048 6.65419 11.1177 6.71892C11.0305 6.78365 10.9625 6.87584 10.9222 6.98381C10.882 7.09178 10.8713 7.21067 10.8915 7.32543C10.9117 7.4402 10.9619 7.54568 11.0358 7.62851C11.1097 7.71134 11.2039 7.76781 11.3065 7.79076C11.4092 7.81371 11.5156 7.8021 11.6123 7.75742C11.709 7.71274 11.7916 7.63699 11.8498 7.53975C11.908 7.44252 11.939 7.32818 11.939 7.21121C11.9395 7.13344 11.9261 7.05635 11.8998 6.98435C11.8736 6.91235 11.8348 6.84686 11.7858 6.79163C11.7369 6.7364 11.6786 6.69251 11.6144 6.66249C11.5503 6.63246 11.4814 6.61689 11.4118 6.61666V6.62017Z" fill="#D53D2C"/>
<path d="M5.48251 7.80933C5.77974 7.80933 6.02069 7.54 6.02069 7.20776C6.02069 6.87553 5.77974 6.6062 5.48251 6.6062C5.18529 6.6062 4.94434 6.87553 4.94434 7.20776C4.94434 7.54 5.18529 7.80933 5.48251 7.80933Z" fill="#7D3D42"/>
<path d="M5.48255 7.82329C5.37431 7.82294 5.26859 7.78675 5.17875 7.71928C5.08891 7.65182 5.01896 7.5561 4.97776 7.44423C4.93655 7.33235 4.92593 7.20934 4.94724 7.09072C4.96854 6.9721 5.02082 6.8632 5.09746 6.77778C5.17411 6.69235 5.27168 6.63423 5.37786 6.61075C5.48404 6.58728 5.59406 6.5995 5.69403 6.64588C5.794 6.69226 5.87943 6.77071 5.93953 6.87133C5.99963 6.97195 6.03171 7.09022 6.03171 7.2112C6.03129 7.3737 5.97325 7.52938 5.87031 7.64412C5.76736 7.75886 5.62792 7.82329 5.48255 7.82329ZM5.48255 6.62016C5.37777 6.61982 5.27526 6.65428 5.18803 6.71917C5.1008 6.78406 5.03279 6.87645 4.99262 6.98462C4.95245 7.09279 4.94194 7.21187 4.96242 7.32673C4.9829 7.44159 5.03345 7.54706 5.10765 7.62975C5.18185 7.71244 5.27636 7.76863 5.37918 7.79118C5.482 7.81373 5.58849 7.80163 5.68515 7.75641C5.7818 7.71119 5.86426 7.63489 5.92205 7.53719C5.97984 7.4395 6.01036 7.32481 6.00974 7.2077C6.00974 7.05125 5.95425 6.90118 5.85542 6.79039C5.7566 6.6796 5.62251 6.61712 5.48255 6.61666V6.62016Z" fill="#D53D2C"/>
<path d="M9.63878 8.08642C9.61529 8.07999 9.59047 8.0841 9.56965 8.09787C9.54883 8.11163 9.53366 8.13396 9.52738 8.16008C9.46462 8.42841 9.1367 8.48278 8.92488 8.43367C8.82117 8.41268 8.72677 8.3534 8.65678 8.26532C8.5868 8.17724 8.54529 8.06545 8.53889 7.94786C8.53889 7.94786 8.53889 7.93734 8.53889 7.93208V7.91279L8.52948 7.89525L8.52007 7.88122L8.50281 7.86719H8.49182H8.47143H8.46044H8.44162H8.43063H8.41023H8.39925L8.38199 7.88122V7.8935L8.37101 7.91279V7.93208C8.37101 7.93208 8.37101 7.94085 8.37101 7.94786C8.36461 8.06545 8.3231 8.17724 8.25312 8.26532C8.18314 8.3534 8.08873 8.41268 7.98503 8.43367C7.77321 8.48278 7.44528 8.43367 7.38252 8.16008C7.37628 8.1338 7.36095 8.11136 7.33991 8.09771C7.31887 8.08406 7.29385 8.08032 7.27033 8.08729C7.24682 8.09427 7.22675 8.1114 7.21454 8.13492C7.20233 8.15843 7.19898 8.18641 7.20522 8.21269C7.28367 8.54592 7.58806 8.6529 7.84225 8.6529C7.90273 8.65275 7.96309 8.64688 8.02268 8.63536C8.11385 8.61408 8.20009 8.57192 8.27597 8.51156C8.35185 8.45119 8.41573 8.37391 8.46358 8.2846C8.51106 8.37426 8.57482 8.4518 8.65077 8.51222C8.72671 8.57264 8.81314 8.61459 8.90448 8.63536C8.96354 8.64696 9.02338 8.65283 9.08335 8.6529C9.33753 8.6529 9.64192 8.54592 9.72037 8.21269C9.72334 8.19832 9.72352 8.1834 9.72091 8.16894C9.71829 8.15448 9.71294 8.14082 9.70522 8.12886C9.69749 8.1169 9.68756 8.10693 9.67611 8.09961C9.66465 8.09229 9.65192 8.08779 9.63878 8.08642Z" fill="#7D3D42"/>
<path d="M13.2347 7.62155C13.2131 7.62157 13.1922 7.61316 13.1756 7.59779C13.159 7.58243 13.1477 7.56105 13.1437 7.53737C13.14 7.51046 13.1458 7.48301 13.1598 7.46077C13.1739 7.43853 13.1951 7.42324 13.219 7.41811L13.8544 7.2971C13.8663 7.29484 13.8784 7.29523 13.8901 7.29825C13.9019 7.30127 13.9129 7.30686 13.9227 7.31468C13.9325 7.32251 13.9408 7.33243 13.9471 7.34386C13.9534 7.35529 13.9577 7.36801 13.9596 7.38128C13.9618 7.39443 13.9617 7.40795 13.9592 7.42104C13.9566 7.43413 13.9518 7.44652 13.9449 7.45748C13.9381 7.46844 13.9293 7.47774 13.9191 7.48484C13.909 7.49193 13.8976 7.49668 13.8858 7.49879L13.2441 7.62682L13.2347 7.62155Z" fill="#7D3D42"/>
<path d="M13.8549 8.36712C13.8455 8.36879 13.836 8.36879 13.8266 8.36712L13.2069 8.13912C13.1954 8.13497 13.1848 8.12835 13.1757 8.11963C13.1665 8.11091 13.159 8.10026 13.1536 8.08829C13.1481 8.07632 13.1448 8.06326 13.1438 8.04987C13.1429 8.03647 13.1443 8.023 13.148 8.01021C13.1517 7.99743 13.1577 7.98559 13.1655 7.97537C13.1733 7.96514 13.1828 7.95674 13.1935 7.95063C13.2042 7.94452 13.2159 7.94083 13.2279 7.93977C13.2399 7.93871 13.2519 7.9403 13.2633 7.94444L13.891 8.16718C13.9147 8.17253 13.9355 8.18819 13.9489 8.21072C13.9623 8.23325 13.9671 8.2608 13.9623 8.28732C13.9576 8.31383 13.9435 8.33713 13.9234 8.3521C13.9032 8.36706 13.8786 8.37247 13.8549 8.36712Z" fill="#7D3D42"/>
<path d="M3.68249 7.62175H3.66523L3.0282 7.49196C3.00451 7.48726 2.98345 7.47225 2.96963 7.45023C2.95581 7.42821 2.95035 7.40096 2.95446 7.37446C2.95905 7.34772 2.97273 7.32402 2.99262 7.30832C3.01252 7.29263 3.03708 7.28616 3.06115 7.29027L3.70289 7.4183C3.72702 7.42063 3.74934 7.43358 3.76494 7.4543C3.78053 7.47502 3.78813 7.50182 3.78605 7.52879C3.78396 7.55577 3.77238 7.58072 3.75384 7.59815C3.73531 7.61559 3.71133 7.62407 3.6872 7.62175H3.68249Z" fill="#7D3D42"/>
<path d="M3.06128 8.36692C3.04212 8.36687 3.02346 8.36006 3.00797 8.34747C2.99247 8.33487 2.98093 8.31713 2.97498 8.29677C2.96904 8.27255 2.97117 8.24675 2.98098 8.22416C2.9908 8.20157 3.00763 8.18374 3.02833 8.174L3.65594 7.95126C3.67883 7.94295 3.70373 7.94512 3.7252 7.95728C3.74666 7.96944 3.76295 7.99061 3.77048 8.01616C3.77797 8.04198 3.77608 8.07005 3.76522 8.09433C3.75436 8.1186 3.7354 8.13714 3.71243 8.14594L3.08482 8.36868C3.07694 8.36925 3.06902 8.36866 3.06128 8.36692Z" fill="#7D3D42"/>
<path d="M12.0052 8.52303C12.3085 8.52303 12.5544 8.37698 12.5544 8.19682C12.5544 8.01666 12.3085 7.87061 12.0052 7.87061C11.7019 7.87061 11.4561 8.01666 11.4561 8.19682C11.4561 8.37698 11.7019 8.52303 12.0052 8.52303Z" fill="#F397B7"/>
<path d="M4.91928 8.52303C5.22257 8.52303 5.46844 8.37698 5.46844 8.19682C5.46844 8.01666 5.22257 7.87061 4.91928 7.87061C4.61598 7.87061 4.37012 8.01666 4.37012 8.19682C4.37012 8.37698 4.61598 8.52303 4.91928 8.52303Z" fill="#F397B7"/>
</g>
<defs>
<filter id="filter0_d" x="0" y="0.75" width="17.4508" height="17" filterUnits="userSpaceOnUse" color-interpolation-filters="sRGB">
<feFlood flood-opacity="0" result="BackgroundImageFix"/>
<feColorMatrix in="SourceAlpha" type="matrix" values="0 0 0 0 0 0 0 0 0 0 0 0 0 0 0 0 0 0 127 0"/>
<feOffset dx="0.5" dy="0.5"/>
<feColorMatrix type="matrix" values="0 0 0 0 0 0 0 0 0 0 0 0 0 0 0 0 0 0 0.25 0"/>
<feBlend mode="normal" in2="BackgroundImageFix" result="effect1_dropShadow"/>
<feBlend mode="normal" in="SourceGraphic" in2="effect1_dropShadow" result="shape"/>
</filter>
</defs>
</svg>
