<svg xmlns="http://www.w3.org/2000/svg" xmlns:xlink="http://www.w3.org/1999/xlink" viewBox="0 0 215.3 244"><defs><style>.cls-1{fill:#bd1622;}.cls-2{fill:#e20613;}.cls-3{fill:#328b31;}.cls-4{fill:#84c328;}.cls-5{fill:#63ac2b;}.cls-6{fill:#429730;}.cls-7{fill:#7dbe2b;}.cls-8{fill:#61ab2c;}.cls-9{fill:#479b30;}.cls-10{fill:#39b54a;}.cls-11{fill:#fff;}.cls-12{fill:url(#New_Gradient_Swatch_4);}.cls-13{fill:#96cf24;}.cls-14{fill:#ccc;opacity:0.6;}.cls-15{fill:url(#linear-gradient);}</style><linearGradient id="New_Gradient_Swatch_4" x1="109.2" y1="53.5" x2="109.2" gradientUnits="userSpaceOnUse"><stop offset="0" stop-color="#328b31"/><stop offset="1" stop-color="#96cf24"/></linearGradient><linearGradient id="linear-gradient" x1="95.8" y1="135.88" x2="119.6" y2="115.91" xlink:href="#New_Gradient_Swatch_4"/></defs><g id="Layer_2" data-name="Layer 2"><g id="Layer_2-2" data-name="Layer 2"><rect class="cls-1" x="62.3" y="113.9" width="90.7" height="9.1"/><rect class="cls-1" x="62.3" y="81.6" width="90.7" height="9.1"/><rect class="cls-2" x="62.3" y="90.7" width="90.7" height="23.2"/><polygon class="cls-1" points="55.8 88.1 62.2 81.6 196.5 214.6 183.7 214.7 55.8 88.1"/><polygon class="cls-1" points="167.4 244 33 111 39.4 104.6 167.3 231.1 167.4 244"/><polygon class="cls-2" points="183.7 214.7 167.3 214.7 167.3 231.1 39.4 104.6 55.8 88.1 183.7 214.7"/><polygon class="cls-1" points="159.6 88.1 153.2 81.6 18.8 214.6 31.7 214.7 159.6 88.1"/><polygon class="cls-1" points="48 244 182.4 111 176 104.6 48 231.1 48 244"/><polygon class="cls-2" points="31.7 214.7 48.1 214.7 48 231.1 176 104.6 159.6 88.1 31.7 214.7"/><path class="cls-3" d="M117.3,122H97.8V79.9a9.7,9.7,0,0,1,19.4,0V122Zm-15-4.5h10.5V79.9a5.2,5.2,0,1,0-10.4,0v37.6Z"/><path class="cls-4" d="M107.8,210.4h-.2a1.24,1.24,0,0,1-1.1-1.4c1.7-14.3,14.9-18.1,21.6-18.1a58.72,58.72,0,0,0,58.7-58.7,60.33,60.33,0,0,0-16-40.2,1.27,1.27,0,0,1,1.9-1.7,63.19,63.19,0,0,1,16.7,42,61.37,61.37,0,0,1-61.3,61.3c-.2,0-17.2.2-19.1,15.9A1.13,1.13,0,0,1,107.8,210.4Z"/><path class="cls-5" d="M171,91.4c-5.1,2.5-19.2-11.9-15.3-29.7C175.6,71.7,176.1,88.8,171,91.4Z"/><path class="cls-4" d="M169.7,89.1a23.22,23.22,0,0,1-5.7-7.4,25.49,25.49,0,0,1-2.4-9,23.22,23.22,0,0,1,5.7,7.4A25.49,25.49,0,0,1,169.7,89.1Z"/><path class="cls-5" d="M180.4,101.2c-5.5-1.6-6-21.8,9-32.1C197.2,89.9,185.9,102.8,180.4,101.2Z"/><path class="cls-4" d="M181,98.6a25.23,25.23,0,0,1,.8-9.3,23.35,23.35,0,0,1,4.3-8.2,25.23,25.23,0,0,1-.8,9.3A24.59,24.59,0,0,1,181,98.6Z"/><path class="cls-5" d="M188.2,122.8c-4.7-3.3,1.4-22.6,18.9-27.5C207.8,117.6,192.9,126.1,188.2,122.8Z"/><path class="cls-4" d="M189.6,120.6a25.24,25.24,0,0,1,3.8-8.5,24.83,24.83,0,0,1,6.8-6.4,25.24,25.24,0,0,1-3.8,8.5A24.83,24.83,0,0,1,189.6,120.6Z"/><path class="cls-5" d="M188.5,144.2c-3.3-4.6,8.6-20.9,26.8-19.8C208.7,145.6,191.8,148.8,188.5,144.2Z"/><path class="cls-4" d="M190.6,142.5a23.2,23.2,0,0,1,14.8-10.6,25.41,25.41,0,0,1-6.3,6.8A26.15,26.15,0,0,1,190.6,142.5Z"/><path class="cls-5" d="M180.7,163.9c-1.6-5.5,15-16.9,31.8-10C199.3,171.8,182.3,169.4,180.7,163.9Z"/><path class="cls-4" d="M183.2,163a25.88,25.88,0,0,1,8.2-4.4,26.63,26.63,0,0,1,9.3-.9,25.88,25.88,0,0,1-8.2,4.4A24.13,24.13,0,0,1,183.2,163Z"/><path class="cls-5" d="M166.6,180.3c.2-5.7,19.7-11.1,33.4.9C181.6,193.9,166.3,186,166.6,180.3Z"/><path class="cls-4" d="M169.2,180.3a23.5,23.5,0,0,1,9.2-1.4,24.53,24.53,0,0,1,9,2.2,23.5,23.5,0,0,1-9.2,1.4A24.53,24.53,0,0,1,169.2,180.3Z"/><path class="cls-5" d="M150.3,188.5c2.1-5.3,22.2-4.1,31.2,11.7C160.1,206.2,148.2,193.8,150.3,188.5Z"/><path class="cls-4" d="M152.8,189.3a25.55,25.55,0,0,1,9.2,1.6,23.83,23.83,0,0,1,7.8,5,25.55,25.55,0,0,1-9.2-1.6A23.83,23.83,0,0,1,152.8,189.3Z"/><path class="cls-5" d="M128.8,193.6c3.7-4.4,22.4,3.3,25.7,21.2C132.3,213.5,125.1,197.9,128.8,193.6Z"/><path class="cls-4" d="M130.9,195.2a25.63,25.63,0,0,1,8.1,4.5,26.68,26.68,0,0,1,5.8,7.3,25.63,25.63,0,0,1-8.1-4.5A26.68,26.68,0,0,1,130.9,195.2Z"/><path class="cls-6" d="M177.8,100.6c-.8,4.5-17,6.7-26.6-4.5C167.3,88.1,178.7,96.1,177.8,100.6Z"/><path class="cls-4" d="M175.7,100.3a18.7,18.7,0,0,1-7.5.1,19.34,19.34,0,0,1-7-2.8,18.7,18.7,0,0,1,7.5-.1A21.64,21.64,0,0,1,175.7,100.3Z"/><path class="cls-6" d="M186.1,120c-2.2,4-18.3.9-23.8-12.8C180.2,104.7,188.4,115.9,186.1,120Z"/><path class="cls-4" d="M184.2,119a20,20,0,0,1-7.2-2.3,19.23,19.23,0,0,1-5.7-4.9,20,20,0,0,1,7.2,2.3A21,21,0,0,1,184.2,119Z"/><path class="cls-6" d="M186.8,140.2c-3.4,3.1-17.6-5-18.4-19.7C186.1,123.9,190.2,137.1,186.8,140.2Z"/><path class="cls-4" d="M185.3,138.7a21.61,21.61,0,0,1-6.1-4.5,21.2,21.2,0,0,1-3.9-6.5,21.61,21.61,0,0,1,6.1,4.5A20.06,20.06,0,0,1,185.3,138.7Z"/><path class="cls-6" d="M180.5,160.3c-4.2,1.8-15.1-10.4-11.1-24.6C185,144.5,184.7,158.4,180.5,160.3Z"/><path class="cls-4" d="M179.5,158.3a18.94,18.94,0,0,1-4.3-6.2,20.88,20.88,0,0,1-1.6-7.4,18.94,18.94,0,0,1,4.3,6.2A21.26,21.26,0,0,1,179.5,158.3Z"/><path class="cls-6" d="M167.8,175.9c-4.6.4-10.9-14.7-2.7-26.9C177.1,162.5,172.4,175.5,167.8,175.9Z"/><path class="cls-4" d="M167.5,173.8a19.41,19.41,0,0,1-1.3-14.7,21.69,21.69,0,0,1,2.1,7.2A19.33,19.33,0,0,1,167.5,173.8Z"/><path class="cls-6" d="M149.7,186.6c-4.5-1.1-5.7-17.4,6.1-26.3C162.9,176.9,154.2,187.7,149.7,186.6Z"/><path class="cls-4" d="M150.1,184.5a21.55,21.55,0,0,1,.3-7.5,20,20,0,0,1,3.2-6.8,21.55,21.55,0,0,1-.3,7.5A20,20,0,0,1,150.1,184.5Z"/><path class="cls-6" d="M129.1,190.7c-3.9-2.5.2-18.3,14.2-23C144.7,185.8,133,193.2,129.1,190.7Z"/><path class="cls-4" d="M130.1,188.9a19.29,19.29,0,0,1,2.7-7,20.58,20.58,0,0,1,5.2-5.4,19.29,19.29,0,0,1-2.7,7A19,19,0,0,1,130.1,188.9Z"/><path class="cls-4" d="M180.5,103.9a2.41,2.41,0,1,0,.2,3.4A2.39,2.39,0,0,0,180.5,103.9Z"/><path class="cls-4" d="M192.1,126.5a2.41,2.41,0,1,0,.2,3.4A2.39,2.39,0,0,0,192.1,126.5Z"/><circle class="cls-4" cx="185.3" cy="106.8" r="2.4"/><path class="cls-4" d="M186.7,123.1a2.41,2.41,0,1,0,.2,3.4A2.39,2.39,0,0,0,186.7,123.1Z"/><path class="cls-4" d="M189,149.8a2.41,2.41,0,1,0,.2,3.4A2.38,2.38,0,0,0,189,149.8Z"/><circle class="cls-4" cx="183.81" cy="146.02" r="2.4"/><path class="cls-4" d="M178.2,161.3a2.41,2.41,0,1,0,.2,3.4A2.39,2.39,0,0,0,178.2,161.3Z"/><circle class="cls-4" cx="177.7" cy="169.8" r="2.4"/><circle class="cls-4" cx="162.35" cy="178.3" r="2.4"/><path class="cls-4" d="M165.1,181.6a2.41,2.41,0,1,0,.2,3.4A2.38,2.38,0,0,0,165.1,181.6Z"/><path class="cls-4" d="M144.9,185.6a2.41,2.41,0,1,0,.2,3.4A2.3,2.3,0,0,0,144.9,185.6Z"/><path class="cls-4" d="M146.4,190.6a2.41,2.41,0,1,0,.2,3.4A2.39,2.39,0,0,0,146.4,190.6Z"/><path class="cls-7" d="M107.5,210.4a1.38,1.38,0,0,1-1.3-1.1c-1.9-15.7-18.9-15.9-19.1-15.9a61.37,61.37,0,0,1-61.3-61.3,63.19,63.19,0,0,1,16.7-42,1.27,1.27,0,0,1,1.9,1.7,60.33,60.33,0,0,0-16,40.2,58.72,58.72,0,0,0,58.7,58.7c6.7,0,19.9,3.8,21.6,18.1a1.24,1.24,0,0,1-1.1,1.4C107.6,210.4,107.6,210.4,107.5,210.4Z"/><path class="cls-8" d="M44.4,91.4c5.1,2.5,19.2-11.9,15.3-29.7C39.7,71.7,39.2,88.8,44.4,91.4Z"/><path class="cls-7" d="M45.7,89.1a23.22,23.22,0,0,0,5.7-7.4,25.49,25.49,0,0,0,2.4-9,23.22,23.22,0,0,0-5.7,7.4A25.49,25.49,0,0,0,45.7,89.1Z"/><path class="cls-8" d="M34.9,101.2c5.5-1.6,6-21.8-9-32.1C18.1,89.9,29.4,102.8,34.9,101.2Z"/><path class="cls-7" d="M34.3,98.6a25.23,25.23,0,0,0-.8-9.3,24.59,24.59,0,0,0-4.3-8.2,25.23,25.23,0,0,0,.8,9.3A23.35,23.35,0,0,0,34.3,98.6Z"/><path class="cls-8" d="M27.1,122.8c4.7-3.3-1.4-22.6-18.9-27.5C7.6,117.6,22.5,126.1,27.1,122.8Z"/><path class="cls-7" d="M25.7,120.6a25.24,25.24,0,0,0-3.8-8.5,24.83,24.83,0,0,0-6.8-6.4,25.24,25.24,0,0,0,3.8,8.5A26.48,26.48,0,0,0,25.7,120.6Z"/><path class="cls-8" d="M26.8,144.2c3.3-4.6-8.6-20.9-26.8-19.8C6.7,145.6,23.5,148.8,26.8,144.2Z"/><path class="cls-7" d="M24.8,142.5a25.41,25.41,0,0,0-6.3-6.8,25.24,25.24,0,0,0-8.5-3.8,25.41,25.41,0,0,0,6.3,6.8A25.24,25.24,0,0,0,24.8,142.5Z"/><path class="cls-8" d="M34.7,163.9c1.6-5.5-15-16.9-31.8-10C16.1,171.8,33,169.4,34.7,163.9Z"/><path class="cls-7" d="M32.2,163a25.88,25.88,0,0,0-8.2-4.4,26.63,26.63,0,0,0-9.3-.9,25.88,25.88,0,0,0,8.2,4.4A24.13,24.13,0,0,0,32.2,163Z"/><path class="cls-8" d="M48.8,180.3c-.2-5.7-19.7-11.1-33.4.9C33.8,193.9,49,186,48.8,180.3Z"/><path class="cls-7" d="M46.1,180.3a23.5,23.5,0,0,0-9.2-1.4,27.09,27.09,0,0,0-9,2.2,23.5,23.5,0,0,0,9.2,1.4A24.53,24.53,0,0,0,46.1,180.3Z"/><path class="cls-8" d="M65.1,188.5c-2.1-5.3-22.2-4.1-31.2,11.7C55.3,206.2,67.1,193.8,65.1,188.5Z"/><path class="cls-7" d="M62.5,189.3a25.55,25.55,0,0,0-9.2,1.6,23.83,23.83,0,0,0-7.8,5,25.55,25.55,0,0,0,9.2-1.6A23.83,23.83,0,0,0,62.5,189.3Z"/><path class="cls-8" d="M86.5,193.6c-3.7-4.4-22.4,3.3-25.7,21.2C83,213.5,90.2,197.9,86.5,193.6Z"/><path class="cls-7" d="M84.4,195.2a25.63,25.63,0,0,0-8.1,4.5,26.68,26.68,0,0,0-5.8,7.3,25.63,25.63,0,0,0,8.1-4.5A24.51,24.51,0,0,0,84.4,195.2Z"/><path class="cls-9" d="M37.5,100.6c.8,4.5,17,6.7,26.6-4.5C48,88.1,36.7,96.1,37.5,100.6Z"/><path class="cls-7" d="M39.7,100.3a18.7,18.7,0,0,0,7.5.1,19.34,19.34,0,0,0,7-2.8,18.7,18.7,0,0,0-7.5-.1A20.45,20.45,0,0,0,39.7,100.3Z"/><path class="cls-9" d="M29.2,120c2.2,4,18.3.9,23.8-12.8C35.2,104.7,27,115.9,29.2,120Z"/><path class="cls-7" d="M31.2,119a20,20,0,0,0,7.2-2.3,19.23,19.23,0,0,0,5.7-4.9,20,20,0,0,0-7.2,2.3A19.23,19.23,0,0,0,31.2,119Z"/><path class="cls-9" d="M28.5,140.2c3.4,3.1,17.6-5,18.4-19.7C29.3,123.9,25.1,137.1,28.5,140.2Z"/><path class="cls-7" d="M30.1,138.7a21.61,21.61,0,0,0,6.1-4.5,21.2,21.2,0,0,0,3.9-6.5,21.61,21.61,0,0,0-6.1,4.5A20.06,20.06,0,0,0,30.1,138.7Z"/><path class="cls-9" d="M34.9,160.3c4.2,1.8,15.1-10.4,11.1-24.6C30.3,144.5,30.7,158.4,34.9,160.3Z"/><path class="cls-7" d="M35.9,158.3a18.94,18.94,0,0,0,4.3-6.2,20.88,20.88,0,0,0,1.6-7.4,18.94,18.94,0,0,0-4.3,6.2A21.26,21.26,0,0,0,35.9,158.3Z"/><path class="cls-9" d="M47.6,175.9c4.6.4,10.9-14.7,2.7-26.9C38.2,162.5,43,175.5,47.6,175.9Z"/><path class="cls-7" d="M47.9,173.8a19.41,19.41,0,0,0,1.3-14.7,21.69,21.69,0,0,0-2.1,7.2A19.33,19.33,0,0,0,47.9,173.8Z"/><path class="cls-9" d="M65.7,186.6c4.5-1.1,5.7-17.4-6.1-26.3C52.5,176.9,61.2,187.7,65.7,186.6Z"/><path class="cls-7" d="M65.3,184.5A21.55,21.55,0,0,0,65,177a20,20,0,0,0-3.2-6.8,21.55,21.55,0,0,0,.3,7.5A18,18,0,0,0,65.3,184.5Z"/><path class="cls-9" d="M86.3,190.7c3.9-2.5-.2-18.3-14.2-23C70.7,185.8,82.4,193.2,86.3,190.7Z"/><path class="cls-7" d="M85.2,188.9a19.29,19.29,0,0,0-2.7-7,20.58,20.58,0,0,0-5.2-5.4,19.29,19.29,0,0,0,2.7,7A20.58,20.58,0,0,0,85.2,188.9Z"/><circle class="cls-7" cx="36.38" cy="105.72" r="2.4"/><circle class="cls-7" cx="24.8" cy="128.29" r="2.4"/><circle class="cls-7" cx="30.06" cy="106.79" r="2.4"/><path class="cls-7" d="M28.7,123.1a2.41,2.41,0,1,1-.2,3.4A2.39,2.39,0,0,1,28.7,123.1Z"/><path class="cls-7" d="M26.4,149.8a2.41,2.41,0,1,1-.2,3.4A2.38,2.38,0,0,1,26.4,149.8Z"/><circle class="cls-7" cx="31.49" cy="146" r="2.4"/><path class="cls-7" d="M37.2,161.3a2.41,2.41,0,1,1-.2,3.4A2.39,2.39,0,0,1,37.2,161.3Z"/><path class="cls-7" d="M36.1,168a2.41,2.41,0,1,1-.2,3.4A2.38,2.38,0,0,1,36.1,168Z"/><circle class="cls-7" cx="53.03" cy="178.32" r="2.4" transform="translate(-93.9 64.2) rotate(-35.6)"/><circle class="cls-7" cx="51.81" cy="183.38" r="2.4" transform="translate(-121.06 103.19) rotate(-49.34)"/><path class="cls-7" d="M70.4,185.6a2.41,2.41,0,1,1-.2,3.4A2.38,2.38,0,0,1,70.4,185.6Z"/><path class="cls-7" d="M69,190.6a2.41,2.41,0,1,1-.2,3.4A2.39,2.39,0,0,1,69,190.6Z"/><path class="cls-10" d="M139.1,68.5H76.3a11.2,11.2,0,0,1,0-22.4h62.8a11.18,11.18,0,0,1,11.2,11.2A11.31,11.31,0,0,1,139.1,68.5ZM76.3,50.6a6.7,6.7,0,0,0,0,13.4h62.8a6.7,6.7,0,1,0,0-13.4Z"/><rect class="cls-11" x="77.3" width="63.9" height="53.5"/><rect class="cls-12" x="86.3" width="45.8" height="53.5"/><path class="cls-10" d="M47.3,66.1,45.8,52s-15.9,1.4-16.2,1.2a100.84,100.84,0,0,1,32-29.3c.3.5.6,1,1,1.6,2.8,4.6,5.8,9,8.6,13.6.7,1.1,1.4,2.3,2.1,3.4A77.48,77.48,0,0,0,47.3,66.1Z"/><polygon class="cls-3" points="60.9 55.1 73.2 42.5 61.6 23.9 50.5 37.6 60.9 55.1"/><path class="cls-10" d="M168,66.1,169.5,52s15.9,1.4,16.2,1.2a100.84,100.84,0,0,0-32-29.3c-.3.5-.6,1-1,1.6-2.8,4.6-5.8,9-8.6,13.6-.7,1.1-1.4,2.3-2.1,3.4A76.54,76.54,0,0,1,168,66.1Z"/><polygon class="cls-3" points="154.4 55.1 142.1 42.5 153.8 23.9 164.9 37.6 154.4 55.1"/><path class="cls-13" d="M164.9,37.6a99.49,99.49,0,0,0-57.1-17.9h-.2A99.49,99.49,0,0,0,50.5,37.6C53.7,43.4,60.9,55,61,55.1a79.11,79.11,0,0,1,46.1-15h1.2a79.83,79.83,0,0,1,46.1,15C154.5,54.9,161.7,43.4,164.9,37.6Z"/><rect class="cls-3" x="104.1" y="59.7" width="6.8" height="18"/><circle class="cls-3" cx="107.7" cy="125.9" r="45"/><ellipse class="cls-11" cx="107.72" cy="125.72" rx="40.99" ry="41.15"/><path class="cls-14" d="M135.2,111.48a9.08,9.08,0,0,1-4.17.15,9.77,9.77,0,0,1-3.79-1.84,9,9,0,0,1,4.17-.16A8.64,8.64,0,0,1,135.2,111.48Zm-2.78-3.38a9.2,9.2,0,0,1-4-.77,10.41,10.41,0,0,1-3.54-2.6,9.11,9.11,0,0,1,4,.76A10.36,10.36,0,0,1,132.42,108.1Zm5.94,13.65a8.45,8.45,0,0,1-3.92-1.53,15,15,0,0,1-3.15-3.22,8.4,8.4,0,0,1,3.91,1.53A10.14,10.14,0,0,1,138.36,121.75Zm-1-5.67a9.19,9.19,0,0,1-4.17-.16,11.46,11.46,0,0,1-3.79-2,9.27,9.27,0,0,1,4.17.15A11.59,11.59,0,0,1,137.35,116.08Zm1.26,15.49a11,11,0,0,1-3.28-2.91,14.23,14.23,0,0,1-2.15-4.3,11,11,0,0,1,3.29,2.92A14.23,14.23,0,0,1,138.61,131.57Zm.38-4.75a12,12,0,0,1-3.66-2.15,15.33,15.33,0,0,1-2.78-3.68,11.81,11.81,0,0,1,3.66,2.14A12.7,12.7,0,0,1,139,126.82Zm-2.9,14.26a13.82,13.82,0,0,1-2.4-4.14,16.21,16.21,0,0,1-.89-4.91,13.82,13.82,0,0,1,2.4,4.14A16.25,16.25,0,0,1,136.09,141.08Zm1.64-4.14a15.15,15.15,0,0,1-2.91-3.53,13.81,13.81,0,0,1-1.51-4.6,15,15,0,0,1,2.9,3.53A16.64,16.64,0,0,1,137.73,136.94Zm-6.82,10.43a14.13,14.13,0,0,1-1.14-4.75,16.54,16.54,0,0,1,.5-4.91,13.86,13.86,0,0,1,1.14,4.75A17.54,17.54,0,0,1,130.91,147.37Zm2.65-2.91a13.1,13.1,0,0,1-1.77-4.45,19.68,19.68,0,0,1-.25-5.06,13.1,13.1,0,0,1,1.77,4.44A19.75,19.75,0,0,1,133.56,144.46Zm-9.86,7.36a16.29,16.29,0,0,1,.13-5.06,14.88,14.88,0,0,1,1.77-4.6,16.29,16.29,0,0,1-.13,5.06A14.6,14.6,0,0,1,123.7,151.82Zm3.79-1.84a17.54,17.54,0,0,1-.5-4.91,16.39,16.39,0,0,1,1-4.91,17.76,17.76,0,0,1,.51,4.91A16.21,16.21,0,0,1,127.49,150Zm-11.87,4.6a12.86,12.86,0,0,1,1.51-4.6A14.23,14.23,0,0,1,120,146.3a12.76,12.76,0,0,1-1.52,4.6A11.43,11.43,0,0,1,115.62,154.58Zm4.42-.77a18.71,18.71,0,0,1,.76-4.9,15.31,15.31,0,0,1,2.27-4.15,18.75,18.75,0,0,1-.76,4.91A15.15,15.15,0,0,1,120,153.81ZM130.91,106c-5.82-2.14-6.57-8.89-9.23-11C124.71,95.83,130.65,97.67,130.91,106Zm4.17,5.83a18.64,18.64,0,0,1,2.9-11.66,18.6,18.6,0,0,1-2.9,11.66Zm3.41,10a20.43,20.43,0,0,1,2-5.67,14.17,14.17,0,0,1,3.66-4.3,20.43,20.43,0,0,1-2,5.68A13.9,13.9,0,0,1,138.49,121.75Zm0,10a16.45,16.45,0,0,1,3.54-4.6,12.72,12.72,0,0,1,4.67-2.61,16.42,16.42,0,0,1-3.54,4.61A12.6,12.6,0,0,1,138.49,131.72Zm-2.15,7.37a12.76,12.76,0,0,1,4.55-2.92,12.27,12.27,0,0,1,5.05-.61,12.81,12.81,0,0,1-4.55,2.91A9.78,9.78,0,0,1,136.34,139.09Zm-4.93,8a11.62,11.62,0,0,1,5.06-.93,11.23,11.23,0,0,1,4.92,1.54,11.64,11.64,0,0,1-5,.92A11.21,11.21,0,0,1,131.41,147.07ZM125,151.82a11.6,11.6,0,0,1,5.05,1.07,14.49,14.49,0,0,1,4.3,3.38,11.65,11.65,0,0,1-5.06-1.07A14.53,14.53,0,0,1,125,151.82Zm-7.84,2.76s1.14,0,3.16,2.15a15.23,15.23,0,0,1,3.16,4.91,11.05,11.05,0,0,1-4.42-3.07A5.86,5.86,0,0,1,117.13,154.58ZM132.8,108a20.11,20.11,0,0,1-.76-6.14,18.28,18.28,0,0,1,1.27-6,19.9,19.9,0,0,1,.75,6.13A18.15,18.15,0,0,1,132.8,108Zm4.42,9.2a19.43,19.43,0,0,1,.64-6.13,17,17,0,0,1,2.52-5.37,19.25,19.25,0,0,1-.63,6.13A17,17,0,0,1,137.22,117.15Zm1.39,9.82a19.48,19.48,0,0,1,2.78-5.22,12.86,12.86,0,0,1,4.17-3.52,19,19,0,0,1-2.78,5.21A12.71,12.71,0,0,1,138.61,127Zm-.63,8.28a12.69,12.69,0,0,1,4.05-3.68A10.45,10.45,0,0,1,147,130a12.59,12.59,0,0,1-4,3.68A10.15,10.15,0,0,1,138,135.25Zm-3.41,8.29a13.14,13.14,0,0,1,4.8-2,10.34,10.34,0,0,1,5.06.46,13.13,13.13,0,0,1-4.81,2A10.29,10.29,0,0,1,134.57,143.54ZM128.76,150a11.93,11.93,0,0,1,5.05,0,11.7,11.7,0,0,1,4.68,2.45,11.78,11.78,0,0,1-5.06,0A14.3,14.3,0,0,1,128.76,150Zm-8.34,3.68a11.9,11.9,0,0,1,4.8,2A14.26,14.26,0,0,1,129,159.8a11.9,11.9,0,0,1-4.8-2A20.44,20.44,0,0,1,120.42,153.66Zm-3.54-.46c12.38-1.07,23.5-15,21.1-29.91-1.51-9.05-5.31-16.72-11.37-21,7.08,2.76,12,12.43,12.76,22.55,1.27,15.5-9.85,29.15-22.62,30.68a6.07,6.07,0,0,0-4.67,4.45C109.17,157.65,109.93,153.81,116.88,153.2Z"/><path class="cls-14" d="M81,110.7a9.11,9.11,0,0,0,4.17.15A9.77,9.77,0,0,0,89,109a9,9,0,0,0-4.17-.16A9.81,9.81,0,0,0,81,110.7Zm2.78-3.38a9.24,9.24,0,0,0,4-.77,10.41,10.41,0,0,0,3.54-2.6,9.14,9.14,0,0,0-4,.76A10.36,10.36,0,0,0,83.8,107.32ZM77.74,121a8.45,8.45,0,0,0,3.92-1.53,15,15,0,0,0,3.15-3.22,8.4,8.4,0,0,0-3.91,1.53A12,12,0,0,0,77.74,121Zm1.14-5.67a9.18,9.18,0,0,0,4.17-.16,11.59,11.59,0,0,0,3.79-2,9.27,9.27,0,0,0-4.17.15A11.59,11.59,0,0,0,78.88,115.3Zm-1.27,15.49a11.09,11.09,0,0,0,3.29-2.91,14.51,14.51,0,0,0,2.15-4.3,11,11,0,0,0-3.29,2.92A14.12,14.12,0,0,0,77.61,130.79ZM77.23,126a12,12,0,0,0,3.67-2.15,12.73,12.73,0,0,0,2.78-3.68A11.79,11.79,0,0,0,80,122.35,12.7,12.7,0,0,0,77.23,126Zm2.91,14.26a13.82,13.82,0,0,0,2.4-4.14,16.37,16.37,0,0,0,.88-4.91,14.07,14.07,0,0,0-2.4,4.14A16.42,16.42,0,0,0,80.14,140.3Zm-1.64-4.14a15,15,0,0,0,2.9-3.53,13.7,13.7,0,0,0,1.52-4.6A15.15,15.15,0,0,0,80,131.56,12.86,12.86,0,0,0,78.5,136.16Zm6.82,10.43a14.13,14.13,0,0,0,1.14-4.75,16.73,16.73,0,0,0-.51-4.91,14.13,14.13,0,0,0-1.14,4.75A13.41,13.41,0,0,0,85.32,146.59Zm-2.78-2.91a13.1,13.1,0,0,0,1.77-4.45,19.68,19.68,0,0,0,.25-5.06,13.1,13.1,0,0,0-1.77,4.44A19.75,19.75,0,0,0,82.54,143.68Zm10,7.36A16.46,16.46,0,0,0,92.4,146a14.88,14.88,0,0,0-1.77-4.6,16.46,16.46,0,0,0,.12,5.06A14.88,14.88,0,0,0,92.52,151Zm-3.79-1.84a17.76,17.76,0,0,0,.51-4.91,16.39,16.39,0,0,0-1-4.91,17.33,17.33,0,0,0-.51,4.91A16.39,16.39,0,0,0,88.73,149.2Zm11.88,4.6a12.76,12.76,0,0,0-1.52-4.6,14.09,14.09,0,0,0-2.9-3.68,12.86,12.86,0,0,0,1.51,4.6A11.53,11.53,0,0,0,100.61,153.8ZM96.19,153a18.71,18.71,0,0,0-.76-4.9A15.49,15.49,0,0,0,93.15,144a18.75,18.75,0,0,0,.76,4.91A15.32,15.32,0,0,0,96.19,153ZM85.32,105.17c5.81-2.14,6.57-8.89,9.22-11C91.51,95.05,85.57,96.89,85.32,105.17ZM81.15,111a18.74,18.74,0,0,0-2.91-11.66A18.69,18.69,0,0,0,81.15,111Zm-3.41,10a20.82,20.82,0,0,0-2-5.67,16.48,16.48,0,0,0-3.67-4.3,20.82,20.82,0,0,0,2,5.68A14,14,0,0,0,77.74,121Zm0,10a16.68,16.68,0,0,0-3.54-4.6,12.72,12.72,0,0,0-4.68-2.61,16.65,16.65,0,0,0,3.54,4.61A12.68,12.68,0,0,0,77.74,130.94Zm2,7.37a12.87,12.87,0,0,0-4.55-2.92,12.27,12.27,0,0,0-5-.61,12.81,12.81,0,0,0,4.55,2.91A9.81,9.81,0,0,0,79.76,138.31Zm5,8a11.56,11.56,0,0,0-5-.93,11.3,11.3,0,0,0-4.93,1.54,11.7,11.7,0,0,0,5.06.92A11.14,11.14,0,0,0,84.81,146.29ZM91.13,151a11.6,11.6,0,0,0-5,1.07,14.49,14.49,0,0,0-4.3,3.38,11.65,11.65,0,0,0,5.06-1.07A12.68,12.68,0,0,0,91.13,151ZM99,153.8s-1.14,0-3.16,2.15a15.23,15.23,0,0,0-3.16,4.91,11.05,11.05,0,0,0,4.42-3.07C99.22,155.64,99,153.8,99,153.8ZM83.42,107.17a19.75,19.75,0,0,0,.76-6.14,18.13,18.13,0,0,0-1.26-6,19.71,19.71,0,0,0-.76,6.13A18.45,18.45,0,0,0,83.42,107.17ZM79,116.37a19.59,19.59,0,0,0-.63-6.13,16.88,16.88,0,0,0-2.53-5.37,19.59,19.59,0,0,0,.63,6.13A17.27,17.27,0,0,0,79,116.37Zm-1.39,9.82A19.14,19.14,0,0,0,74.83,121a12.75,12.75,0,0,0-4.17-3.52,19.35,19.35,0,0,0,2.78,5.21A12.82,12.82,0,0,0,77.61,126.19Zm.63,8.28a12.59,12.59,0,0,0-4-3.68,10.5,10.5,0,0,0-4.93-1.53,12.69,12.69,0,0,0,4,3.68A10.13,10.13,0,0,0,78.24,134.47Zm3.42,8.29a13.13,13.13,0,0,0-4.81-2,10.29,10.29,0,0,0-5,.46,13.14,13.14,0,0,0,4.8,2A10.34,10.34,0,0,0,81.66,142.76Zm5.81,6.44a12,12,0,0,0-5.06,0,11.71,11.71,0,0,0-4.67,2.45,11.75,11.75,0,0,0,5.05,0A14.28,14.28,0,0,0,87.47,149.2Zm8.34,3.68a11.9,11.9,0,0,0-4.8,2A14.26,14.26,0,0,0,87.22,159a11.9,11.9,0,0,0,4.8-2A20.8,20.8,0,0,0,95.81,152.88Zm3.54-.46c-12.39-1.07-23.51-15-21.11-29.91,1.52-9.05,5.31-16.72,11.38-21-7.08,2.76-12,12.43-12.77,22.55-1.26,15.5,9.86,29.15,22.62,30.68a6.07,6.07,0,0,1,4.68,4.45C107.05,156.87,106.3,153,99.35,152.42Z"/><path class="cls-15" d="M81.45,118.78l19.13-19.12,19.14,19.12-7,7-12.1-12.09-12.1,12.08ZM95.67,133h0l19.14,19.12L134,133h0l-7-7-12.09,12.08L102.72,126Z"/></g></g></svg>