<svg width="13" height="12" viewBox="0 0 13 12" fill="none" xmlns="http://www.w3.org/2000/svg">
<path d="M11.3337 0H2.00033C1.26699 0 0.666992 0.6 0.666992 1.33333V6.66667C0.666992 8.14 1.86033 9.33333 3.33366 9.33333H7.33366C8.80699 9.33333 10.0003 8.14 10.0003 6.66667V4.66667H11.3337C12.0737 4.66667 12.667 4.06667 12.667 3.33333V1.33333C12.667 0.6 12.067 0 11.3337 0ZM11.3337 3.33333H10.0003V1.33333H11.3337V3.33333ZM1.33366 10.6667H10.667C11.0337 10.6667 11.3337 10.9667 11.3337 11.3333C11.3337 11.7 11.0337 12 10.667 12H1.33366C0.966992 12 0.666992 11.7 0.666992 11.3333C0.666992 10.9667 0.966992 10.6667 1.33366 10.6667Z" fill="#6EA3AA"/>
</svg>
