<svg width="385" height="486" viewBox="0 0 385 486" fill="none" xmlns="http://www.w3.org/2000/svg">
<path d="M434.174 304.141C434.174 243.464 337.825 194.262 219 194.262C100.176 194.262 4.02832 243.464 4.02832 304.141V425.336C4.03847 429.542 4.49751 433.735 5.39783 437.845C17.4817 492.666 108.675 535.215 219.202 535.215C329.729 535.215 420.801 492.666 432.965 437.845C433.898 433.739 434.371 429.544 434.375 425.336V304.141H434.174Z" fill="#FFD087"/>
<path d="M219 539C107.708 539 14.1785 495.853 1.49041 438.682C0.493302 434.302 -0.00657178 429.825 6.52281e-05 425.336V304.141C6.52281e-05 241.472 98.2419 190.477 219 190.477C339.758 190.477 438 241.472 438 304.141V425.336C438.007 429.825 437.507 434.302 436.51 438.682C423.822 495.853 330.292 539 219 539ZM219 198.046C102.471 198.046 7.65318 245.656 7.65318 304.141V425.336C7.66141 429.274 8.09349 433.201 8.94213 437.049C21.026 490.833 111.212 531.43 219 531.43C326.788 531.43 417.095 490.833 429.018 437.049C429.899 433.205 430.345 429.277 430.347 425.336V304.141C430.347 245.656 335.529 198.046 219 198.046Z" fill="#7B413B"/>
<path d="M433.488 304.141C433.488 327.727 433.488 351.352 433.931 374.937C433.931 394.38 436.912 417.527 416.007 428.762C415.001 429.32 413.891 429.672 412.744 429.798C394.941 431.551 392.605 399.678 371.136 416.531C359.293 425.853 355.628 442.387 347.29 454.299C339.903 465.855 329.063 474.849 316.275 480.036C286.307 490.713 268.503 466.291 243.329 456.53C235.685 453.274 227.12 452.808 219.161 455.216C209.212 458.762 202.485 467.805 193.986 474.02C172.155 489.957 141.623 483.463 123.94 464.817C115.119 455.574 106.136 444.897 93.6497 442.148C77.2962 438.164 61.0635 446.889 44.6697 441.63C28.2759 436.371 15.467 422.069 8.05558 406.969C6.72636 404.3 5.55825 401.591 4.4707 398.802V304.141C4.51098 243.464 100.699 194.262 219 194.262C337.301 194.262 433.488 243.464 433.488 304.141Z" fill="white"/>
<path d="M430.991 304.141C430.991 332.428 431.716 360.714 431.636 389.001C431.636 398.842 430.911 409.519 424.949 417.846C421.848 422.228 415.967 427.885 410.126 427.288C406.733 426.638 403.657 424.885 401.386 422.308C397.076 418.324 393.571 412.706 387.892 410.356C381.286 407.407 374.559 410.634 369.363 414.818C360.26 422.108 355.91 433.104 350.835 443.144C345.493 454.303 337.473 464.001 327.473 471.391C322.66 475.039 317.12 477.635 311.218 479.009C305.316 480.383 299.187 480.502 293.235 479.359C282.561 476.929 273.337 470.554 264.193 464.897C255.05 459.24 244.859 452.945 233.742 451.63C221.658 450.076 212.354 454.897 203.693 462.467C193.946 471.032 185.044 478.722 171.47 480.315C160.077 481.501 148.6 479.044 138.723 473.303C128.29 467.367 121.523 457.686 112.581 449.997C108.267 446.057 103.181 443.034 97.6384 441.115C92.0959 439.196 86.2144 438.423 80.3575 438.841C65.9374 439.638 52.4437 443.582 38.789 436.73C27.8696 430.831 18.8937 421.953 12.9295 411.152C9.55166 406.61 7.45286 401.262 6.84727 395.654V380.714C6.84727 355.641 6.84727 330.569 6.84727 305.496C6.84727 274.898 29.8469 251.831 54.498 236.492C94.7776 211.473 143.838 200.875 190.683 197.728C241.677 194.301 294.484 199.481 342.658 217.13C375.244 229.082 413.59 249.321 426.762 283.424C429.336 290.039 430.7 297.054 430.79 304.141C430.868 304.757 431.171 305.324 431.642 305.735C432.113 306.146 432.719 306.373 433.347 306.373C433.975 306.373 434.582 306.146 435.053 305.735C435.524 305.324 435.827 304.757 435.905 304.141C435.623 269.281 406.582 243.504 378.104 227.648C334.924 203.743 283.81 193.903 234.749 192.03C182.909 190.118 129.136 196.851 81.2033 217.17C49.6242 230.556 13.6142 253.066 4.0277 288.205C2.07807 297.193 1.34662 306.397 1.8526 315.575V396.252C1.8526 402.427 5.5986 408.204 8.65985 413.543C14.3782 423.697 22.5063 432.325 32.3442 438.682C44.4281 446.252 56.9953 446.411 70.8918 444.698C77.5383 443.503 84.3312 443.329 91.0316 444.18C98.1825 445.784 104.739 449.33 109.963 454.419C119.066 462.626 126.075 472.267 137.232 478.323C146.785 483.558 157.62 486.068 168.529 485.574C179.852 484.85 190.621 480.469 199.182 473.104C203.653 469.359 207.641 465.136 212.434 461.71C215.749 459.341 219.538 457.7 223.546 456.896C227.554 456.092 231.689 456.144 235.675 457.048C257.87 461.71 273.297 482.068 296.095 484.937C320.504 488.044 341.973 469.518 352.889 449.558C358.85 438.722 362.838 425.654 373.029 417.965C380.199 412.666 385.717 413.981 391.557 419.957C396.149 424.738 400.459 430.475 407.307 431.909C416.41 434.061 424.989 426.332 429.541 419.28C434.376 410.602 436.691 400.771 436.227 390.874C436.227 377.686 435.865 364.459 435.784 351.272C435.784 335.522 435.784 319.785 435.784 304.062C435.586 303.589 435.249 303.187 434.817 302.907C434.384 302.627 433.877 302.482 433.36 302.49C432.844 302.499 432.341 302.661 431.919 302.955C431.496 303.25 431.173 303.663 430.991 304.141Z" fill="#7B413B"/>
<path d="M218.999 417.009C98.684 417.009 0.804688 366.531 0.804688 304.141H6.84662C6.84662 363.105 102.027 411.033 218.999 411.033C335.971 411.033 430.991 363.105 430.991 304.141H437.032C437.194 366.531 339.314 417.009 218.999 417.009Z" fill="#7B413B"/>
<path d="M47.0879 193.863C47.0879 145.377 124.062 106.214 219.001 106.214C313.94 106.214 390.914 145.537 390.914 193.863V290.835C390.915 294.21 390.551 297.576 389.827 300.874C380.079 344.46 307.334 378.483 219.001 378.483C130.668 378.483 57.9231 344.46 48.3366 300.715C47.5697 297.474 47.1511 294.162 47.0879 290.835V193.903V193.863Z" fill="#FFD087"/>
<path d="M219.001 382.467C129.701 382.467 54.6599 347.567 44.3081 301.512C43.5889 297.998 43.2379 294.42 43.2608 290.835V193.863C43.2608 143.346 122.088 102.23 219.001 102.23C315.913 102.23 394.74 143.425 394.74 193.863V290.835C394.735 294.477 394.343 298.109 393.572 301.671C383.341 347.567 308.3 382.467 219.001 382.467ZM219.001 110.079C126.358 110.079 50.9139 147.728 50.9139 194.062V290.835C50.906 293.93 51.2437 297.016 51.9209 300.038C61.3866 342.627 133.205 374.698 219.001 374.698C304.796 374.698 376.615 342.627 386.08 299.878C386.727 296.906 387.064 293.875 387.087 290.835V193.863C387.087 147.409 311.684 109.88 219.001 109.88V110.079Z" fill="#7B413B"/>
<path d="M47.6099 193.863C47.6099 212.708 47.6099 231.552 47.2473 250.397C47.2473 265.974 44.8708 284.42 61.5869 293.424C62.3915 293.88 63.2831 294.164 64.205 294.261C78.4237 295.655 80.3169 270.357 97.4357 283.663C106.901 291.113 109.842 304.301 116.488 313.822C122.395 323.055 131.049 330.251 141.26 334.42C165.428 342.946 179.445 323.424 199.544 315.615C205.671 313.085 212.503 312.775 218.838 314.739C226.894 317.567 232.131 324.778 238.978 329.719C256.419 342.428 280.748 337.288 294.967 322.388C302.016 315.018 309.185 306.651 319.134 304.261C332.185 301.153 345.155 308.245 358.246 303.862C371.337 299.48 381.568 288.245 387.489 275.974C388.576 273.863 389.503 271.671 390.389 269.44V193.744C390.389 145.258 313.858 106.095 218.999 106.095C124.141 106.095 47.6099 145.377 47.6099 193.863Z" fill="white"/>
<path d="M45.0737 193.863C45.0737 217.329 43.9459 240.915 44.5501 264.341C44.312 272.046 46.221 279.668 50.0684 286.372C53.6935 291.87 60.3396 297.846 67.4691 296.651C72.9471 295.735 76.5723 291.512 80.1572 287.687C84.7893 282.667 88.8576 280.516 95.0606 285.018C103.117 290.954 106.419 300.954 110.971 309.639C115.385 317.878 121.572 325.059 129.097 330.675C136.591 336.435 145.919 339.36 155.399 338.922C163.62 337.887 171.475 334.938 178.318 330.316C186.374 325.456 194.43 319.44 203.654 316.89C206.606 315.985 209.712 315.681 212.786 315.996C215.86 316.311 218.837 317.239 221.538 318.723C225.886 321.628 229.934 324.951 233.622 328.643C240.415 334.447 248.838 338.061 257.764 339C266.69 339.94 275.693 338.161 283.569 333.902C292.431 329.32 298.19 321.95 305.36 315.217C308.972 311.511 313.357 308.629 318.209 306.771C324.047 305.383 330.118 305.248 336.013 306.372C346.848 307.647 356.596 308.085 366.424 302.667C374.79 297.752 381.728 290.78 386.564 282.428C389.834 278.107 391.94 273.034 392.686 267.687C392.686 264.062 392.686 260.396 392.686 256.771C392.686 235.895 392.686 215.058 392.686 194.222C392.686 168.405 373.231 148.684 352.407 135.736C319.619 115.537 279.38 106.772 240.953 104.262C198.579 101.473 154.312 106.055 114.596 121.553C88.1325 131.872 58.5271 148.804 48.3363 176.692C46.3029 182.194 45.2534 188.005 45.2348 193.863C45.2348 194.529 45.5022 195.167 45.9781 195.638C46.454 196.109 47.0994 196.373 47.7724 196.373C48.4454 196.373 49.0909 196.109 49.5668 195.638C50.0427 195.167 50.31 194.529 50.31 193.863C50.592 165.975 75.4042 146.413 98.0816 134.581C132.722 116.493 173.203 109.481 212.032 108.684C251.909 107.848 293.357 113.386 329.971 129.64C354.139 140.318 382.053 158.206 387.289 185.935C388.11 192.542 388.339 199.208 387.974 205.855V240.357C387.974 249.321 388.457 258.365 387.974 267.329C386.951 272.87 384.526 278.065 380.925 282.428C375.505 291.025 367.34 297.587 357.724 301.073C346.727 304.5 335.53 299.878 324.412 300.635C315.612 301.493 307.432 305.503 301.413 311.91C294.444 318.484 288.805 325.655 279.904 329.878C271.094 334.191 260.994 335.169 251.506 332.627C241.92 329.918 235.999 322.786 228.426 316.93C224.846 314.047 220.604 312.078 216.074 311.196C211.544 310.314 206.864 310.545 202.446 311.87C186.334 316.332 174.25 330.954 157.454 333.464C136.226 336.651 120.799 317.846 112.623 301.073C108.071 291.711 97.5177 271.512 83.6615 278.125C79.1099 280.317 76.3306 284.779 72.7055 288.125C70.9742 290.001 68.6402 291.225 66.0996 291.591C61.548 291.87 56.9562 287.09 54.6602 283.623C50.1086 276.811 49.7461 268.205 49.7864 260.317C49.7864 249.799 50.1086 239.281 50.1892 228.763C50.1892 217.05 50.1892 205.377 50.1892 193.664C50.1625 192.993 49.8674 192.36 49.3688 191.904C48.8703 191.448 48.2091 191.207 47.5307 191.234C46.8524 191.26 46.2124 191.552 45.7516 192.045C45.2908 192.538 45.047 193.192 45.0737 193.863Z" fill="#7B413B"/>
<path d="M219 284.659C122.53 284.659 44.0654 243.903 44.0654 193.863H50.1074C50.1074 240.636 125.873 278.882 219 278.882C312.126 278.882 387.892 240.636 387.892 193.863H393.934C393.934 243.903 315.469 284.659 219 284.659Z" fill="#7B413B"/>
<path d="M348.7 87.6488C348.7 50.9558 290.617 21.195 219 21.195C147.383 21.195 89.2998 50.8363 89.2998 87.6488V160.796C89.3046 163.34 89.5746 165.876 90.1054 168.365C97.4766 201.512 152.378 227.09 219 227.09C285.622 227.09 340.523 201.353 347.895 168.206C348.459 165.721 348.742 163.183 348.74 160.636V87.6488H348.7Z" fill="#FFD087"/>
<path d="M219 231.074C151.209 231.074 94.1333 204.5 86.3996 169.242C85.7689 166.484 85.458 163.663 85.4732 160.835V87.6487C85.4732 48.9239 145.369 17.4102 219 17.4102C292.631 17.4102 352.527 48.8044 352.527 87.6487V160.796C352.537 163.623 352.227 166.443 351.6 169.202C343.826 204.461 286.79 231.074 219 231.074ZM219 24.9002C149.598 24.8603 93.1263 52.9876 93.1263 87.6487V160.796C93.1261 163.072 93.3691 165.342 93.8513 167.568C100.82 198.923 155.761 223.345 219 223.345C282.239 223.345 337.18 198.803 344.149 167.568C344.631 165.342 344.874 163.072 344.874 160.796V87.6487C344.874 52.9876 288.402 24.8603 219 24.8603V24.9002Z" fill="#7B413B"/>
<path d="M348.701 87.6488C348.701 101.912 348.701 116.174 348.983 130.437C348.983 142.19 350.795 156.174 338.147 162.987C337.54 163.33 336.869 163.546 336.174 163.624C325.379 164.66 324.09 145.417 310.999 155.656C303.829 161.274 301.614 171.274 296.579 178.485C292.1 185.387 285.592 190.768 277.93 193.903C259.683 200.357 248.928 185.576 233.622 179.68C229.016 177.693 223.84 177.41 219.041 178.883C213.039 180.995 208.971 186.493 203.815 190.238C190.603 199.839 172.236 195.975 161.441 184.7C156.124 179.082 150.686 172.748 143.154 170.955C133.245 168.604 123.417 173.823 113.549 170.676C108.643 168.797 104.161 165.979 100.359 162.383C96.5574 158.787 93.5111 154.484 91.3948 149.72C90.5892 148.087 89.8642 146.413 89.2197 144.74V87.6488C89.2197 50.9558 147.263 21.195 218.92 21.195C290.577 21.195 348.701 50.8363 348.701 87.6488Z" fill="white"/>
<path d="M346.162 87.6488C346.162 104.422 346.444 121.194 346.565 137.927C347.094 143.983 345.79 150.057 342.819 155.377C341.047 157.887 337.623 161.353 334.24 160.756C332.303 160.188 330.589 159.048 329.326 157.489C327.19 154.597 324.441 152.204 321.27 150.477C319.3 149.894 317.21 149.834 315.209 150.302C313.208 150.771 311.367 151.752 309.87 153.146C305.23 157.258 301.629 162.389 299.358 168.126C296.406 174.768 292.1 180.736 286.71 185.656C283.799 188.375 280.292 190.39 276.462 191.544C272.633 192.698 268.585 192.96 264.637 192.309C258.428 190.531 252.59 187.67 247.397 183.863C236.239 176.931 223.511 171.114 211.749 180.198C206.03 184.58 201.599 189.919 194.389 192.15C187.293 194.003 179.757 193.224 173.202 189.959C160.756 183.943 154.915 169.082 139.85 167.887C131.351 167.21 122.812 170.756 114.434 168.206C106.976 165.5 100.698 160.318 96.6707 153.545C94.2143 150.482 92.5546 146.871 91.8372 143.027C91.8372 140.358 91.8372 137.569 91.8372 135.059C91.8372 119.76 91.8372 104.422 91.8372 89.083C91.8372 71.0353 104.606 57.5294 119.227 48.2466C142.912 33.187 172.034 26.6532 199.786 24.5416C230.84 21.7272 262.146 25.3501 291.704 35.179C311.602 42.1511 335.367 54.2625 343.665 75.0194C345.255 79.0475 346.101 83.3251 346.162 87.6488C346.241 88.2651 346.544 88.8319 347.015 89.2428C347.486 89.6537 348.092 89.8804 348.72 89.8804C349.348 89.8804 349.955 89.6537 350.425 89.2428C350.896 88.8319 351.2 88.2651 351.278 87.6488C350.996 66.2545 333.555 50.4379 315.993 40.5973C289.69 25.7767 258.554 19.9202 228.667 18.7249C196.725 16.965 164.786 22.2166 135.138 34.1033C115.642 42.3901 93.69 56.2546 87.9703 77.9277C86.8516 83.3919 86.4321 88.9735 86.7217 94.5411V122.071C86.7217 129.242 86.2383 136.613 86.7217 143.744C87.3987 147.759 88.982 151.572 91.3538 154.899C94.8731 160.859 99.7397 165.932 105.572 169.72C112.447 173.738 120.562 175.154 128.411 173.704C132.553 172.937 136.783 172.75 140.978 173.146C145.812 174.181 150.202 176.673 153.545 180.278C158.983 185.417 163.454 190.955 170.342 194.301C176.184 197.25 182.732 198.559 189.273 198.086C195.71 197.632 201.853 195.241 206.876 191.234C214.126 185.457 219.483 178.684 229.875 181.234C243.329 184.501 252.714 196.931 267.094 198.046C281.473 199.162 294.363 188.046 301.009 176.094C304.594 169.6 306.97 161.473 313.375 156.971C318.41 153.465 321.108 156.413 324.573 160.118C325.791 161.744 327.322 163.116 329.078 164.155C330.833 165.194 332.779 165.88 334.804 166.174C340.08 166.413 344.914 161.832 347.532 157.688C350.43 152.419 351.822 146.469 351.56 140.477C351.56 132.509 351.56 124.541 351.318 116.812C351.318 107.091 351.318 97.3698 351.318 87.6488C351.318 87.3139 351.251 86.9824 351.122 86.673C350.992 86.3636 350.802 86.0826 350.563 85.8458C350.324 85.609 350.04 85.4212 349.727 85.2931C349.414 85.1649 349.079 85.099 348.74 85.099C348.402 85.099 348.066 85.1649 347.754 85.2931C347.441 85.4212 347.157 85.609 346.917 85.8458C346.678 86.0826 346.488 86.3636 346.359 86.673C346.229 86.9824 346.162 87.3139 346.162 87.6488Z" fill="#7B413B"/>
<path d="M332.065 54.9398C332.065 40.3583 325.821 9.99991 305.883 5.33859C283.85 0.239021 265.845 15.1393 257.467 23.9042C231.967 19.9201 205.993 19.9201 180.493 23.9042C172.074 14.9799 154.15 -2.14577e-05 132.157 5.17922C112.219 9.84054 105.774 40.1989 105.976 54.7805C95.3417 64.5812 89.2998 75.6966 89.2998 87.6487C89.2998 124.342 147.343 154.063 219 154.063C290.657 154.063 348.7 124.222 348.7 87.6487C348.7 75.6966 342.658 64.5812 332.065 54.9398Z" fill="white"/>
<path d="M219.001 158.246C143.839 158.246 84.9502 127.171 84.9502 87.5297C84.9502 75.5776 90.7102 63.6255 101.586 53.0678C101.988 39.4424 107.708 6.61393 131.111 1.27532C153.869 -3.98361 172.276 9.64179 182.064 19.4824C206.555 15.897 231.446 15.897 255.937 19.4824C265.846 9.64179 284.133 -3.9836 306.85 1.1558C328.078 6.096 336.093 34.8209 336.416 52.9482C347.291 63.3466 353.051 75.219 353.051 87.3703C353.051 127.171 294.041 158.246 219.001 158.246ZM140.979 8.60594C138.267 8.60166 135.564 8.90916 132.923 9.52227C115.442 13.5063 109.924 42.3906 110.085 54.9004V56.8128L108.675 58.1275C98.6855 67.1712 93.4492 77.3305 93.4492 87.5297C93.4492 121.792 149.841 149.681 218.799 149.681C287.758 149.681 344.149 121.792 344.149 87.5297C344.149 77.3305 338.913 67.1712 328.924 58.1275L327.514 56.8128V54.9004C327.514 42.3906 322.157 13.586 304.675 9.52227C284.898 4.94063 268.424 18.4863 260.368 26.9723L258.797 28.6456L256.501 28.2871C231.569 24.4598 206.19 24.4598 181.259 28.2871L179.003 28.6456L177.231 26.9723C170.423 19.6816 157.292 8.60594 140.979 8.60594Z" fill="#7B413B"/>
<path d="M282.52 92.7483C288.949 92.7483 294.161 87.5934 294.161 81.2345C294.161 74.8755 288.949 69.7206 282.52 69.7206C276.091 69.7206 270.879 74.8755 270.879 81.2345C270.879 87.5934 276.091 92.7483 282.52 92.7483Z" fill="#7D3D42"/>
<path d="M282.521 92.9874C280.122 92.987 277.778 92.2808 275.787 90.9584C273.795 89.6361 272.247 87.7575 271.339 85.5619C270.43 83.3664 270.203 80.9531 270.686 78.6293C271.169 76.3056 272.34 74.1765 274.05 72.5132C275.76 70.8498 277.932 69.7275 280.289 69.2891C282.646 68.8506 285.082 69.1159 287.286 70.0512C289.49 70.9864 291.363 72.5493 292.667 74.5409C293.97 76.5324 294.645 78.8625 294.605 81.2345C294.605 82.7948 294.291 84.3395 293.681 85.7786C293.072 87.2177 292.178 88.5223 291.053 89.6163C289.929 90.7103 288.595 91.5718 287.13 92.1506C285.665 92.7293 284.098 93.0138 282.521 92.9874ZM282.521 69.9597C280.271 69.9833 278.08 70.6645 276.221 71.9176C274.362 73.1708 272.92 74.9398 272.076 77.002C271.232 79.0641 271.023 81.3273 271.476 83.5064C271.93 85.6856 273.025 87.6834 274.624 89.2483C276.223 90.8131 278.254 91.8752 280.462 92.3006C282.67 92.726 284.955 92.4959 287.031 91.6391C289.107 90.7824 290.88 89.3373 292.128 87.4858C293.375 85.6344 294.041 83.4593 294.041 81.2345C294.041 79.7437 293.742 78.2678 293.162 76.892C292.581 75.5162 291.731 74.268 290.659 73.2194C289.588 72.1709 288.317 71.3429 286.92 70.7834C285.523 70.2238 284.028 69.9439 282.521 69.9597Z" fill="#D53D2C"/>
<path d="M154.231 92.7483C160.66 92.7483 165.871 87.5934 165.871 81.2345C165.871 74.8755 160.66 69.7206 154.231 69.7206C147.802 69.7206 142.59 74.8755 142.59 81.2345C142.59 87.5934 147.802 92.7483 154.231 92.7483Z" fill="#7D3D42"/>
<path d="M154.232 92.9874C151.833 92.9871 149.489 92.2808 147.498 90.9584C145.506 89.6361 143.958 87.7575 143.05 85.562C142.141 83.3664 141.914 80.9531 142.397 78.6293C142.88 76.3056 144.051 74.1765 145.761 72.5132C147.471 70.8498 149.643 69.7275 152 69.2891C154.357 68.8506 156.793 69.1159 158.997 70.0512C161.201 70.9864 163.074 72.5493 164.378 74.5409C165.681 76.5324 166.355 78.8625 166.316 81.2345C166.263 84.3697 164.966 87.3589 162.706 89.5574C160.445 91.756 157.402 92.9878 154.232 92.9874ZM154.232 69.9597C151.977 69.9597 149.773 70.6209 147.899 71.8598C146.024 73.0987 144.563 74.8596 143.7 76.9198C142.837 78.98 142.612 81.247 143.052 83.4341C143.491 85.6212 144.577 87.6302 146.171 89.207C147.765 90.7838 149.797 91.8576 152.008 92.2927C154.219 92.7277 156.511 92.5044 158.594 91.6511C160.677 90.7977 162.457 89.3526 163.71 87.4984C164.962 85.6443 165.631 83.4644 165.631 81.2345C165.631 79.7539 165.336 78.2877 164.763 76.9198C164.19 75.5519 163.351 74.3089 162.292 73.262C161.234 72.215 159.977 71.3845 158.594 70.8179C157.211 70.2513 155.729 69.9597 154.232 69.9597Z" fill="#D53D2C"/>
<path d="M204.822 109.322C201.837 109.615 198.839 108.917 196.301 107.337C193.762 105.757 191.828 103.385 190.805 100.597C190.714 100.293 190.688 99.9741 190.728 99.6599C190.768 99.3456 190.872 99.0428 191.035 98.7702C191.198 98.4976 191.416 98.261 191.675 98.0751C191.934 97.8892 192.229 97.7579 192.542 97.6895C192.854 97.6211 193.178 97.617 193.492 97.6774C193.806 97.7378 194.105 97.8615 194.368 98.0407C194.632 98.2199 194.856 98.4509 195.026 98.7193C195.196 98.9877 195.308 99.2877 195.356 99.6009C196.685 104.501 203.412 105.457 208.004 104.581C210.173 104.191 212.147 103.092 213.608 101.459C215.069 99.8255 215.933 97.754 216.06 95.577C216.101 94.9676 216.381 94.3981 216.84 93.9891C217.298 93.5801 217.9 93.3637 218.517 93.3858C218.826 93.3957 219.129 93.4672 219.409 93.5959C219.69 93.7246 219.941 93.9079 220.147 94.1348C220.354 94.3617 220.513 94.6275 220.613 94.9164C220.714 95.2053 220.754 95.5113 220.732 95.816C220.547 99.018 219.285 102.067 217.146 104.478C215.008 106.889 212.116 108.524 208.93 109.123C207.571 109.328 206.195 109.394 204.822 109.322Z" fill="#7D3D42"/>
<path d="M231.97 109.322C230.617 109.323 229.268 109.19 227.942 108.923C224.742 108.34 221.831 106.712 219.677 104.3C217.523 101.888 216.249 98.83 216.059 95.6168C216.038 95.312 216.078 95.0061 216.179 94.7172C216.279 94.4283 216.438 94.1624 216.644 93.9355C216.851 93.7086 217.102 93.5253 217.382 93.3966C217.663 93.2679 217.966 93.1965 218.275 93.1865C218.889 93.1743 219.485 93.3941 219.942 93.8011C220.398 94.2082 220.681 94.772 220.732 95.3777C220.852 97.557 221.713 99.6322 223.175 101.267C224.638 102.901 226.616 103.999 228.788 104.382C233.138 105.218 240.106 104.382 241.395 99.4016C241.565 98.8054 241.963 98.2977 242.504 97.9855C243.045 97.6734 243.687 97.5812 244.295 97.7283C244.594 97.8021 244.875 97.9347 245.122 98.1181C245.368 98.3016 245.574 98.5321 245.728 98.7961C245.882 99.06 245.981 99.352 246.019 99.6545C246.056 99.957 246.032 100.264 245.947 100.557C244.95 103.358 243.029 105.745 240.494 107.335C237.959 108.925 234.956 109.625 231.97 109.322Z" fill="#7D3D42"/>
<path d="M321.995 89.5212C321.415 89.5143 320.859 89.2945 320.434 88.9044C320.009 88.5144 319.746 87.9821 319.695 87.4109C319.645 86.8396 319.811 86.2704 320.162 85.8136C320.512 85.3569 321.022 85.0454 321.592 84.9396L335.448 82.4695C336.061 82.3645 336.692 82.5018 337.204 82.852C337.717 83.2022 338.069 83.7372 338.187 84.342C338.245 84.6431 338.242 84.9525 338.178 85.2524C338.114 85.5523 337.99 85.8365 337.814 86.0887C337.638 86.3408 337.413 86.5557 337.152 86.721C336.891 86.8862 336.599 86.9984 336.294 87.0512L322.236 89.5212H321.995Z" fill="#7D3D42"/>
<path d="M335.409 103.824C335.169 103.862 334.924 103.862 334.684 103.824L321.271 99.6009C320.977 99.5102 320.704 99.3629 320.467 99.1674C320.231 98.9719 320.036 98.7321 319.894 98.4617C319.752 98.1914 319.665 97.8959 319.638 97.5923C319.612 97.2887 319.647 96.9829 319.74 96.6925C319.943 96.1081 320.367 95.624 320.922 95.3417C321.478 95.0595 322.123 95.001 322.721 95.1786L336.134 99.4814C336.428 99.572 336.701 99.7194 336.938 99.9149C337.174 100.11 337.369 100.35 337.511 100.621C337.654 100.891 337.74 101.186 337.767 101.49C337.793 101.794 337.758 102.099 337.665 102.39C337.479 102.826 337.164 103.196 336.761 103.452C336.359 103.707 335.887 103.837 335.409 103.824Z" fill="#7D3D42"/>
<path d="M115.28 89.5212H114.878L100.981 87.0511C100.367 86.9402 99.8224 86.5924 99.4674 86.0843C99.1124 85.5763 98.9759 84.9495 99.0881 84.342C99.2003 83.7344 99.5519 83.1958 100.066 82.8446C100.579 82.4935 101.213 82.3585 101.827 82.4695L115.683 84.9396C116.253 85.0454 116.763 85.3569 117.113 85.8136C117.464 86.2703 117.63 86.8396 117.58 87.4108C117.529 87.982 117.266 88.5144 116.841 88.9044C116.416 89.2944 115.86 89.5143 115.28 89.5212Z" fill="#7D3D42"/>
<path d="M101.867 103.824C101.365 103.822 100.876 103.663 100.471 103.37C100.066 103.077 99.7647 102.664 99.6115 102.19C99.5178 101.9 99.4832 101.594 99.5095 101.291C99.5359 100.987 99.6227 100.692 99.7649 100.421C99.9072 100.151 100.102 99.9111 100.338 99.7156C100.575 99.5201 100.848 99.3728 101.142 99.2821L114.555 94.9794C115.154 94.8018 115.798 94.8602 116.354 95.1425C116.91 95.4247 117.333 95.9089 117.536 96.4933C117.63 96.7837 117.664 97.0894 117.638 97.3931C117.611 97.6967 117.525 97.9922 117.382 98.2625C117.24 98.5328 117.045 98.7727 116.809 98.9682C116.573 99.1637 116.299 99.311 116.005 99.4017L102.592 103.585C102.366 103.704 102.121 103.785 101.867 103.824Z" fill="#7D3D42"/>
<path d="M295.369 106.414C301.931 106.414 307.251 103.631 307.251 100.198C307.251 96.7659 301.931 93.9833 295.369 93.9833C288.806 93.9833 283.486 96.7659 283.486 100.198C283.486 103.631 288.806 106.414 295.369 106.414Z" fill="#F397B7"/>
<path d="M142.026 106.414C148.589 106.414 153.908 103.631 153.908 100.198C153.908 96.7659 148.589 93.9833 142.026 93.9833C135.464 93.9833 130.144 96.7659 130.144 100.198C130.144 103.631 135.464 106.414 142.026 106.414Z" fill="#F397B7"/>
</svg>
