<svg width="366" height="369" viewBox="0 0 366 369" fill="none" xmlns="http://www.w3.org/2000/svg">
<path d="M103.285 245.229C112.708 274.195 125.007 302.145 139.999 328.661C146.446 340.134 153.606 351.423 163.633 359.408C166.643 361.975 170.162 363.875 173.959 364.984C180.98 366.705 187.864 363.837 194.082 360.808C198.671 358.514 203.261 355.967 205.326 351.102C206.439 347.693 206.761 344.076 206.267 340.524C205.464 330.08 203.494 319.759 200.392 309.753L191.535 311.635C200.621 306.58 210.017 302.104 219.667 298.235C222.769 296.683 226.237 296.009 229.694 296.284L219.805 299.978C225.982 308.452 233.077 316.217 240.961 323.131C243.462 325.663 246.507 327.593 249.864 328.776C254.82 330.152 259.616 327.973 263.93 325.724C269.896 322.626 276.091 318.84 278.73 312.3C280.02 308.622 280.52 304.712 280.198 300.827C279.602 288.092 274.691 275.587 269.368 263.609C256.933 235.78 241.817 209.229 224.233 184.331L142.293 181.807L103.285 245.229Z" fill="#FFD087"/>
<path d="M178.434 369C176.664 369.007 174.899 368.798 173.179 368.38C168.89 367.162 164.914 365.033 161.523 362.139C151.082 353.833 143.556 341.878 137.017 330.405C121.885 303.692 109.478 275.526 99.9818 246.331C99.8255 245.849 99.7754 245.339 99.8348 244.836C99.8942 244.333 100.062 243.849 100.326 243.417L139.334 179.994C139.661 179.47 140.118 179.04 140.661 178.746C141.204 178.453 141.814 178.305 142.432 178.319L224.372 180.843C224.914 180.863 225.445 181.008 225.923 181.267C226.4 181.526 226.812 181.891 227.125 182.335C244.79 207.424 259.983 234.166 272.489 262.186C277.905 274.325 282.999 287.427 283.618 300.667C283.969 305.061 283.382 309.48 281.897 313.631C278.777 321.41 271.778 325.563 265.468 328.844C260.672 331.346 255.027 333.893 248.832 332.195C244.958 330.868 241.435 328.679 238.529 325.793C230.769 318.899 223.755 311.208 217.603 302.847C213.013 304.805 208.424 306.893 203.835 309.111C206.984 319.265 208.986 329.74 209.801 340.34C210.361 344.438 209.96 348.609 208.631 352.525C206.199 358.514 200.669 361.703 195.666 363.998C190.375 366.947 184.483 368.658 178.434 369ZM107.141 245.688C116.445 273.877 128.496 301.084 143.12 326.917C150.279 339.606 156.888 349.496 165.905 356.747C168.503 359.004 171.555 360.679 174.854 361.657C180.82 363.126 186.901 360.533 192.615 357.733C196.63 355.806 200.646 353.58 202.16 349.886C203.034 346.964 203.261 343.887 202.825 340.868C202.126 331.709 200.496 322.644 197.961 313.815L192.27 315.031C191.448 315.22 190.584 315.103 189.841 314.704C189.097 314.304 188.523 313.649 188.226 312.858C187.929 312.068 187.929 311.197 188.225 310.407C188.522 309.616 189.095 308.96 189.838 308.56C199.054 303.422 208.588 298.877 218.383 294.953C222.071 293.13 226.2 292.39 230.292 292.819C231.052 292.95 231.748 293.327 232.272 293.892C232.796 294.457 233.12 295.179 233.193 295.947C233.266 296.714 233.085 297.484 232.676 298.138C232.268 298.792 231.656 299.294 230.934 299.565L225.404 301.608C230.726 308.474 236.672 314.834 243.164 320.607C245.292 322.748 247.849 324.414 250.668 325.494C254.408 326.527 258.424 324.668 262.141 322.695C267.579 319.873 273.063 316.637 275.289 311.222C276.395 307.994 276.809 304.57 276.505 301.172C275.977 289.699 271.916 278.547 265.996 265.238C253.952 238.158 239.354 212.288 222.398 187.979L144.244 185.685L107.141 245.688Z" fill="#7B413B"/>
<path d="M102.117 241.168C87.9592 236.441 54.4122 219.232 42.4574 236.097C40.7227 238.751 39.7162 241.814 39.539 244.98C39.3618 248.145 40.0201 251.302 41.4478 254.132C47.4596 266.477 64.3937 276.183 76.991 279.373C93.0532 283.572 110.056 282.241 126.485 281.805" fill="#96E2CE"/>
<path d="M53.9745 232.311C53.2913 232.303 52.6268 232.087 52.07 231.691C27.2395 214.198 9.77405 188.123 3.04833 158.504C-3.6774 128.884 0.814023 97.823 15.6547 71.3221C32.5722 40.5261 60.7133 17.4396 94.2216 6.86692C127.591 -4.14121 163.922 -1.84794 195.643 13.2688C210.949 20.4405 224.621 30.6782 235.811 43.3479C247 56.0176 255.47 70.8496 260.694 86.9253C265.91 103.004 267.708 119.996 265.972 136.81C265.836 137.64 265.389 138.388 264.721 138.9C264.053 139.412 263.215 139.649 262.378 139.564C261.54 139.48 260.767 139.078 260.216 138.443C259.664 137.807 259.376 136.985 259.41 136.144C261.062 120.236 259.366 104.158 254.43 88.9446C249.485 73.7084 241.46 59.6518 230.854 47.6479C220.247 35.644 207.286 25.9493 192.774 19.1659C162.579 4.78587 127.998 2.61582 96.2409 13.1082C64.3346 23.1633 37.5388 45.1424 21.4371 74.4657C7.36259 99.549 3.09108 128.961 9.4489 157.012C15.8067 185.062 32.342 209.758 55.856 226.322C56.4229 226.729 56.8464 227.304 57.0661 227.966C57.2857 228.629 57.2901 229.343 57.0787 230.008C56.8673 230.673 56.4509 231.254 55.8891 231.667C55.3274 232.081 54.6491 232.306 53.9515 232.311H53.9745Z" fill="#89DBC4"/>
<path d="M104.96 286.211C95.2541 286.41 85.5623 285.377 76.1168 283.136C62.0968 279.488 44.5431 268.91 38.1412 255.785C36.4143 252.351 35.6257 248.522 35.8554 244.686C36.0851 240.85 37.3249 237.143 39.4491 233.94C51.1057 217.396 77.6771 227.745 95.2537 234.582C98.3973 235.822 101.105 236.877 103.308 237.611C104.214 237.945 104.956 238.616 105.378 239.484C105.801 240.352 105.872 241.351 105.575 242.269C105.279 243.188 104.638 243.957 103.788 244.415C102.938 244.872 101.943 244.983 101.013 244.725C98.7185 243.944 95.8503 242.843 92.6149 241.581C78.1589 235.959 53.951 226.528 45.6904 238.254C44.3452 240.363 43.5722 242.786 43.4475 245.284C43.3228 247.783 43.8506 250.271 44.9791 252.503C50.3255 263.471 66.0435 272.719 78.1131 275.862C91.3988 279.327 105.648 278.845 119.576 278.386L126.46 278.18C126.975 278.129 127.495 278.185 127.988 278.344C128.481 278.503 128.935 278.762 129.323 279.105C129.711 279.448 130.024 279.867 130.242 280.336C130.461 280.806 130.58 281.315 130.593 281.833C130.605 282.35 130.511 282.865 130.316 283.344C130.121 283.824 129.829 284.258 129.458 284.619C129.087 284.98 128.646 285.261 128.162 285.445C127.678 285.628 127.161 285.709 126.644 285.683L119.76 285.89C114.758 286.05 109.916 286.211 104.96 286.211Z" fill="#7B413B"/>
<path d="M224.073 79.4449C218.956 63.0615 205.717 36.8802 186.763 37.2474C165.905 37.6374 148.237 59.8262 144.176 72.1481C132.482 73.4498 120.95 75.933 109.757 79.5597C98.5984 83.1349 87.8345 87.8402 77.6323 93.6026C67.2149 85.9616 45.6916 77.9994 32.6583 87.1777C12.9707 101.06 27.8396 129.903 33.2778 146.172C29.441 155.366 27.9018 165.357 28.7934 175.28C29.685 185.204 32.9804 194.76 38.3948 203.124C60.1475 237.107 99.9358 239.585 136.42 234.032C175.566 228.02 228.548 207.139 248.855 170.38C265.789 139.357 253.834 97.8935 224.073 79.4449Z" fill="white"/>
<path d="M108.356 240.067C99.1434 240.147 89.9538 239.13 80.9816 237.038C71.624 234.998 62.763 231.125 54.91 225.643C47.057 220.161 40.3674 213.178 35.2274 205.097C29.5989 196.44 26.1209 186.563 25.0831 176.289C24.0454 166.015 25.4779 155.642 29.2614 146.034C28.6189 144.13 27.8388 142.064 26.9668 139.908C20.6796 123.088 11.203 97.6411 30.5005 84.0571C44.6352 74.0986 66.1814 81.5101 78.0445 89.197C97.7623 78.4643 119.311 71.5072 141.582 68.6833C146.882 55.7418 164.367 33.9202 186.694 33.4843H187.152C206.289 33.4843 220.562 56.4302 227.239 77.0815C258.17 97.0675 269.574 140.298 252.067 172.078C242.567 189.356 225.036 204.867 201.402 216.96C181.136 227.15 159.405 234.117 136.993 237.611C127.523 239.155 117.95 239.976 108.356 240.067ZM47.0675 86.8106C42.7376 86.6507 38.4647 87.8371 34.8373 90.2066C21.391 99.6833 26.5308 117.122 34.0571 137.269C35.0897 139.999 36.0534 142.592 36.8336 144.933L37.2925 146.264L36.7418 147.571C33.1199 156.203 31.6655 165.59 32.5055 174.914C33.3454 184.237 36.4541 193.213 41.5604 201.058C58.6781 227.836 89.5175 237.382 135.845 230.269C176.987 223.936 226.849 202.389 245.55 168.521C261.428 139.655 250.713 100.326 222.168 82.6345L220.975 81.9002L220.562 80.5464C215.973 65.8151 203.788 40.9876 187.244 40.9876H186.923C168.038 41.2859 151.472 62.2355 147.754 73.4102L146.997 75.7048L144.702 75.9572C133.305 77.2405 122.066 79.6698 111.155 83.2081C100.227 86.7111 89.6853 91.3244 79.6966 96.9757L77.5856 98.1689L75.6352 96.7462C67.2687 90.7513 57.3484 87.3011 47.0675 86.8106Z" fill="#7B413B"/>
<path d="M109.71 169.462C109.71 169.462 117.397 166.685 116.433 158.93C117.824 160.717 119.634 162.134 121.703 163.055C123.773 163.975 126.037 164.371 128.296 164.207C128.296 164.207 135.731 177.676 124.349 180.659C112.968 183.642 109.71 169.462 109.71 169.462Z" fill="#EF8FA0"/>
<path d="M110.469 171.321C110.712 173.397 111.507 175.371 112.769 177.037C114.032 178.703 115.718 180.001 117.651 180.797C119.524 181.503 121.568 181.621 123.511 181.138C125.453 180.654 127.203 179.591 128.527 178.09C129.462 177.038 130.096 175.754 130.363 174.372C130.605 171.438 129.965 168.498 128.527 165.928" fill="#EF8FA0"/>
<path d="M108.794 171.481C109.78 179.007 116.756 184.514 123.709 182.954C125.416 182.578 127.01 181.804 128.362 180.696C129.713 179.587 130.784 178.176 131.487 176.575C133.048 172.881 131.625 168.888 130.042 165.355C129.968 165.139 129.85 164.941 129.697 164.772C129.544 164.604 129.358 164.468 129.15 164.374C128.943 164.28 128.719 164.229 128.491 164.225C128.263 164.22 128.037 164.262 127.826 164.348C127.615 164.434 127.424 164.562 127.264 164.724C127.104 164.887 126.979 165.08 126.896 165.292C126.814 165.505 126.776 165.732 126.784 165.959C126.792 166.187 126.846 166.411 126.944 166.617C128.091 169.164 129.491 172.192 128.413 174.923C127.932 176.075 127.18 177.093 126.221 177.892C125.262 178.691 124.125 179.247 122.906 179.512C121.649 179.737 120.359 179.697 119.118 179.395C117.878 179.093 116.714 178.535 115.701 177.758C114.688 176.981 113.849 176 113.236 174.88C112.624 173.76 112.252 172.524 112.144 171.252C112.123 171.032 112.059 170.818 111.955 170.623C111.851 170.428 111.71 170.255 111.54 170.114C111.369 169.974 111.173 169.868 110.961 169.803C110.75 169.739 110.528 169.716 110.308 169.737C110.088 169.758 109.875 169.823 109.679 169.926C109.484 170.03 109.311 170.171 109.171 170.341C109.03 170.512 108.925 170.708 108.86 170.92C108.795 171.131 108.773 171.353 108.794 171.573V171.481Z" fill="#7D3D41"/>
<path d="M120.037 170.334C118.887 168.056 118.112 165.608 117.742 163.083L120.037 170.334Z" fill="#7D3D41"/>
<path d="M120.954 169.439C120.679 168.865 120.403 168.292 120.151 167.672L120.38 168.2C119.944 167.074 119.599 165.916 119.348 164.735V165.194C119.187 164.529 119.05 163.84 118.958 163.175C118.797 162.096 118.017 160.88 117.352 160.88C116.686 160.88 116.227 161.591 116.411 162.739C116.843 165.633 117.742 168.439 119.073 171.045C119.554 172.009 120.449 172.537 120.931 172.009C121.178 171.596 121.308 171.124 121.308 170.644C121.308 170.163 121.178 169.691 120.931 169.278L120.954 169.439Z" fill="#7D3D41"/>
<path d="M103.676 172.973C101.946 173.051 100.226 172.667 98.6939 171.86C97.1615 171.054 95.8714 169.854 94.9564 168.383C94.716 167.994 94.6402 167.525 94.7456 167.08C94.8511 166.634 95.1291 166.249 95.5186 166.009C95.9081 165.768 96.3771 165.692 96.8225 165.798C97.2678 165.903 97.6531 166.181 97.8935 166.571C100.44 170.678 106.361 169.783 109.757 167.81C111.485 166.78 112.821 165.203 113.553 163.329C114.284 161.454 114.369 159.39 113.795 157.461C113.71 157.234 113.674 156.992 113.688 156.75C113.701 156.508 113.766 156.272 113.876 156.056C113.986 155.841 114.14 155.65 114.328 155.497C114.516 155.345 114.734 155.233 114.968 155.169C115.201 155.105 115.446 155.09 115.685 155.126C115.925 155.161 116.155 155.247 116.359 155.376C116.564 155.505 116.74 155.676 116.875 155.877C117.011 156.078 117.102 156.305 117.145 156.543C117.894 159.209 117.748 162.047 116.728 164.621C115.708 167.195 113.872 169.363 111.5 170.793C109.122 172.178 106.428 172.928 103.676 172.973Z" fill="#7D3D42"/>
<path d="M125.567 165.997C123.002 165.96 120.509 165.146 118.416 163.664C116.322 162.181 114.728 160.098 113.842 157.691C113.761 157.48 113.722 157.255 113.727 157.029C113.733 156.803 113.783 156.58 113.874 156.373C113.966 156.167 114.097 155.98 114.261 155.824C114.425 155.668 114.618 155.546 114.829 155.465C115.04 155.384 115.264 155.345 115.49 155.35C115.716 155.356 115.939 155.406 116.146 155.497C116.352 155.589 116.539 155.72 116.695 155.884C116.851 156.048 116.973 156.241 117.054 156.452C117.732 158.345 119.013 159.963 120.701 161.058C122.388 162.152 124.388 162.662 126.393 162.509C130.294 162.119 135.572 159.389 135.296 154.547C135.263 154.091 135.412 153.64 135.711 153.293C136.01 152.947 136.435 152.733 136.891 152.7C137.348 152.666 137.799 152.816 138.145 153.115C138.491 153.414 138.705 153.838 138.738 154.295C139.243 161.477 132.015 165.423 126.738 165.951C126.349 165.988 125.958 166.003 125.567 165.997Z" fill="#7D3D42"/>
<path d="M175.726 116.411C172.907 117.647 170.423 119.535 168.475 121.918C166.777 124.075 164.551 127.586 165.01 130.477C165.584 133.942 170.563 134.102 173.271 134.355C176.819 134.722 180.401 134.607 183.918 134.01C184.556 133.936 185.145 133.628 185.569 133.145C185.993 132.661 186.222 132.037 186.212 131.395C186.165 130.749 185.868 130.148 185.383 129.719C184.899 129.291 184.266 129.068 183.619 129.1C181.029 129.547 178.4 129.732 175.772 129.651C174.549 129.581 173.331 129.444 172.123 129.238C171.023 129.179 169.943 128.922 168.934 128.48L169.875 129.329C169.875 129.926 170.012 129.926 170.081 129.329L170.288 128.641C170.448 128.228 170.655 127.815 170.839 127.402C171.284 126.503 171.839 125.663 172.491 124.901C173.781 123.307 175.412 122.021 177.263 121.138C177.877 120.918 178.384 120.474 178.682 119.894C178.98 119.315 179.047 118.644 178.87 118.017C178.665 117.388 178.219 116.866 177.63 116.565C177.04 116.264 176.356 116.208 175.726 116.411Z" fill="#7D3D41"/>
<path d="M218.017 121.597C217.616 121.6 217.225 121.468 216.908 121.223C216.591 120.978 216.365 120.633 216.267 120.244C216.169 119.855 216.205 119.444 216.368 119.078C216.532 118.711 216.813 118.411 217.168 118.224L228.458 112.212C228.665 112.099 228.893 112.029 229.128 112.005C229.363 111.981 229.601 112.004 229.827 112.072C230.053 112.141 230.263 112.253 230.446 112.403C230.628 112.553 230.779 112.737 230.89 112.946C231.111 113.367 231.157 113.857 231.02 114.312C230.883 114.767 230.572 115.15 230.156 115.378L218.843 121.39C218.589 121.525 218.305 121.596 218.017 121.597Z" fill="#7D3D42"/>
<path d="M233.526 130.247H220.722C220.252 130.247 219.8 130.062 219.465 129.731C219.13 129.4 218.939 128.951 218.933 128.48C218.933 128.004 219.12 127.546 219.455 127.207C219.79 126.867 220.246 126.674 220.722 126.668H233.526C234.003 126.674 234.458 126.867 234.793 127.207C235.128 127.546 235.316 128.004 235.316 128.48C235.31 128.951 235.119 129.4 234.784 129.731C234.449 130.062 233.997 130.247 233.526 130.247Z" fill="#7D3D42"/>
<path d="M32.153 179.145C31.7229 179.144 31.3077 178.988 30.9832 178.705C30.6588 178.423 30.4468 178.033 30.3862 177.608C30.3207 177.133 30.4456 176.652 30.7337 176.269C31.0217 175.887 31.4495 175.634 31.9236 175.565L44.5897 173.845C45.0614 173.781 45.5391 173.907 45.9178 174.195C46.2964 174.483 46.5451 174.91 46.609 175.382C46.6729 175.854 46.5468 176.331 46.2585 176.71C45.9702 177.089 45.5432 177.337 45.0716 177.401L32.4054 179.145H32.153Z" fill="#7D3D42"/>
<path d="M37.2008 193.624C36.8347 193.612 36.4811 193.488 36.1878 193.269C35.8944 193.049 35.6754 192.745 35.5604 192.397C35.4453 192.05 35.4397 191.675 35.5443 191.324C35.6489 190.973 35.8587 190.663 36.1453 190.434L46.5398 182.954C46.7277 182.792 46.9471 182.671 47.1842 182.598C47.4213 182.526 47.6709 182.503 47.9172 182.532C48.1635 182.561 48.401 182.641 48.6149 182.767C48.8287 182.892 49.014 183.061 49.1592 183.262C49.3044 183.463 49.4062 183.692 49.4583 183.934C49.5103 184.177 49.5113 184.427 49.4614 184.67C49.4114 184.913 49.3115 185.143 49.1681 185.345C49.0246 185.548 48.8406 185.718 48.6279 185.845L38.2563 193.326C37.9437 193.532 37.575 193.636 37.2008 193.624Z" fill="#7D3D42"/>
<path d="M232.357 194.335C234.881 184.606 237.842 175.129 240.985 165.561C245.391 152.184 258.883 132.266 274.784 144.244C289.952 155.717 285.89 178.87 280.2 194.221C273.19 212.02 263.671 228.726 251.93 243.83" fill="#96E2CE"/>
<path d="M251.928 247.593C251.231 247.591 250.549 247.395 249.957 247.028C249.364 246.661 248.886 246.136 248.574 245.513C248.262 244.889 248.13 244.192 248.191 243.497C248.253 242.803 248.506 242.14 248.922 241.581C260.466 226.779 269.809 210.387 276.664 192.913C280.381 182.908 287.403 158.494 272.511 147.25C271.081 145.964 269.346 145.063 267.471 144.633C265.596 144.204 263.643 144.259 261.795 144.795C254.452 147.09 247.569 157.576 244.563 166.731C241.832 175.038 238.689 184.905 236.004 195.276C235.709 196.19 235.077 196.956 234.236 197.419C233.395 197.881 232.409 198.005 231.48 197.765C230.551 197.524 229.748 196.938 229.237 196.126C228.726 195.313 228.545 194.336 228.73 193.395C231.461 182.816 234.65 172.743 237.427 164.391C241.029 153.4 249.267 140.848 259.569 137.636C262.551 136.75 265.706 136.615 268.753 137.244C271.8 137.872 274.643 139.244 277.031 141.238C295.939 155.511 287.999 183.964 283.709 195.528C276.595 213.652 266.904 230.654 254.934 246.01C254.591 246.489 254.141 246.882 253.619 247.157C253.097 247.432 252.518 247.581 251.928 247.593Z" fill="#7B413B"/>
<path d="M201.61 143.502C207.279 141.672 211.088 137.755 210.118 134.752C209.149 131.749 203.768 130.798 198.1 132.628C192.432 134.457 188.623 138.375 189.592 141.378C190.561 144.381 195.942 145.332 201.61 143.502Z" fill="#F397B7"/>
<path d="M62.4951 188.404C68.1633 186.575 71.9724 182.657 71.0031 179.654C70.0338 176.651 64.653 175.7 58.9848 177.53C53.3166 179.359 49.5075 183.277 50.4768 186.28C51.4462 189.283 56.8269 190.234 62.4951 188.404Z" fill="#F397B7"/>
<path d="M72.1718 170.54C78.0139 170.54 82.7499 165.804 82.7499 159.962C82.7499 154.12 78.0139 149.384 72.1718 149.384C66.3297 149.384 61.5938 154.12 61.5938 159.962C61.5938 165.804 66.3297 170.54 72.1718 170.54Z" fill="#7D3D42"/>
<path d="M203.625 259.492L175.87 272.724C170.185 275.435 167.773 282.241 170.484 287.926C173.194 293.611 180.001 296.023 185.686 293.312L213.44 280.08C219.126 277.369 221.537 270.563 218.827 264.878C216.116 259.193 209.31 256.781 203.625 259.492Z" fill="white"/>
<path d="M246.584 206.818C247.568 212.897 246.545 219.132 243.67 224.578C238.92 232.357 232.036 231.118 224.693 234.169C218.911 236.464 217.052 242.522 214.941 248.166C211.339 257.896 201.725 263.93 191.995 259.639C185.616 256.863 180.752 253.651 175.566 256.014C169.99 257.115 167.902 262.577 164.346 268.565C158.976 277.583 147.664 278.317 139.105 272.535C134.103 269.185 129.101 265.445 123.043 266.867C115.287 268.703 110.423 273.751 102.024 270.172C96.5011 267.444 92.0268 262.978 89.2894 257.46C85.8475 251.402 84.7002 243.05 84.5625 234.514C100.785 237.749 118.431 236.808 135.388 234.307C168.866 229.144 212.532 213.105 237.061 185.524C241.972 192.546 245.827 199.934 246.584 206.818Z" fill="white"/>
<path d="M243.371 206.818C243.939 210.888 243.689 215.03 242.637 219.002C242.089 220.849 241.228 222.587 240.09 224.142C240.274 223.867 239.677 224.647 239.539 224.785L238.667 225.679C238.667 225.679 237.658 226.46 238.163 226.115C237.779 226.389 237.381 226.642 236.969 226.873C236.653 227.071 236.323 227.247 235.983 227.4L235.478 227.63C234.698 227.905 233.895 228.181 233.183 228.41C231.6 228.846 229.971 229.19 228.388 229.626C224.596 230.35 221.097 232.159 218.314 234.835C215.822 237.848 213.936 241.316 212.762 245.046C212.242 246.628 211.589 248.163 210.811 249.635C210.396 250.381 209.936 251.101 209.434 251.792L209.205 252.09L208.838 252.388C208.517 252.756 208.218 253.1 207.897 253.421C207.578 253.76 207.241 254.082 206.887 254.385L206.428 254.798C206.428 254.798 205.878 255.234 206.153 255.027C205.878 255.234 204.845 255.922 204.226 256.266L203.17 256.794L202.482 257.069C201.683 257.322 200.871 257.528 200.049 257.689C199.43 257.804 199.889 257.689 200.049 257.689H199.453H198.26C197.809 257.712 197.357 257.712 196.906 257.689C196.378 257.689 197.365 257.689 196.906 257.689L196.149 257.528C195.306 257.343 194.478 257.098 193.67 256.794C194.106 256.955 193.464 256.794 193.418 256.794L192.661 256.45L190.802 255.601C187.016 253.857 182.886 251.746 178.572 252.136C177.531 252.213 176.504 252.429 175.52 252.779C175.171 252.947 174.81 253.093 174.442 253.215C174.924 253.215 174.442 253.215 174.304 253.215C173.657 253.361 173.032 253.593 172.445 253.903C170.803 254.606 169.332 255.655 168.132 256.978C165.737 259.966 163.661 263.196 161.936 266.615C161.707 267.005 161.477 267.395 161.225 267.785L160.881 268.29C160.881 268.29 160.376 268.91 160.72 268.497C160.193 269.15 159.609 269.757 158.976 270.309L158.54 270.676C158.15 270.998 158.907 270.424 158.54 270.676L157.577 271.319L156.475 271.938L155.97 272.168C155.42 272.42 156.2 272.168 155.833 272.168C155.136 272.427 154.423 272.642 153.699 272.81C153.329 272.903 152.953 272.972 152.574 273.017C152.092 273.017 153.102 273.017 152.574 273.017H151.725C150.961 273.063 150.195 273.063 149.431 273.017H148.857H148.559H148.26L147.549 272.856C146.716 272.683 145.896 272.453 145.094 272.168L144.589 271.893H144.268C144.612 272.03 144.015 271.893 143.947 271.732L143.258 271.411C141.573 270.478 139.941 269.452 138.371 268.336C134.848 265.632 130.648 263.949 126.232 263.471C122.236 263.668 118.326 264.708 114.759 266.523C113.17 267.216 111.518 267.754 109.826 268.129H109.229C109.367 268.129 109.826 268.129 109.229 268.129C108.633 268.129 108.426 268.129 107.99 268.129C107.57 268.152 107.149 268.152 106.728 268.129C106.728 268.129 106.109 268.129 106.591 268.129L105.558 267.923C102.078 266.957 98.9789 264.947 96.678 262.163C95.4426 260.822 94.3434 259.362 93.3967 257.804C92.9148 257.024 92.433 256.22 91.997 255.509C91.7676 255.119 91.584 254.729 91.3775 254.316C91.171 253.903 91.1021 253.696 90.8956 253.192C89.4919 249.405 88.6118 245.445 88.2798 241.42C88.0733 239.126 87.9815 236.831 87.9356 234.537L83.8741 237.634C96.8679 240.018 110.139 240.505 123.272 239.08C133.988 238.073 144.612 236.255 155.052 233.642C175.407 228.731 194.871 220.672 212.739 209.755C222.598 203.739 231.558 196.362 239.356 187.842L234.285 187.176C236.618 190.441 238.675 193.895 240.434 197.502C241.152 198.984 241.758 200.518 242.247 202.091C242.499 202.917 242.752 203.72 242.935 204.569C242.935 205.028 243.142 205.487 243.234 205.969C243.326 206.451 243.234 206.428 243.348 206.657C243.348 206.382 243.348 206.428 243.348 206.841C243.372 207.685 243.718 208.489 244.315 209.087C244.913 209.684 245.716 210.03 246.561 210.053C247.411 210.047 248.225 209.707 248.826 209.106C249.427 208.505 249.767 207.691 249.773 206.841C248.81 198.397 244.611 190.779 239.838 183.895C239.581 183.477 239.233 183.123 238.821 182.857C238.409 182.591 237.942 182.421 237.456 182.36C236.97 182.298 236.475 182.346 236.01 182.501C235.545 182.655 235.12 182.912 234.767 183.252C228.227 190.496 220.768 196.853 212.578 202.16C203.926 207.81 194.788 212.679 185.272 216.708L182.289 217.97C181.027 218.497 179.742 218.979 178.48 219.484C176.186 220.379 173.73 221.251 171.321 222.077C166.564 223.607 161.76 225.068 156.911 226.46C147.356 229.055 137.624 230.95 127.793 232.127C113.714 234.084 99.4167 233.844 85.4115 231.416C84.9324 231.295 84.4321 231.284 83.948 231.383C83.4638 231.482 83.0084 231.69 82.6157 231.99C82.223 232.29 81.9032 232.675 81.6801 233.116C81.4569 233.557 81.3363 234.042 81.3271 234.537C81.4648 243.554 82.5892 252.893 87.3849 260.718C91.8134 267.9 99.1103 275.013 108.036 274.738C111.822 274.361 115.511 273.32 118.936 271.663C119.876 271.296 120.817 270.952 121.758 270.653L123.089 270.263L123.777 270.103L124.397 269.965C126.206 269.713 128.05 270.001 129.697 270.791L130.064 270.952L130.707 271.273C131.189 271.502 131.671 271.755 132.129 272.03C133.093 272.581 134.011 273.178 134.929 273.774C136.549 274.931 138.243 275.981 140 276.918C143.427 278.683 147.228 279.596 151.083 279.579C154.776 279.541 158.378 278.433 161.454 276.39C164.673 273.901 167.266 270.695 169.027 267.028C169.931 265.368 170.927 263.759 172.01 262.209C171.688 262.645 172.285 261.865 172.423 261.705C172.703 261.382 173.002 261.075 173.317 260.787L173.73 260.42C174.075 260.098 173.317 260.695 173.73 260.42C174.107 260.161 174.498 259.923 174.901 259.708H175.153L175.589 259.571C176.163 259.41 176.645 259.249 177.218 259.043L178.021 258.813C178.222 258.746 178.43 258.7 178.641 258.676C178.044 258.676 178.985 258.676 179.054 258.676C179.474 258.653 179.896 258.653 180.316 258.676C179.765 258.676 180.316 258.676 180.316 258.676L181.119 258.836C182.122 259.081 183.103 259.403 184.056 259.8C185.731 260.465 187.98 261.59 189.907 262.439C191.963 263.387 194.154 264.006 196.401 264.274C200.252 264.701 204.14 263.898 207.507 261.98C210.941 259.976 213.796 257.113 215.79 253.673C216.887 251.811 217.794 249.843 218.498 247.799C219.042 246.185 219.686 244.607 220.425 243.072C220.804 242.281 221.233 241.514 221.71 240.778C221.71 240.778 222.445 239.722 222.078 240.181C222.399 239.791 222.743 239.401 223.087 239.034L223.982 238.231L224.189 238.07L224.716 237.749C225.132 237.497 225.561 237.267 226.001 237.061C225.634 237.244 226.759 236.785 226.896 236.739C230.132 235.592 233.574 235.133 236.809 233.963C240.712 232.605 244.043 229.969 246.263 226.483C248.67 222.475 250.005 217.916 250.14 213.243C250.217 211.098 250.132 208.95 249.888 206.818C249.871 205.969 249.527 205.16 248.929 204.557C248.331 203.955 247.524 203.606 246.676 203.582C246.245 203.573 245.817 203.65 245.416 203.809C245.016 203.967 244.651 204.204 244.343 204.505C244.035 204.807 243.791 205.167 243.624 205.564C243.457 205.961 243.371 206.387 243.371 206.818Z" fill="#7B413B"/>
<path d="M362.895 142.041C368.884 122.721 343.414 97.6181 305.966 85.9845C268.518 74.351 233.296 80.5693 227.307 99.9127L215.307 138.508C214.884 139.851 214.607 141.236 214.481 142.638C212.897 161.27 237.427 183.757 272.213 194.588C306.999 205.418 339.949 200.76 349.219 184.514C349.907 183.29 350.469 181.998 350.894 180.66L362.872 142.064L362.895 142.041Z" fill="#FFD087"/>
<path d="M271.847 195.804C236.762 184.882 211.568 161.981 213.243 142.523C213.364 141.036 213.649 139.566 214.092 138.141L226.093 99.5226C232.288 79.5597 268.29 72.9512 306.403 84.7684C344.517 96.5855 370.377 122.469 364.158 142.432L352.089 181.027C351.65 182.459 351.05 183.837 350.299 185.134C340.639 202.114 306.908 206.703 271.847 195.804ZM305.6 87.1777C268.887 75.7047 234.307 81.6477 228.502 100.28L216.501 138.875C216.102 140.136 215.841 141.436 215.721 142.753C214.161 161.11 238.667 182.816 272.558 193.372C306.449 203.927 338.987 199.842 348.096 183.895C348.738 182.75 349.261 181.543 349.657 180.292L361.657 141.674C367.463 123.042 342.314 98.6507 305.6 87.1777Z" fill="#7B413B"/>
<path d="M362.576 141.996C360.266 149.491 357.971 157.018 355.692 164.574C353.833 170.793 352.411 178.342 344.724 179.971C344.344 180.04 343.956 180.04 343.576 179.971C337.794 178.778 340.203 168.498 331.782 171.665C327.193 173.477 324.348 178.365 320.539 181.348C317.07 184.311 312.762 186.116 308.217 186.511C297.707 186.97 294.449 177.332 287.565 171.894C285.484 170.103 282.83 169.118 280.085 169.118C276.597 169.255 273.591 171.412 270.287 172.628C261.843 175.543 252.894 170.517 249.131 162.83C247.272 159.021 245.482 154.822 241.834 152.642C237.061 149.797 231.095 150.967 226.46 147.686C224.231 145.895 222.376 143.682 221.002 141.174C219.628 138.666 218.762 135.912 218.452 133.07C218.314 132.083 218.2 131.096 218.131 130.11L227.516 99.9586C233.505 80.6151 268.635 74.3509 305.968 85.9616C343.301 97.5722 368.679 122.652 362.576 141.996Z" fill="white"/>
<path d="M361.865 141.743C359.066 150.738 356.496 159.825 353.673 168.819C352.973 172.099 351.274 175.081 348.809 177.355C348.071 178.048 347.176 178.552 346.201 178.824C345.226 179.096 344.2 179.127 343.21 178.916C342.213 178.424 341.407 177.618 340.915 176.621C340.213 174.726 339.179 172.97 337.864 171.435C336.958 170.785 335.888 170.403 334.776 170.334C333.664 170.265 332.555 170.512 331.576 171.045C328.22 172.805 325.278 175.261 322.949 178.25C320.16 181.288 316.67 183.596 312.784 184.973C310.92 185.65 308.934 185.924 306.956 185.778C304.979 185.631 303.055 185.068 301.311 184.124C298.284 182.102 295.622 179.581 293.44 176.667C291.212 173.713 288.39 171.259 285.157 169.462C283.472 168.747 281.647 168.423 279.819 168.514C277.99 168.606 276.207 169.11 274.602 169.99C270.678 171.756 267.121 173.317 262.716 172.514C259.007 171.772 255.631 169.867 253.078 167.075C250.371 164.161 249.2 160.421 247.135 157.094C246.175 155.425 244.884 153.97 243.341 152.818C241.798 151.665 240.036 150.841 238.163 150.394C233.574 149.224 228.985 149.178 225.268 145.644C222.407 142.702 220.455 138.997 219.646 134.974C219.041 133.195 218.906 131.29 219.256 129.444L220.724 124.855C223.203 116.839 225.688 108.846 228.182 100.876C231.234 91.1473 240.733 86.0304 250.026 83.5522C265.171 79.5367 281.692 80.9593 296.767 84.5618C313.368 88.2883 329.002 95.4565 342.659 105.603C351.838 112.487 361.819 122.813 362.599 134.974C362.758 137.336 362.486 139.708 361.796 141.973C361.498 143.005 363.104 143.51 363.402 142.477C366.775 131.326 360.19 120.289 352.778 112.441C341.558 100.532 326.413 92.4552 311.132 87.0629C294.898 81.0066 277.529 78.6015 260.26 80.0185C248.948 81.1888 235.387 84.8142 228.893 95.0711C227.388 97.7453 226.246 100.608 225.497 103.584L221.183 117.466L217.581 128.939C217.166 131.037 217.316 133.207 218.017 135.226C218.816 139.028 220.524 142.579 222.996 145.575C226.002 148.8 230.082 150.815 234.469 151.243C236.7 151.519 238.875 152.138 240.917 153.078C243.044 154.316 244.778 156.13 245.919 158.31C247.984 161.798 249.269 165.584 252.16 168.544C254.659 171.16 257.838 173.027 261.339 173.936C264.981 174.821 268.814 174.474 272.238 172.95C274.005 172.192 275.703 171.229 277.539 170.655C278.816 170.221 280.171 170.067 281.513 170.201C282.854 170.336 284.152 170.757 285.317 171.435C291.857 175.107 294.702 183.092 301.632 186.258C309.02 189.631 317.694 185.845 323.04 180.568C325.978 177.699 328.525 173.913 332.563 172.491C333.087 172.228 333.661 172.083 334.246 172.067C334.832 172.05 335.414 172.161 335.952 172.393C336.489 172.624 336.97 172.971 337.36 173.408C337.75 173.845 338.039 174.362 338.208 174.923C338.909 177.005 340.201 178.839 341.925 180.201C344.564 181.761 348.052 180.201 350.186 178.342C352.565 176.049 354.265 173.142 355.096 169.944C356.473 165.768 357.597 161.5 358.882 157.278C360.396 152.275 361.934 147.25 363.471 142.248C363.507 142.045 363.468 141.836 363.361 141.66C363.254 141.484 363.086 141.352 362.89 141.291C362.693 141.229 362.481 141.241 362.292 141.324C362.104 141.407 361.952 141.556 361.865 141.743Z" fill="#7B413B"/>
<path d="M283.915 156.933C246.009 145.139 220.172 119.44 226.344 99.5685L228.249 100.165C222.42 118.935 247.661 143.533 284.512 154.983C321.363 166.433 356.103 160.49 361.932 141.72L363.836 142.294C357.664 162.165 321.822 168.705 283.915 156.933Z" fill="#7B413B"/>
<path d="M357.985 45.9897C355.255 29.9276 327.742 21.0016 296.536 26.2562C265.33 31.5108 242.223 48.9039 244.953 65.0578L250.415 97.3428C250.594 98.4681 250.902 99.5691 251.332 100.624C257.023 114.713 282.86 121.987 311.91 117.007C340.959 112.028 362.942 96.7232 363.676 81.6018C363.745 80.4657 363.676 79.3253 363.469 78.2058L357.985 46.0127V45.9897Z" fill="#FFD087"/>
<path d="M312.093 118.751C282.562 123.731 255.738 116.204 249.726 101.244C249.243 100.079 248.897 98.8623 248.693 97.6181L243.255 65.3561C240.387 48.2843 264.136 29.9964 296.237 24.5812C328.339 19.1659 356.746 28.6426 359.637 45.7144L365.144 77.9993C365.359 79.2337 365.436 80.4882 365.374 81.7395C364.593 97.8476 341.716 113.749 312.093 118.751ZM296.765 27.9313C266.522 33.0253 243.99 49.5693 246.582 64.7825L252.021 97.0674C252.204 98.0625 252.481 99.0381 252.847 99.9816C258.216 113.29 283.984 120.059 311.542 115.401C339.1 110.743 361.197 95.8972 361.909 81.5789C361.951 80.5657 361.89 79.5507 361.725 78.55L356.264 46.2651C353.786 31.0519 327.1 22.9291 296.857 27.9313H296.765Z" fill="#7B413B"/>
<path d="M357.986 45.9898C359.041 52.277 360.166 58.5412 361.29 64.8284C362.208 69.9912 363.975 76.026 358.995 79.9498C358.769 80.1605 358.492 80.3105 358.192 80.3858C353.603 81.6478 351.515 73.2496 346.719 78.6878C344.035 81.7166 343.805 86.2829 342.13 89.8165C340.69 93.2384 338.209 96.1203 335.04 98.0541C327.628 102.23 321.823 96.5168 314.756 95.0482C312.606 94.5041 310.332 94.7568 308.354 95.7595C305.875 97.1363 304.522 99.8439 302.548 101.886C297.523 107.095 289.217 106.728 283.687 102.552C280.933 100.486 278.111 98.1 274.669 97.8476C270.08 97.5493 266.317 100.555 261.75 99.8898C259.476 99.424 257.315 98.5132 255.394 97.2098C253.472 95.9063 251.827 94.236 250.553 92.2947C250.094 91.6293 249.658 90.9638 249.245 90.2755L244.977 65.0349C242.246 48.9728 265.353 31.5109 296.559 26.2333C327.766 20.9558 355.301 29.8129 357.986 45.9898Z" fill="white"/>
<path d="M356.929 46.1733C358.168 53.5619 359.545 60.9275 360.83 68.3161C361.552 70.9778 361.44 73.7972 360.508 76.3931C359.935 77.6092 358.696 79.399 357.204 79.399C356.351 79.2556 355.555 78.8737 354.91 78.2976C353.743 77.1868 352.349 76.3414 350.825 75.8194C349.922 75.7031 349.004 75.8287 348.166 76.1835C347.327 76.5383 346.598 77.1095 346.052 77.8387C344.335 79.9908 343.141 82.5122 342.565 85.2043C341.785 88.3497 340.355 91.2967 338.365 93.855C337.297 95.2799 335.911 96.4364 334.318 97.2329C332.725 98.0295 330.968 98.4442 329.187 98.4442C326.348 98.1121 323.591 97.2809 321.041 95.9889C315.649 93.6943 309.683 92.134 305.232 96.9986C303.075 99.2931 301.537 102.024 298.554 103.469C295.602 104.802 292.263 105.006 289.169 104.043C283.295 102.299 279.647 96.1954 273.107 96.7691C269.344 97.1133 265.902 99.2932 262.047 98.7883C258.604 98.1473 255.489 96.3306 253.236 93.6484C251.956 92.473 250.986 90.9988 250.414 89.3576C250.138 88.1873 250.001 87.063 249.794 85.755C248.494 79.0548 247.301 72.2934 246.215 65.4708C244.884 57.5315 249.45 50.6477 255.118 45.4849C264.296 37.0867 276.526 32.0845 288.458 29.1015C301.787 25.6099 315.696 24.9301 329.302 27.1052C338.48 28.7344 349.747 32.3139 354.887 40.8728C355.884 42.5253 356.576 44.3442 356.929 46.2421C356.953 46.3928 357.006 46.5372 357.086 46.6672C357.166 46.7972 357.271 46.9101 357.395 46.9996C357.518 47.0891 357.658 47.1534 357.807 47.1888C357.955 47.2242 358.109 47.23 358.26 47.2059C358.41 47.1817 358.555 47.1282 358.685 47.0483C358.815 46.9683 358.928 46.8636 359.017 46.74C359.107 46.6164 359.171 46.4764 359.206 46.328C359.242 46.1796 359.247 46.0257 359.223 45.875C357.502 36.4671 348.737 30.7766 340.339 27.7477C327.81 23.1585 313.79 22.8832 300.688 24.5812C286.625 26.1922 273.093 30.8937 261.061 38.3487C253.213 43.4198 244.654 51.1526 243.782 61.1111C243.701 63.6007 243.933 66.0906 244.471 68.5226L246.513 80.6381C247.064 83.7817 247.385 87.063 248.142 90.1836C248.732 91.9086 249.705 93.4776 250.987 94.7728C252.958 97.1512 255.457 99.0369 258.284 100.28C261.585 101.507 265.217 101.507 268.518 100.28C270.293 99.648 272.146 99.262 274.025 99.1325C276.22 99.25 278.322 100.052 280.037 101.427C282.546 103.499 285.364 105.164 288.389 106.361C291.158 107.221 294.107 107.316 296.925 106.636C299.673 105.945 302.142 104.422 303.992 102.276C306.723 99.2014 308.582 95.8283 313.286 96.1725C319.389 96.6314 324.414 101.427 330.747 100.762C337.081 100.096 341.899 94.3598 343.895 88.6003C344.974 85.4797 345.41 81.7166 347.865 79.2613C349.793 77.3339 351.192 78.4353 352.982 79.812C353.628 80.4478 354.396 80.9463 355.24 81.2775C356.084 81.6087 356.986 81.7659 357.893 81.7395C359.023 81.433 360.062 80.8547 360.918 80.0548C361.774 79.2549 362.421 78.2577 362.803 77.1503C363.681 74.613 363.855 71.8854 363.308 69.2569C362.803 65.7691 362.046 62.3731 361.449 58.8624C360.692 54.5715 359.935 50.3036 359.155 46.0127C359.101 45.7437 358.951 45.5035 358.733 45.3372C358.515 45.1709 358.244 45.0901 357.971 45.1098C357.697 45.1295 357.44 45.2485 357.248 45.4444C357.057 45.6402 356.943 45.8995 356.929 46.1733Z" fill="#7B413B"/>
<path d="M348.372 32.8647C347.363 26.4169 342.292 13.5213 333.274 12.9476C323.292 12.3052 316.592 20.1756 313.563 24.7419C307.872 24.7963 302.194 25.3027 296.583 26.2563C290.941 27.1836 285.385 28.5726 279.97 30.4095C275.611 27.0823 266.708 21.8507 257.483 25.8203C249.131 29.331 248.603 43.1675 249.751 49.5923C247.903 51.7034 246.519 54.1792 245.689 56.8592C244.859 59.5392 244.601 62.3637 244.932 65.1497C247.663 81.2118 275.175 90.1608 306.381 84.8832C337.588 79.6056 360.763 62.1438 357.987 45.9898C357.394 43.2502 356.232 40.6659 354.575 38.4047C352.919 36.1435 350.806 34.256 348.372 32.8647Z" fill="white"/>
<path d="M306.772 86.6959C274.028 92.203 246.057 82.864 243.12 65.3792C242.727 62.4797 242.932 59.5306 243.721 56.7131C244.51 53.8956 245.867 51.2693 247.709 48.9957C246.86 42.961 246.929 28.069 256.727 23.9617C266.525 19.8544 275.267 24.6501 280.269 28.2526C290.659 24.9029 301.48 23.0789 312.394 22.8374C315.927 17.7893 322.926 10.3777 333.229 11.0202C342.82 11.6397 348.465 23.7093 349.956 31.6716C352.455 33.208 354.614 35.2374 356.303 37.636C357.991 40.0346 359.174 42.7521 359.777 45.6227C362.875 63.1534 339.63 81.166 306.772 86.6959ZM261.729 26.4858C260.554 26.687 259.406 27.0258 258.31 27.4954C250.99 30.5702 250.715 43.5576 251.725 49.1564L251.862 49.9824L251.357 50.6708C249.673 52.5738 248.407 54.8089 247.64 57.2317C246.873 59.6545 246.623 62.2112 246.906 64.7367C249.453 79.8351 276.024 87.9809 306.129 82.9099C336.234 77.8388 358.699 61.4095 356.152 46.3111C355.6 43.816 354.528 41.4655 353.006 39.4133C351.484 37.3611 349.545 35.6535 347.317 34.4021L346.606 33.9432L346.468 33.0942C345.596 27.5642 341.053 15.2882 333.137 14.7374C324.188 14.1638 318.038 21.3459 315.17 25.6827L314.596 26.5317H313.587C302.381 26.6699 291.264 28.551 280.636 32.1075L279.673 32.4288L278.87 31.8092C275.382 29.2163 268.773 25.2237 261.729 26.4858Z" fill="#7B413B"/>
<path d="M328.73 53.2177C331.568 53.2177 333.87 50.9165 333.87 48.0778C333.87 45.2392 331.568 42.938 328.73 42.938C325.891 42.938 323.59 45.2392 323.59 48.0778C323.59 50.9165 325.891 53.2177 328.73 53.2177Z" fill="#7D3D42"/>
<path d="M329.602 53.2636C328.577 53.4351 327.524 53.299 326.577 52.8725C325.63 52.446 324.83 51.7482 324.279 50.8674C323.728 49.9866 323.451 48.9622 323.482 47.9237C323.513 46.8853 323.851 45.8793 324.454 45.0331C325.057 44.1868 325.897 43.5381 326.868 43.1691C327.839 42.8001 328.898 42.7273 329.91 42.9598C330.923 43.1923 331.844 43.7198 332.557 44.4756C333.269 45.2314 333.742 46.1815 333.915 47.2059C334.141 48.5806 333.815 49.9889 333.007 51.1237C332.199 52.2585 330.975 53.0277 329.602 53.2636ZM327.904 43.1215C326.916 43.2814 325.998 43.7311 325.267 44.4136C324.535 45.096 324.023 45.9805 323.795 46.9545C323.567 47.9286 323.634 48.9485 323.986 49.8847C324.339 50.8208 324.962 51.6311 325.776 52.2126C326.59 52.794 327.559 53.1205 328.559 53.1506C329.559 53.1806 330.545 52.9129 331.393 52.3813C332.24 51.8498 332.911 51.0784 333.319 50.1651C333.727 49.2518 333.855 48.2378 333.686 47.2518C333.461 45.9402 332.727 44.7704 331.645 43.9969C330.562 43.2234 329.217 42.9088 327.904 43.1215Z" fill="#D53D2C"/>
<path d="M272.833 62.6714C275.672 62.6714 277.973 60.3702 277.973 57.5316C277.973 54.6929 275.672 52.3917 272.833 52.3917C269.995 52.3917 267.693 54.6929 267.693 57.5316C267.693 60.3702 269.995 62.6714 272.833 62.6714Z" fill="#7D3D42"/>
<path d="M273.705 62.6945C272.68 62.866 271.628 62.7298 270.68 62.3033C269.733 61.8768 268.933 61.1791 268.383 60.2982C267.832 59.4174 267.554 58.393 267.585 57.3545C267.616 56.3161 267.955 55.3101 268.557 54.4639C269.16 53.6176 270 52.969 270.971 52.5999C271.942 52.2309 273.001 52.1581 274.014 52.3906C275.026 52.6231 275.947 53.1506 276.66 53.9064C277.373 54.6622 277.846 55.6123 278.019 56.6367C278.245 58.0114 277.918 59.4197 277.11 60.5545C276.302 61.6893 275.078 62.4585 273.705 62.6945ZM272.007 52.5523C271.019 52.7122 270.102 53.162 269.37 53.8444C268.639 54.5269 268.126 55.4113 267.899 56.3854C267.671 57.3595 267.737 58.3793 268.09 59.3155C268.443 60.2517 269.066 61.0619 269.88 61.6434C270.694 62.2248 271.662 62.5513 272.662 62.5814C273.662 62.6114 274.649 62.3437 275.496 61.8122C276.344 61.2806 277.014 60.5092 277.422 59.596C277.831 58.6827 277.958 57.6686 277.789 56.6826C277.565 55.371 276.831 54.2012 275.748 53.4277C274.665 52.6543 273.321 52.3396 272.007 52.5523Z" fill="#D53D2C"/>
<path d="M296.949 66.1822C295.671 66.5269 294.314 66.4367 293.093 65.9258C291.872 65.4148 290.855 64.5121 290.203 63.3598C290.146 63.235 290.114 63.1 290.11 62.9628C290.106 62.8255 290.129 62.6888 290.178 62.5606C290.227 62.4324 290.301 62.3153 290.396 62.2161C290.491 62.117 290.605 62.0377 290.731 61.9831C290.854 61.922 290.988 61.8866 291.125 61.879C291.262 61.8715 291.399 61.892 291.528 61.9392C291.657 61.9865 291.774 62.0595 291.874 62.1538C291.974 62.2482 292.053 62.3618 292.108 62.4879C293.048 64.553 296.1 64.4842 297.982 63.7499C298.906 63.4224 299.689 62.7884 300.203 61.9535C300.716 61.1185 300.929 60.133 300.804 59.1607C300.784 58.8889 300.867 58.6194 301.037 58.4066C301.208 58.1937 301.452 58.0533 301.722 58.0134C301.858 57.9975 301.995 58.0087 302.127 58.0463C302.258 58.0839 302.381 58.1473 302.487 58.2326C302.594 58.318 302.683 58.4237 302.748 58.5437C302.814 58.6636 302.855 58.7953 302.869 58.9313C303.021 60.3539 302.695 61.7865 301.943 63.0037C301.191 64.2208 300.056 65.1533 298.716 65.6544C298.144 65.8818 297.552 66.0584 296.949 66.1822Z" fill="#7D3D42"/>
<path d="M308.791 64.2318C308.192 64.327 307.585 64.3654 306.978 64.3465C305.547 64.3139 304.167 63.8074 303.054 62.9064C301.941 62.0053 301.159 60.7606 300.829 59.3673C300.799 59.2331 300.796 59.0942 300.82 58.9588C300.844 58.8234 300.895 58.6942 300.97 58.5787C301.045 58.4633 301.142 58.364 301.255 58.2866C301.369 58.2093 301.497 58.1554 301.632 58.1282C301.899 58.0727 302.178 58.123 302.409 58.2685C302.64 58.414 302.806 58.6433 302.871 58.9083C303.087 59.8578 303.617 60.7068 304.375 61.3187C305.132 61.9306 306.074 62.2697 307.047 62.2814C308.998 62.2814 311.958 61.3865 312.164 59.1608C312.189 58.8869 312.321 58.6339 312.532 58.4575C312.742 58.2811 313.015 58.1956 313.289 58.22C313.562 58.2443 313.815 58.3764 313.992 58.5873C314.168 58.7982 314.254 59.0705 314.229 59.3443C314.001 60.6503 313.341 61.8418 312.355 62.728C311.369 63.6141 310.114 64.1437 308.791 64.2318Z" fill="#7D3D42"/>
<path d="M346.513 48.8351C346.274 48.8766 346.028 48.8326 345.819 48.7109C345.609 48.5893 345.449 48.3977 345.366 48.1697C345.278 47.9079 345.295 47.6219 345.416 47.373C345.536 47.1242 345.749 46.9324 346.009 46.8388L351.86 44.7507C351.987 44.7 352.124 44.6758 352.262 44.6798C352.399 44.6837 352.534 44.7157 352.659 44.7737C352.783 44.8317 352.895 44.9145 352.986 45.0171C353.078 45.1197 353.147 45.2399 353.191 45.3703C353.28 45.6291 353.266 45.9127 353.15 46.161C353.034 46.4094 352.827 46.6031 352.571 46.7011L346.697 48.7892L346.513 48.8351Z" fill="#7D3D42"/>
<path d="M353.397 54.1356H353.076L346.926 53.2178C346.788 53.2025 346.655 53.1597 346.534 53.0919C346.413 53.024 346.307 52.9325 346.222 52.8228C346.138 52.7131 346.076 52.5874 346.041 52.4533C346.005 52.3192 345.998 52.1794 346.018 52.0422C346.038 51.905 346.085 51.7732 346.157 51.6548C346.229 51.5363 346.325 51.4336 346.437 51.3527C346.55 51.2718 346.678 51.2145 346.813 51.184C346.948 51.1536 347.088 51.1507 347.224 51.1756L353.397 52.0705C353.665 52.1157 353.905 52.2626 354.068 52.4806C354.23 52.6986 354.302 52.9709 354.269 53.2407C354.238 53.4633 354.136 53.6701 353.98 53.831C353.823 53.992 353.619 54.0987 353.397 54.1356Z" fill="#7D3D42"/>
<path d="M256.473 64.0482H256.289H250.071C249.795 64.0422 249.532 63.9284 249.339 63.7311C249.146 63.5338 249.038 63.2687 249.038 62.9927C249.035 62.8492 249.061 62.7065 249.116 62.5738C249.171 62.4411 249.253 62.3213 249.356 62.2219C249.46 62.1226 249.583 62.046 249.718 61.997C249.853 61.9479 249.997 61.9276 250.14 61.9372H256.358C256.634 61.9432 256.897 62.057 257.09 62.2543C257.283 62.4516 257.391 62.7167 257.391 62.9927C257.398 63.2517 257.308 63.504 257.138 63.6996C256.968 63.8951 256.73 64.0195 256.473 64.0482Z" fill="#7D3D42"/>
<path d="M251.701 71.3221C251.483 71.3571 251.259 71.3228 251.062 71.224C250.864 71.1252 250.703 70.9669 250.6 70.7714C250.536 70.651 250.497 70.5191 250.484 70.3834C250.471 70.2477 250.486 70.1109 250.526 69.9807C250.567 69.8506 250.633 69.7298 250.72 69.6253C250.807 69.5208 250.915 69.4346 251.036 69.3717L256.566 66.5264C256.809 66.3986 257.093 66.3727 257.356 66.4545C257.618 66.5363 257.838 66.7189 257.965 66.9624C258.093 67.2058 258.119 67.49 258.037 67.7525C257.956 68.015 257.773 68.2343 257.529 68.3621L251.999 71.1156C251.917 71.2063 251.815 71.2769 251.701 71.3221Z" fill="#7D3D42"/>
<path d="M336.181 58.2151C339.042 57.7321 341.155 56.1148 340.9 54.6028C340.645 53.0908 338.118 52.2566 335.257 52.7396C332.395 53.2225 330.282 54.8398 330.537 56.3518C330.792 57.8638 333.319 58.698 336.181 58.2151Z" fill="#F397B7"/>
<path d="M269.395 69.5182C272.256 69.0352 274.369 67.418 274.114 65.906C273.859 64.394 271.332 63.5598 268.47 64.0427C265.609 64.5257 263.496 66.143 263.751 67.655C264.006 69.167 266.533 70.0012 269.395 69.5182Z" fill="#F397B7"/>
</svg>
