<svg xmlns="http://www.w3.org/2000/svg" xmlns:xlink="http://www.w3.org/1999/xlink" viewBox="0 0 1798.97 1798.97"><defs><style>.cls-1{fill:#fff;}.cls-2{fill:url(#linear-gradient);}</style><linearGradient id="linear-gradient" x1="210.17" y1="321.19" x2="1588.81" y2="1478" gradientUnits="userSpaceOnUse"><stop offset="0" stop-color="#328b31"/><stop offset="1" stop-color="#96cf24"/></linearGradient></defs><g id="Layer_2" data-name="Layer 2"><g id="Layer_1-2" data-name="Layer 1"><ellipse class="cls-1" cx="899.49" cy="898.67" rx="829.12" ry="828.37"/><path class="cls-2" d="M292.53,734.37,735.36,292l443,442.58L1015.44,897.27,735.36,617.44,455.41,897.11Zm329.32,329.5.24.23,442.82,442.41,443-442.57.09-.09L1345,901.22,1064.91,1181,785,901.35Zm629,664.37c456-193.94,669.48-719.4,477.88-1176-192.34-458.38-720.2-674.19-1179-482C216.67,211,.22,537.18,0,898.47c-.3,497,402.76,900.21,900.25,900.5A895.66,895.66,0,0,0,1250.81,1728.24ZM900.25,149.77c413.63,0,750.14,336.2,750.14,749.46s-336.52,749.46-750.14,749.46-750.14-336.2-750.14-749.46S486.62,149.77,900.25,149.77Z"/></g></g></svg>