<svg width="16" height="17" viewBox="0 0 16 17" fill="none" xmlns="http://www.w3.org/2000/svg">
<path d="M7.98783 15.8608C12.0538 15.8608 15.3499 12.5676 15.3499 8.50512C15.3499 4.44268 12.0538 1.14941 7.98783 1.14941C3.92185 1.14941 0.625732 4.44268 0.625732 8.50512C0.625732 12.5676 3.92185 15.8608 7.98783 15.8608Z" fill="white"/>
<path d="M9.45314 13.9027L13.3814 9.97065L9.45186 6.0386L8.00636 7.48346L10.4878 9.97065L8.00445 12.4585L9.45314 13.9027ZM6.52706 10.9785L2.59882 7.04649L6.52833 3.11316L7.97192 4.56057L5.4879 7.0484L7.97128 9.53624L6.52706 10.9785ZM0.627688 5.39367C1.3979 3.56572 2.81975 2.08909 4.61729 1.25036C6.41483 0.411623 8.45987 0.270599 10.3555 0.854655C12.2512 1.43871 13.8623 2.70619 14.8761 4.41112C15.8899 6.11605 16.2342 8.13682 15.8421 10.0813C15.4501 12.0257 14.3496 13.7552 12.7543 14.934C11.159 16.1128 9.18259 16.6569 7.20872 16.4608C5.23486 16.2646 3.40427 15.3421 2.07221 13.8723C0.740155 12.4025 0.00163963 10.4902 -1.3002e-05 8.50666C-0.00121458 7.43745 0.212236 6.37887 0.627688 5.39367ZM14.6438 8.50666C14.6427 7.19074 14.2514 5.9047 13.5195 4.8111C12.7876 3.71751 11.7479 2.86546 10.5318 2.36267C9.31571 1.85987 7.97786 1.72891 6.68737 1.98632C5.39687 2.24374 4.21166 2.87799 3.28157 3.80889C2.35147 4.73978 1.71825 5.92554 1.46194 7.21625C1.20563 8.50697 1.33775 9.8447 1.8416 11.0603C2.34544 12.276 3.19839 13.315 4.29261 14.0459C5.38684 14.7769 6.67322 15.167 7.98914 15.167C9.75418 15.1642 11.446 14.4614 12.6935 13.2127C13.9411 11.9641 14.6424 10.2717 14.6438 8.50666Z" fill="url(#paint0_linear)"/>
<defs>
<linearGradient id="paint0_linear" x1="2.85016" y1="15.1732" x2="16.007" y2="2.01641" gradientUnits="userSpaceOnUse">
<stop stop-color="#328B31"/>
<stop offset="0.130208" stop-color="#3F942F"/>
<stop offset="1" stop-color="#96CF24"/>
</linearGradient>
</defs>
</svg>
