<svg xmlns="http://www.w3.org/2000/svg" xmlns:xlink="http://www.w3.org/1999/xlink" viewBox="0 0 304.34 374.21"><defs><style>.cls-1{fill:url(#New_Gradient_Swatch_4);}.cls-2{fill:#16110d;}.cls-3{fill:#f8e5ba;}.cls-4{fill:url(#New_Gradient_Swatch_4-2);}.cls-5{fill:url(#New_Gradient_Swatch_4-3);}.cls-6{fill:url(#New_Gradient_Swatch_4-4);}.cls-7{fill:#191410;}.cls-8{fill:#7a5d18;}.cls-9{fill:#ffbe2e;}.cls-10{fill:url(#New_Gradient_Swatch_4-5);}.cls-11{fill:url(#New_Gradient_Swatch_4-6);}.cls-12{fill:url(#New_Gradient_Swatch_4-7);}.cls-13{fill:url(#New_Gradient_Swatch_4-8);}.cls-14{fill:url(#New_Gradient_Swatch_4-9);}.cls-15{fill:url(#New_Gradient_Swatch_4-10);}.cls-16{fill:url(#New_Gradient_Swatch_4-11);}.cls-17{fill:url(#New_Gradient_Swatch_4-12);}.cls-18{fill:url(#New_Gradient_Swatch_4-13);}.cls-19{fill:url(#New_Gradient_Swatch_4-14);}.cls-20{fill:url(#New_Gradient_Swatch_4-15);}.cls-21{fill:url(#New_Gradient_Swatch_4-16);}.cls-22{fill:url(#New_Gradient_Swatch_4-17);}.cls-23{fill:url(#New_Gradient_Swatch_4-18);}.cls-24{fill:url(#New_Gradient_Swatch_4-19);}.cls-25{fill:url(#New_Gradient_Swatch_4-20);}.cls-26{fill:url(#New_Gradient_Swatch_4-21);}.cls-27{fill:url(#New_Gradient_Swatch_4-22);}.cls-28{fill:url(#New_Gradient_Swatch_4-23);}.cls-29{fill:url(#New_Gradient_Swatch_4-24);}.cls-30{fill:url(#New_Gradient_Swatch_4-25);}.cls-31{fill:url(#New_Gradient_Swatch_4-26);}.cls-32{fill:url(#New_Gradient_Swatch_4-27);}.cls-33{fill:url(#New_Gradient_Swatch_4-28);}.cls-34{fill:url(#New_Gradient_Swatch_4-29);}.cls-35{fill:url(#New_Gradient_Swatch_4-30);}.cls-36{fill:url(#New_Gradient_Swatch_4-31);}.cls-37{fill:url(#New_Gradient_Swatch_4-32);}.cls-38{fill:url(#New_Gradient_Swatch_4-33);}.cls-39{fill:url(#New_Gradient_Swatch_4-34);}.cls-40{fill:url(#New_Gradient_Swatch_4-35);}.cls-41{fill:url(#New_Gradient_Swatch_4-36);}.cls-42{fill:url(#New_Gradient_Swatch_4-37);}.cls-43{fill:url(#New_Gradient_Swatch_4-38);}.cls-44{fill:url(#New_Gradient_Swatch_4-39);}.cls-45{fill:url(#New_Gradient_Swatch_4-40);}.cls-46{fill:url(#New_Gradient_Swatch_4-41);}.cls-47{fill:url(#New_Gradient_Swatch_4-42);}.cls-48{fill:url(#New_Gradient_Swatch_4-43);}.cls-49{fill:url(#New_Gradient_Swatch_4-44);}.cls-50{fill:url(#New_Gradient_Swatch_4-45);}.cls-51{fill:url(#New_Gradient_Swatch_4-46);}.cls-52{fill:url(#New_Gradient_Swatch_4-47);}.cls-53{fill:url(#New_Gradient_Swatch_4-48);}.cls-54{fill:url(#New_Gradient_Swatch_4-49);}.cls-55{fill:url(#New_Gradient_Swatch_4-50);}.cls-56{fill:url(#New_Gradient_Swatch_4-51);}.cls-57{fill:url(#New_Gradient_Swatch_4-52);}.cls-58{fill:url(#New_Gradient_Swatch_4-53);}.cls-59{fill:url(#New_Gradient_Swatch_4-54);}.cls-60{fill:url(#New_Gradient_Swatch_4-55);}.cls-61{fill:url(#New_Gradient_Swatch_4-56);}.cls-62{fill:url(#New_Gradient_Swatch_4-57);}.cls-63{fill:url(#New_Gradient_Swatch_4-58);}.cls-64{fill:url(#New_Gradient_Swatch_4-59);}.cls-65{fill:url(#New_Gradient_Swatch_4-60);}.cls-66{fill:url(#New_Gradient_Swatch_4-61);}.cls-67{fill:url(#New_Gradient_Swatch_4-62);}.cls-68{fill:url(#New_Gradient_Swatch_4-63);}.cls-69{fill:url(#New_Gradient_Swatch_4-64);}.cls-70{fill:url(#New_Gradient_Swatch_4-65);}.cls-71{fill:url(#New_Gradient_Swatch_4-66);}.cls-72{fill:url(#New_Gradient_Swatch_4-67);}.cls-73{fill:url(#New_Gradient_Swatch_4-68);}.cls-74{fill:url(#New_Gradient_Swatch_4-69);}.cls-75{fill:url(#New_Gradient_Swatch_4-70);}.cls-76{fill:url(#New_Gradient_Swatch_4-71);}.cls-77{fill:url(#New_Gradient_Swatch_4-72);}.cls-78{fill:url(#New_Gradient_Swatch_4-73);}.cls-79{fill:url(#New_Gradient_Swatch_4-74);}.cls-80{fill:url(#New_Gradient_Swatch_4-75);}.cls-81{fill:url(#New_Gradient_Swatch_4-76);}.cls-82{fill:url(#New_Gradient_Swatch_4-77);}.cls-83{fill:url(#New_Gradient_Swatch_4-78);}.cls-84{fill:url(#New_Gradient_Swatch_4-79);}.cls-85{fill:url(#New_Gradient_Swatch_4-80);}.cls-86{fill:url(#New_Gradient_Swatch_4-81);}.cls-87{fill:url(#New_Gradient_Swatch_4-82);}</style><linearGradient id="New_Gradient_Swatch_4" x1="1.33" y1="243.98" x2="163.45" y2="243.98" gradientUnits="userSpaceOnUse"><stop offset="0" stop-color="#328b31"/><stop offset="1" stop-color="#96cf24"/></linearGradient><linearGradient id="New_Gradient_Swatch_4-2" x1="1.35" y1="231.09" x2="163.25" y2="231.09" xlink:href="#New_Gradient_Swatch_4"/><linearGradient id="New_Gradient_Swatch_4-3" x1="17.6" y1="224.87" x2="146.9" y2="224.87" xlink:href="#New_Gradient_Swatch_4"/><linearGradient id="New_Gradient_Swatch_4-4" x1="17.6" y1="209.2" x2="146.9" y2="209.2" xlink:href="#New_Gradient_Swatch_4"/><linearGradient id="New_Gradient_Swatch_4-5" x1="1.33" y1="219.08" x2="163.45" y2="219.08" xlink:href="#New_Gradient_Swatch_4"/><linearGradient id="New_Gradient_Swatch_4-6" x1="1.35" y1="206.19" x2="163.25" y2="206.19" xlink:href="#New_Gradient_Swatch_4"/><linearGradient id="New_Gradient_Swatch_4-7" x1="17.6" y1="199.97" x2="146.9" y2="199.97" xlink:href="#New_Gradient_Swatch_4"/><linearGradient id="New_Gradient_Swatch_4-8" x1="17.6" y1="184.3" x2="146.9" y2="184.3" xlink:href="#New_Gradient_Swatch_4"/><linearGradient id="New_Gradient_Swatch_4-9" x1="1.33" y1="193.67" x2="163.45" y2="193.67" xlink:href="#New_Gradient_Swatch_4"/><linearGradient id="New_Gradient_Swatch_4-10" x1="1.35" y1="180.78" x2="163.25" y2="180.78" xlink:href="#New_Gradient_Swatch_4"/><linearGradient id="New_Gradient_Swatch_4-11" x1="17.6" y1="174.56" x2="146.9" y2="174.56" xlink:href="#New_Gradient_Swatch_4"/><linearGradient id="New_Gradient_Swatch_4-12" x1="17.6" y1="158.89" x2="146.9" y2="158.89" xlink:href="#New_Gradient_Swatch_4"/><linearGradient id="New_Gradient_Swatch_4-13" x1="1.33" y1="168.27" x2="163.45" y2="168.27" xlink:href="#New_Gradient_Swatch_4"/><linearGradient id="New_Gradient_Swatch_4-14" x1="1.35" y1="155.37" x2="163.25" y2="155.37" xlink:href="#New_Gradient_Swatch_4"/><linearGradient id="New_Gradient_Swatch_4-15" x1="17.6" y1="149.15" x2="146.9" y2="149.15" xlink:href="#New_Gradient_Swatch_4"/><linearGradient id="New_Gradient_Swatch_4-16" x1="17.6" y1="133.48" x2="146.9" y2="133.48" xlink:href="#New_Gradient_Swatch_4"/><linearGradient id="New_Gradient_Swatch_4-17" x1="76.11" y1="147.56" x2="129.85" y2="147.56" xlink:href="#New_Gradient_Swatch_4"/><linearGradient id="New_Gradient_Swatch_4-18" x1="35.11" y1="146.79" x2="88.85" y2="146.79" xlink:href="#New_Gradient_Swatch_4"/><linearGradient id="New_Gradient_Swatch_4-19" x1="1.33" y1="143.92" x2="163.45" y2="143.92" xlink:href="#New_Gradient_Swatch_4"/><linearGradient id="New_Gradient_Swatch_4-20" x1="1.35" y1="131.02" x2="163.25" y2="131.02" xlink:href="#New_Gradient_Swatch_4"/><linearGradient id="New_Gradient_Swatch_4-21" x1="17.6" y1="124.8" x2="146.9" y2="124.8" xlink:href="#New_Gradient_Swatch_4"/><linearGradient id="New_Gradient_Swatch_4-22" x1="17.6" y1="109.13" x2="146.9" y2="109.13" xlink:href="#New_Gradient_Swatch_4"/><linearGradient id="New_Gradient_Swatch_4-23" x1="1.33" y1="119.02" x2="163.45" y2="119.02" xlink:href="#New_Gradient_Swatch_4"/><linearGradient id="New_Gradient_Swatch_4-24" x1="1.35" y1="106.12" x2="163.25" y2="106.12" xlink:href="#New_Gradient_Swatch_4"/><linearGradient id="New_Gradient_Swatch_4-25" x1="17.6" y1="99.9" x2="146.9" y2="99.9" xlink:href="#New_Gradient_Swatch_4"/><linearGradient id="New_Gradient_Swatch_4-26" x1="17.6" y1="84.23" x2="146.9" y2="84.23" xlink:href="#New_Gradient_Swatch_4"/><linearGradient id="New_Gradient_Swatch_4-27" x1="1.33" y1="93.61" x2="163.45" y2="93.61" xlink:href="#New_Gradient_Swatch_4"/><linearGradient id="New_Gradient_Swatch_4-28" x1="1.35" y1="80.72" x2="163.25" y2="80.72" xlink:href="#New_Gradient_Swatch_4"/><linearGradient id="New_Gradient_Swatch_4-29" x1="17.6" y1="74.5" x2="146.9" y2="74.5" xlink:href="#New_Gradient_Swatch_4"/><linearGradient id="New_Gradient_Swatch_4-30" x1="17.6" y1="58.83" x2="146.9" y2="58.83" xlink:href="#New_Gradient_Swatch_4"/><linearGradient id="New_Gradient_Swatch_4-31" x1="1.33" y1="68.2" x2="163.45" y2="68.2" xlink:href="#New_Gradient_Swatch_4"/><linearGradient id="New_Gradient_Swatch_4-32" x1="1.35" y1="55.31" x2="163.25" y2="55.31" xlink:href="#New_Gradient_Swatch_4"/><linearGradient id="New_Gradient_Swatch_4-33" x1="17.6" y1="49.09" x2="146.9" y2="49.09" xlink:href="#New_Gradient_Swatch_4"/><linearGradient id="New_Gradient_Swatch_4-34" x1="17.6" y1="33.42" x2="146.9" y2="33.42" xlink:href="#New_Gradient_Swatch_4"/><linearGradient id="New_Gradient_Swatch_4-35" x1="76.11" y1="47.5" x2="129.85" y2="47.5" xlink:href="#New_Gradient_Swatch_4"/><linearGradient id="New_Gradient_Swatch_4-36" x1="35.11" y1="46.73" x2="88.85" y2="46.73" xlink:href="#New_Gradient_Swatch_4"/><linearGradient id="New_Gradient_Swatch_4-37" x1="141.88" y1="272.87" x2="303.05" y2="272.87" xlink:href="#New_Gradient_Swatch_4"/><linearGradient id="New_Gradient_Swatch_4-38" x1="141.9" y1="260.05" x2="302.86" y2="260.05" xlink:href="#New_Gradient_Swatch_4"/><linearGradient id="New_Gradient_Swatch_4-39" x1="158.06" y1="253.87" x2="286.6" y2="253.87" xlink:href="#New_Gradient_Swatch_4"/><linearGradient id="New_Gradient_Swatch_4-40" x1="158.06" y1="238.29" x2="286.6" y2="238.29" xlink:href="#New_Gradient_Swatch_4"/><linearGradient id="New_Gradient_Swatch_4-41" x1="141.88" y1="248.11" x2="303.05" y2="248.11" xlink:href="#New_Gradient_Swatch_4"/><linearGradient id="New_Gradient_Swatch_4-42" x1="141.9" y1="235.3" x2="302.86" y2="235.3" xlink:href="#New_Gradient_Swatch_4"/><linearGradient id="New_Gradient_Swatch_4-43" x1="158.06" y1="229.11" x2="286.6" y2="229.11" xlink:href="#New_Gradient_Swatch_4"/><linearGradient id="New_Gradient_Swatch_4-44" x1="158.06" y1="213.54" x2="286.6" y2="213.54" xlink:href="#New_Gradient_Swatch_4"/><linearGradient id="New_Gradient_Swatch_4-45" x1="141.88" y1="222.86" x2="303.05" y2="222.86" xlink:href="#New_Gradient_Swatch_4"/><linearGradient id="New_Gradient_Swatch_4-46" x1="141.9" y1="210.04" x2="302.86" y2="210.04" xlink:href="#New_Gradient_Swatch_4"/><linearGradient id="New_Gradient_Swatch_4-47" x1="158.06" y1="203.86" x2="286.6" y2="203.86" xlink:href="#New_Gradient_Swatch_4"/><linearGradient id="New_Gradient_Swatch_4-48" x1="158.06" y1="188.28" x2="286.6" y2="188.28" xlink:href="#New_Gradient_Swatch_4"/><linearGradient id="New_Gradient_Swatch_4-49" x1="141.88" y1="197.6" x2="303.05" y2="197.6" xlink:href="#New_Gradient_Swatch_4"/><linearGradient id="New_Gradient_Swatch_4-50" x1="141.9" y1="184.78" x2="302.86" y2="184.78" xlink:href="#New_Gradient_Swatch_4"/><linearGradient id="New_Gradient_Swatch_4-51" x1="158.06" y1="178.6" x2="286.6" y2="178.6" xlink:href="#New_Gradient_Swatch_4"/><linearGradient id="New_Gradient_Swatch_4-52" x1="158.06" y1="163.02" x2="286.6" y2="163.02" xlink:href="#New_Gradient_Swatch_4"/><linearGradient id="New_Gradient_Swatch_4-53" x1="216.23" y1="177.02" x2="269.65" y2="177.02" xlink:href="#New_Gradient_Swatch_4"/><linearGradient id="New_Gradient_Swatch_4-54" x1="175.47" y1="176.25" x2="228.88" y2="176.25" xlink:href="#New_Gradient_Swatch_4"/><linearGradient id="New_Gradient_Swatch_4-55" x1="39.72" y1="323.17" x2="200.89" y2="323.17" xlink:href="#New_Gradient_Swatch_4"/><linearGradient id="New_Gradient_Swatch_4-56" x1="39.74" y1="310.36" x2="200.7" y2="310.36" xlink:href="#New_Gradient_Swatch_4"/><linearGradient id="New_Gradient_Swatch_4-57" x1="55.9" y1="304.17" x2="184.44" y2="304.17" xlink:href="#New_Gradient_Swatch_4"/><linearGradient id="New_Gradient_Swatch_4-58" x1="55.9" y1="288.6" x2="184.44" y2="288.6" xlink:href="#New_Gradient_Swatch_4"/><linearGradient id="New_Gradient_Swatch_4-59" x1="39.72" y1="298.42" x2="200.89" y2="298.42" xlink:href="#New_Gradient_Swatch_4"/><linearGradient id="New_Gradient_Swatch_4-60" x1="39.74" y1="285.6" x2="200.7" y2="285.6" xlink:href="#New_Gradient_Swatch_4"/><linearGradient id="New_Gradient_Swatch_4-61" x1="55.9" y1="279.42" x2="184.44" y2="279.42" xlink:href="#New_Gradient_Swatch_4"/><linearGradient id="New_Gradient_Swatch_4-62" x1="55.9" y1="263.84" x2="184.44" y2="263.84" xlink:href="#New_Gradient_Swatch_4"/><linearGradient id="New_Gradient_Swatch_4-63" x1="39.72" y1="273.16" x2="200.89" y2="273.16" xlink:href="#New_Gradient_Swatch_4"/><linearGradient id="New_Gradient_Swatch_4-64" x1="39.74" y1="260.35" x2="200.7" y2="260.35" xlink:href="#New_Gradient_Swatch_4"/><linearGradient id="New_Gradient_Swatch_4-65" x1="55.9" y1="254.16" x2="184.44" y2="254.16" xlink:href="#New_Gradient_Swatch_4"/><linearGradient id="New_Gradient_Swatch_4-66" x1="55.9" y1="238.58" x2="184.44" y2="238.58" xlink:href="#New_Gradient_Swatch_4"/><linearGradient id="New_Gradient_Swatch_4-67" x1="39.72" y1="247.91" x2="200.89" y2="247.91" xlink:href="#New_Gradient_Swatch_4"/><linearGradient id="New_Gradient_Swatch_4-68" x1="39.74" y1="235.09" x2="200.7" y2="235.09" xlink:href="#New_Gradient_Swatch_4"/><linearGradient id="New_Gradient_Swatch_4-69" x1="55.9" y1="228.9" x2="184.44" y2="228.9" xlink:href="#New_Gradient_Swatch_4"/><linearGradient id="New_Gradient_Swatch_4-70" x1="55.9" y1="213.33" x2="184.44" y2="213.33" xlink:href="#New_Gradient_Swatch_4"/><linearGradient id="New_Gradient_Swatch_4-71" x1="114.07" y1="227.32" x2="167.48" y2="227.32" xlink:href="#New_Gradient_Swatch_4"/><linearGradient id="New_Gradient_Swatch_4-72" x1="73.31" y1="226.56" x2="126.72" y2="226.56" xlink:href="#New_Gradient_Swatch_4"/><linearGradient id="New_Gradient_Swatch_4-73" x1="39.72" y1="221.57" x2="200.89" y2="221.57" xlink:href="#New_Gradient_Swatch_4"/><linearGradient id="New_Gradient_Swatch_4-74" x1="39.74" y1="208.75" x2="200.7" y2="208.75" xlink:href="#New_Gradient_Swatch_4"/><linearGradient id="New_Gradient_Swatch_4-75" x1="55.9" y1="202.57" x2="184.44" y2="202.57" xlink:href="#New_Gradient_Swatch_4"/><linearGradient id="New_Gradient_Swatch_4-76" x1="55.9" y1="186.99" x2="184.44" y2="186.99" xlink:href="#New_Gradient_Swatch_4"/><linearGradient id="New_Gradient_Swatch_4-77" x1="39.72" y1="196.31" x2="200.89" y2="196.31" xlink:href="#New_Gradient_Swatch_4"/><linearGradient id="New_Gradient_Swatch_4-78" x1="39.74" y1="183.49" x2="200.7" y2="183.49" xlink:href="#New_Gradient_Swatch_4"/><linearGradient id="New_Gradient_Swatch_4-79" x1="55.9" y1="177.31" x2="184.44" y2="177.31" xlink:href="#New_Gradient_Swatch_4"/><linearGradient id="New_Gradient_Swatch_4-80" x1="55.9" y1="161.73" x2="184.44" y2="161.73" xlink:href="#New_Gradient_Swatch_4"/><linearGradient id="New_Gradient_Swatch_4-81" x1="114.07" y1="175.73" x2="167.48" y2="175.73" xlink:href="#New_Gradient_Swatch_4"/><linearGradient id="New_Gradient_Swatch_4-82" x1="73.31" y1="174.96" x2="126.72" y2="174.96" xlink:href="#New_Gradient_Swatch_4"/></defs><g id="Layer_2" data-name="Layer 2"><g id="Layer_2-2" data-name="Layer 2"><g id="_7" data-name="7"><path class="cls-1" d="M158.41,226.13C147,207,117,193.49,81.85,194S17.1,208.64,6.14,228.1l-4.81.07L1.54,245c.36,27.63,36.9,49.56,81.61,49s80.66-23.45,80.3-51.08l-.22-16.87Z"/><path class="cls-2" d="M83.16,295.31c-45.35.58-82.54-22-82.91-50.26L0,226.89l5.38-.07c11.75-20,42.33-33.72,76.44-34.17s65,12.46,77.3,32.17l5.37-.07.24,18.16C165.11,271.21,128.51,294.72,83.16,295.31ZM2.64,229.44,2.84,245c.35,26.88,36.37,48.28,80.29,47.71s79.38-22.9,79-49.78L162,227.37l-4.26.06-.39-.64c-11.54-19.31-41.85-32-75.44-31.55s-63.56,13.9-74.59,33.5l-.37.65Z"/><ellipse class="cls-3" cx="82.25" cy="227.11" rx="80.96" ry="50.04" transform="translate(-2.94 1.09) rotate(-0.74)"/><path class="cls-4" d="M163.25,230c.36,27.64-35.59,50.51-80.3,51.09s-81.24-21.35-81.6-49,35.59-50.51,80.3-51.09S162.89,202.4,163.25,230Z"/><path class="cls-2" d="M82.92,278.44C37.56,279,.37,256.48,0,228.18s36.23-51.8,81.58-52.39,82.55,22,82.91,50.26S128.26,277.85,82.92,278.44Zm-1.3-100.07c-43.93.58-79.38,22.9-79,49.78S39,276.42,82.88,275.85s79.38-22.89,79-49.77S125.54,177.81,81.62,178.37Z"/><path class="cls-5" d="M146.9,224c.27,20.78-28.46,38-64.16,38.48s-64.87-16-65.14-36.81,28.45-38,64.16-38.47S146.63,203.24,146.9,224Z"/><path class="cls-2" d="M82.75,263.8c-36.36.47-66.17-16.61-66.44-38.08s29.07-39.32,65.43-39.79,66.17,16.61,66.45,38.08S119.12,263.33,82.75,263.8Zm-1-75.28c-34.94.45-63.15,17.13-62.89,37.17s28.9,36,63.83,35.52,63.15-17.13,62.89-37.17S116.71,188.07,81.78,188.52Z"/><path class="cls-6" d="M81.76,187.23c-35.71.46-64.43,17.69-64.16,38.48a22.49,22.49,0,0,0,.83,5.47c4.34-18.25,31-32.57,63.47-33s59.5,13.2,64.31,31.33a23.07,23.07,0,0,0,.69-5.49C146.63,203.24,117.46,186.76,81.76,187.23Z"/><path class="cls-2" d="M145.47,232.22l-.51-2.37c-4.7-17.72-31.8-30.78-63-30.37s-58,14.16-62.23,32L19,234.36l-1.83-2.85a23.45,23.45,0,0,1-.87-5.79C16,204.25,45.38,186.4,81.74,185.93s66.17,16.61,66.45,38.08a24.07,24.07,0,0,1-.72,5.8Zm-63.69-43.7c-34.94.45-63.15,17.13-62.89,37.17,0,.07,0,.15,0,.22,7.69-16.71,33-28.63,63-29s55.61,10.87,63.73,27.37a1.61,1.61,0,0,1,0-.22C145.35,204,116.71,188.07,81.78,188.52Z"/><polygon class="cls-7" points="71.04 188.22 71.17 198.85 53.17 202.5 35.53 210.34 22.88 221.72 18.43 231.18 17.55 221.79 22.85 210.5 32.46 201.28 48.39 193.09 67.97 188.26 71.04 188.22"/><polygon class="cls-2" points="89.53 218.67 89.37 231.99 54.55 231.63 54.72 218.31 89.53 218.67"/><polygon class="cls-8" points="110.23 227.46 110.06 240.78 110.16 220.26 110.33 206.95 110.23 227.46"/><polygon class="cls-8" points="75.36 239.05 75.19 252.37 75.25 240.44 75.41 227.12 75.36 239.05"/><polygon class="cls-9" points="75.74 238.68 75.78 227.5 110.6 227.84 110.7 207.32 130.23 207.51 130.05 239.23 75.74 238.68"/><path d="M111.07,207.7l18.78.18-.17,31-53.57-.54,0-10.43,34.06.33H111v-.75l.09-19.77m-.74-.75-.1,20.51-34.82-.34,0,11.93,55.06.56.19-32.47L110.33,207Z"/><polygon class="cls-2" points="130.42 239.61 130.3 249.27 125.8 252.88 75.19 252.37 75.36 239.05 130.42 239.61"/><polygon class="cls-2" points="54.59 238.83 54.42 252.15 34.19 251.85 34.35 238.63 54.59 238.83"/><polygon class="cls-9" points="34.73 238.25 34.91 206.56 89.22 207.1 89.16 218.29 54.34 217.93 54.21 238.45 34.73 238.25"/><path d="M35.28,206.94l53.57.53-.06,10.44-34.07-.35H54v.76l-.13,19.76-18.73-.19.17-30.94m-.74-.76-.19,32.45,20.24.2.13-20.52,34.81.36.07-11.94-55.06-.55Z"/><polygon class="cls-2" points="92.02 276.71 92.24 293.89 111.4 290.5 129.81 284.81 148.82 272.4 160.41 257.52 163.51 247.57 163.05 234.16 154.25 251.36 136.35 263.91 109.37 274.06 92.02 276.71"/><polygon class="cls-2" points="80.04 277.34 80.26 294.2 72.41 293.7 72.18 275.99 80.04 277.34"/><path class="cls-10" d="M158.41,201.23C147,182.05,117,168.59,81.85,169.05S17.1,183.74,6.14,203.2l-4.81.07.21,16.86c.36,27.63,36.9,49.56,81.61,49s80.66-23.45,80.3-51.08l-.22-16.87Z"/><path class="cls-2" d="M83.16,270.41C37.81,271,.62,248.45.25,220.15L0,202l5.38-.07c11.75-20,42.33-33.72,76.44-34.17s65,12.46,77.3,32.17l5.37-.07.24,18.16C165.11,246.31,128.51,269.82,83.16,270.41ZM2.64,204.54l.2,15.57c.35,26.88,36.37,48.28,80.29,47.71s79.38-22.9,79-49.78L162,202.47l-4.26.06-.39-.64c-11.54-19.31-41.85-32-75.44-31.55s-63.56,13.9-74.59,33.5l-.37.65Z"/><ellipse class="cls-3" cx="82.25" cy="202.21" rx="80.96" ry="50.04" transform="translate(-2.62 1.09) rotate(-0.74)"/><path class="cls-11" d="M163.25,205.13c.36,27.64-35.59,50.51-80.3,51.09s-81.24-21.35-81.6-49,35.59-50.51,80.3-51.09S162.89,177.5,163.25,205.13Z"/><path class="cls-2" d="M82.92,253.54c-45.36.59-82.55-22-82.92-50.26s36.23-51.8,81.58-52.39,82.55,22,82.91,50.26S128.26,253,82.92,253.54Zm-1.3-100.07c-43.93.58-79.38,22.91-79,49.78S39,251.52,82.88,251s79.38-22.89,79-49.77S125.54,152.91,81.62,153.47Z"/><path class="cls-12" d="M146.9,199.13c.27,20.78-28.46,38-64.16,38.48s-64.87-16-65.14-36.81,28.45-38,64.16-38.47S146.63,178.34,146.9,199.13Z"/><path class="cls-2" d="M82.75,238.9c-36.36.47-66.17-16.61-66.44-38.08S45.38,161.5,81.74,161s66.17,16.61,66.45,38.08S119.12,238.43,82.75,238.9Zm-1-75.28c-34.94.45-63.15,17.13-62.89,37.17s28.9,36,63.83,35.52,63.15-17.13,62.89-37.17S116.71,163.17,81.78,163.62Z"/><path class="cls-13" d="M81.76,162.33c-35.71.46-64.43,17.69-64.16,38.48a22.49,22.49,0,0,0,.83,5.47c4.34-18.25,31-32.57,63.47-33s59.5,13.2,64.31,31.33a23.07,23.07,0,0,0,.69-5.49C146.63,178.34,117.46,161.86,81.76,162.33Z"/><path class="cls-2" d="M145.47,207.32,145,205c-4.7-17.72-31.8-30.78-63-30.37s-58,14.16-62.23,32L19,209.46l-1.83-2.85a23.45,23.45,0,0,1-.87-5.79C16,179.35,45.38,161.5,81.74,161s66.17,16.61,66.45,38.08a24.07,24.07,0,0,1-.72,5.8Zm-63.69-43.7c-34.94.45-63.15,17.13-62.89,37.17,0,.07,0,.15,0,.22,7.69-16.71,33-28.63,63-29s55.61,10.87,63.73,27.37a1.61,1.61,0,0,1,0-.22C145.35,179.1,116.71,163.17,81.78,163.62Z"/><polygon class="cls-7" points="71.04 163.32 71.17 173.95 53.17 177.6 35.53 185.44 22.88 196.82 18.43 206.28 17.55 196.9 22.85 185.6 32.46 176.38 48.39 168.19 67.97 163.36 71.04 163.32"/><polygon class="cls-2" points="89.53 193.77 89.37 207.09 54.55 206.73 54.72 193.41 89.53 193.77"/><polygon class="cls-8" points="110.23 202.56 110.06 215.88 110.16 195.37 110.33 182.05 110.23 202.56"/><polygon class="cls-8" points="75.36 214.15 75.19 227.47 75.25 215.54 75.41 202.22 75.36 214.15"/><polygon class="cls-9" points="75.74 213.78 75.78 202.6 110.6 202.94 110.7 182.42 130.23 182.61 130.05 214.33 75.74 213.78"/><path d="M111.07,182.8l18.78.18-.17,31-53.57-.54,0-10.43,34.06.33H111v-.75l.09-19.77m-.74-.75-.1,20.51-34.82-.34,0,11.93,55.06.56.19-32.47-20.28-.19Z"/><polygon class="cls-2" points="130.42 214.71 130.3 224.37 125.8 227.98 75.19 227.47 75.36 214.15 130.42 214.71"/><polygon class="cls-2" points="54.59 213.93 54.42 227.25 34.19 226.95 34.35 213.73 54.59 213.93"/><polygon class="cls-9" points="34.73 213.35 34.91 181.66 89.22 182.2 89.16 193.39 54.34 193.03 54.21 213.55 34.73 213.35"/><path d="M35.28,182l53.57.53L88.79,193l-34.07-.35H54v.76l-.13,19.76L35.11,213,35.28,182m-.74-.76-.19,32.45,20.24.2.13-20.52,34.81.36.07-11.94-55.06-.55Z"/><polygon class="cls-2" points="92.02 251.81 92.24 268.99 111.4 265.6 129.81 259.91 148.82 247.5 160.41 232.62 163.51 222.67 163.05 209.26 154.25 226.46 136.35 239.01 109.37 249.16 92.02 251.81"/><polygon class="cls-2" points="80.04 252.44 80.26 269.3 72.41 268.8 72.18 251.09 80.04 252.44"/><path class="cls-14" d="M158.41,175.82C147,156.64,117,143.18,81.85,143.64S17.1,158.33,6.14,177.8l-4.81.06.21,16.86c.36,27.64,36.9,49.57,81.61,49s80.66-23.45,80.3-51.08l-.22-16.86Z"/><path class="cls-2" d="M83.16,245C37.81,245.59.62,223,.25,194.74L0,176.58l5.38-.07c11.75-20,42.33-33.72,76.44-34.16s65,12.45,77.3,32.17l5.37-.07.24,18.15C165.11,220.91,128.51,244.41,83.16,245ZM2.64,179.14l.2,15.57c.35,26.87,36.37,48.27,80.29,47.7s79.38-22.9,79-49.77L162,177.07l-4.26.05-.39-.64c-11.54-19.3-41.85-32-75.44-31.55s-63.56,13.9-74.59,33.5l-.37.65Z"/><ellipse class="cls-3" cx="82.25" cy="176.81" rx="80.96" ry="50.04" transform="matrix(1, -0.01, 0.01, 1, -2.29, 1.08)"/><path class="cls-15" d="M163.25,179.73c.36,27.63-35.59,50.5-80.3,51.08s-81.24-21.35-81.6-49,35.59-50.5,80.3-51.08S162.89,152.09,163.25,179.73Z"/><path class="cls-2" d="M82.92,228.13C37.56,228.72.37,206.18,0,177.88s36.23-51.81,81.58-52.4,82.55,22,82.91,50.26S128.26,227.54,82.92,228.13Zm-1.3-100.06c-43.93.57-79.38,22.9-79,49.77S39,226.12,82.88,225.55s79.38-22.9,79-49.78S125.54,127.5,81.62,128.07Z"/><path class="cls-16" d="M146.9,173.72c.27,20.79-28.46,38-64.16,38.48s-64.87-16-65.14-36.8,28.45-38,64.16-38.48S146.63,152.93,146.9,173.72Z"/><path class="cls-2" d="M82.75,213.49c-36.36.47-66.17-16.61-66.44-38.08s29.07-39.31,65.43-39.78,66.17,16.6,66.45,38.07S119.12,213,82.75,213.49Zm-1-75.28c-34.94.46-63.15,17.13-62.89,37.17s28.9,36,63.83,35.52,63.15-17.12,62.89-37.16S116.71,137.76,81.78,138.21Z"/><path class="cls-17" d="M81.76,136.92c-35.71.46-64.43,17.69-64.16,38.48a22.49,22.49,0,0,0,.83,5.47c4.34-18.24,31-32.57,63.47-33s59.5,13.21,64.31,31.33a23,23,0,0,0,.69-5.49C146.63,152.93,117.46,136.45,81.76,136.92Z"/><path class="cls-2" d="M145.47,181.91l-.51-2.37c-4.7-17.72-31.8-30.77-63-30.37s-58,14.16-62.23,32L19,184.05l-1.83-2.85a23.38,23.38,0,0,1-.87-5.78C16,154,45.38,136.1,81.74,135.63s66.17,16.6,66.45,38.07a24.14,24.14,0,0,1-.72,5.81Zm-63.69-43.7c-34.94.46-63.15,17.13-62.89,37.17,0,.08,0,.15,0,.22,7.69-16.7,33-28.62,63-29s55.61,10.87,63.73,27.37a1.61,1.61,0,0,1,0-.22C145.35,153.7,116.71,137.76,81.78,138.21Z"/><polygon class="cls-7" points="71.04 137.92 71.17 148.54 53.17 152.19 35.53 160.03 22.88 171.42 18.43 180.87 17.55 171.49 22.85 160.19 32.46 150.97 48.39 142.78 67.97 137.96 71.04 137.92"/><polygon class="cls-2" points="89.53 168.36 89.37 181.68 54.55 181.32 54.72 168.01 89.53 168.36"/><polygon class="cls-8" points="110.23 177.16 110.06 190.47 110.16 169.96 110.33 156.64 110.23 177.16"/><polygon class="cls-8" points="75.36 188.75 75.19 202.07 75.25 190.13 75.41 176.82 75.36 188.75"/><polygon class="cls-9" points="75.74 188.38 75.78 177.19 110.6 177.53 110.7 157.02 130.23 157.21 130.05 188.92 75.74 188.38"/><path d="M111.07,157.4l18.78.18-.17,31L76.11,188l0-10.44,34.06.34H111v-.75l.09-19.76m-.74-.76-.1,20.52-34.82-.34,0,11.93,55.06.55.19-32.47-20.28-.19Z"/><polygon class="cls-2" points="130.42 189.3 130.3 198.96 125.8 202.57 75.19 202.07 75.36 188.75 130.42 189.3"/><polygon class="cls-2" points="54.59 188.52 54.42 201.84 34.19 201.54 34.35 188.32 54.59 188.52"/><polygon class="cls-9" points="34.73 187.95 34.91 156.25 89.22 156.79 89.16 167.99 54.34 167.63 54.21 188.14 34.73 187.95"/><path d="M35.28,156.63l53.57.54-.06,10.44-34.07-.35H54V168l-.13,19.76-18.73-.18.17-31m-.74-.76-.19,32.45,20.24.2L54.72,168l34.81.35.07-11.94-55.06-.55Z"/><polygon class="cls-2" points="92.02 226.41 92.24 243.59 111.4 240.19 129.81 234.51 148.82 222.09 160.41 207.22 163.51 197.26 163.05 183.85 154.25 201.05 136.35 213.61 109.37 223.75 92.02 226.41"/><polygon class="cls-2" points="80.04 227.03 80.26 243.89 72.41 243.39 72.18 225.69 80.04 227.03"/><path class="cls-18" d="M158.41,150.41C147,131.24,117,117.78,81.85,118.23S17.1,132.92,6.14,152.39l-4.81.06.21,16.87c.36,27.63,36.9,49.56,81.61,49s80.66-23.45,80.3-51.09l-.22-16.86Z"/><path class="cls-2" d="M83.16,219.59c-45.35.59-82.54-22-82.91-50.26L0,151.18l5.38-.07c11.75-20,42.33-33.73,76.44-34.17s65,12.46,77.3,32.17l5.37-.07.24,18.16C165.11,195.5,128.51,219,83.16,219.59ZM2.64,153.73l.2,15.57c.35,26.87,36.37,48.27,80.29,47.7s79.38-22.9,79-49.77L162,151.66l-4.26.06-.39-.64c-11.54-19.31-41.85-32-75.44-31.55S18.3,133.42,7.27,153l-.37.65Z"/><ellipse class="cls-3" cx="82.25" cy="151.4" rx="80.96" ry="50.04" transform="translate(-1.96 1.08) rotate(-0.74)"/><path class="cls-19" d="M163.25,154.32c.36,27.63-35.59,50.5-80.3,51.08s-81.24-21.35-81.6-49,35.59-50.5,80.3-51.08S162.89,126.69,163.25,154.32Z"/><path class="cls-2" d="M82.92,202.73c-45.36.59-82.55-22-82.92-50.26s36.23-51.81,81.58-52.4,82.55,22,82.91,50.26S128.26,202.14,82.92,202.73Zm-1.3-100.07c-43.93.57-79.38,22.9-79,49.78S39,200.71,82.88,200.14s79.38-22.9,79-49.77S125.54,102.09,81.62,102.66Z"/><path class="cls-20" d="M146.9,148.31c.27,20.79-28.46,38-64.16,38.48s-64.87-16-65.14-36.8,28.45-38,64.16-38.48S146.63,127.52,146.9,148.31Z"/><path class="cls-2" d="M82.75,188.08c-36.36.48-66.17-16.6-66.44-38.07s29.07-39.32,65.43-39.79,66.17,16.61,66.45,38.07S119.12,187.61,82.75,188.08Zm-1-75.27c-34.94.45-63.15,17.12-62.89,37.16s28.9,36,63.83,35.53,63.15-17.13,62.89-37.17S116.71,112.35,81.78,112.81Z"/><path class="cls-21" d="M81.76,111.51C46.05,112,17.33,129.2,17.6,150a22.42,22.42,0,0,0,.83,5.47c4.34-18.24,31-32.56,63.47-33s59.5,13.21,64.31,31.33a23,23,0,0,0,.69-5.49C146.63,127.52,117.46,111.05,81.76,111.51Z"/><path class="cls-2" d="M145.47,156.5l-.51-2.36c-4.7-17.72-31.8-30.78-63-30.37s-58,14.16-62.23,32L19,158.64l-1.83-2.85a23.38,23.38,0,0,1-.87-5.78c-.28-21.47,29.07-39.32,65.43-39.79s66.17,16.61,66.45,38.08a24.07,24.07,0,0,1-.72,5.8ZM81.78,112.81c-34.94.45-63.15,17.12-62.89,37.17,0,.07,0,.14,0,.22,7.69-16.71,33-28.63,63-29s55.61,10.87,63.73,27.37a1.62,1.62,0,0,1,0-.22C145.35,128.29,116.71,112.35,81.78,112.81Z"/><polygon class="cls-7" points="71.04 112.51 71.17 123.13 53.17 126.79 35.53 134.62 22.88 146.01 18.43 155.46 17.55 146.08 22.85 134.79 32.46 125.56 48.39 117.37 67.97 112.55 71.04 112.51"/><polygon class="cls-2" points="89.53 142.96 89.37 156.28 54.55 155.92 54.72 142.6 89.53 142.96"/><polygon class="cls-8" points="110.23 151.75 110.06 165.07 110.16 144.55 110.33 131.23 110.23 151.75"/><polygon class="cls-8" points="75.36 163.34 75.19 176.66 75.25 164.73 75.41 151.41 75.36 163.34"/><polygon class="cls-22" points="76.11 162.6 76.16 152.17 110.97 152.51 111.07 131.99 129.85 132.17 129.68 163.13 76.11 162.6"/><path d="M111.82,132.75l17.28.16-.17,29.47-52.06-.52,0-8.94,33.31.33h1.51v-1.5l.09-19m-1.49-1.52-.1,20.52-34.82-.34,0,11.93,55.06.55.19-32.46-20.28-.2Z"/><polygon class="cls-2" points="130.42 163.89 130.3 173.56 125.8 177.17 75.19 176.66 75.36 163.34 130.42 163.89"/><polygon class="cls-2" points="54.59 163.12 54.42 176.43 34.19 176.13 34.35 162.91 54.59 163.12"/><polygon class="cls-23" points="35.11 162.17 35.28 131.22 88.84 131.76 88.79 142.2 53.97 141.84 53.84 162.36 35.11 162.17"/><path d="M36,132l52.06.52,0,8.94-33.31-.34-1.5,0v1.51l-.12,19-17.24-.17L36,132m-1.49-1.52-.19,32.45,20.24.2.13-20.51,34.81.36L89.6,131l-55.06-.56Z"/><polygon class="cls-2" points="92.02 201 92.24 218.18 111.4 214.78 129.81 209.1 148.82 196.68 160.41 181.81 163.51 171.86 163.05 158.44 154.25 175.64 136.35 188.2 109.37 198.35 92.02 201"/><polygon class="cls-2" points="80.04 201.62 80.26 218.49 72.41 217.99 72.18 200.28 80.04 201.62"/></g><g id="_7-2" data-name="7"><path class="cls-24" d="M158.41,126.06C147,106.89,117,93.43,81.85,93.88S17.1,108.57,6.14,128l-4.81.06L1.54,145c.36,27.63,36.9,49.56,81.61,49s80.66-23.45,80.3-51.09L163.23,126Z"/><path class="cls-2" d="M83.16,195.24C37.81,195.83.62,173.29.25,145L0,126.83l5.38-.07c11.75-20,42.33-33.73,76.44-34.17s65,12.46,77.3,32.17l5.37-.07.24,18.16C165.11,171.15,128.51,194.65,83.16,195.24ZM2.64,129.38,2.84,145c.35,26.87,36.37,48.28,80.29,47.71s79.38-22.9,79-49.78L162,127.31l-4.26.06-.39-.64c-11.54-19.31-41.85-32-75.44-31.55S18.3,109.07,7.27,128.68l-.37.64Z"/><ellipse class="cls-3" cx="82.25" cy="127.05" rx="80.96" ry="50.04" transform="translate(-1.64 1.08) rotate(-0.74)"/><path class="cls-25" d="M163.25,130c.36,27.63-35.59,50.5-80.3,51.08s-81.24-21.34-81.6-49S36.94,81.57,81.65,81,162.89,102.34,163.25,130Z"/><path class="cls-2" d="M82.92,178.38C37.56,179,.37,156.42,0,128.12s36.23-51.81,81.58-52.4,82.55,22,82.91,50.26S128.26,177.79,82.92,178.38ZM81.62,78.31c-43.93.57-79.38,22.9-79,49.78S39,176.36,82.88,175.79s79.38-22.9,79-49.77S125.54,77.74,81.62,78.31Z"/><path class="cls-26" d="M146.9,124c.27,20.79-28.46,38-64.16,38.48s-64.87-16-65.14-36.8,28.45-38,64.16-38.48S146.63,103.17,146.9,124Z"/><path class="cls-2" d="M82.75,163.74c-36.36.47-66.17-16.61-66.44-38.08S45.38,86.34,81.74,85.87s66.17,16.61,66.45,38.08S119.12,163.26,82.75,163.74Zm-1-75.28c-34.94.45-63.15,17.12-62.89,37.16s28.9,36,63.83,35.53S145.87,144,145.61,124,116.71,88,81.78,88.46Z"/><path class="cls-27" d="M81.76,87.16c-35.71.47-64.43,17.69-64.16,38.48a22.34,22.34,0,0,0,.83,5.47c4.34-18.24,31-32.56,63.47-33s59.5,13.21,64.31,31.33a23,23,0,0,0,.69-5.49C146.63,103.18,117.46,86.7,81.76,87.16Z"/><path class="cls-2" d="M145.47,132.15l-.51-2.36c-4.7-17.72-31.8-30.78-63-30.37s-58,14.16-62.23,32L19,134.29l-1.83-2.84a23.52,23.52,0,0,1-.87-5.79C16,104.19,45.38,86.34,81.74,85.87s66.17,16.61,66.45,38.08a24.07,24.07,0,0,1-.72,5.8ZM81.78,88.46c-34.94.45-63.15,17.13-62.89,37.17,0,.07,0,.14,0,.22,7.69-16.71,33-28.63,63-29s55.61,10.87,63.73,27.37a1.62,1.62,0,0,1,0-.22C145.35,103.94,116.71,88,81.78,88.46Z"/><polygon class="cls-7" points="71.04 88.16 71.17 98.78 53.17 102.44 35.53 110.27 22.88 121.66 18.43 131.11 17.55 121.73 22.85 110.44 32.46 101.21 48.39 93.02 67.97 88.2 71.04 88.16"/><polygon class="cls-2" points="89.53 118.61 89.37 131.93 54.55 131.57 54.72 118.25 89.53 118.61"/><polygon class="cls-8" points="110.23 127.4 110.06 140.72 110.16 120.2 110.33 106.88 110.23 127.4"/><polygon class="cls-8" points="75.36 138.99 75.19 152.31 75.25 140.38 75.41 127.06 75.36 138.99"/><polygon class="cls-9" points="75.74 138.62 75.78 127.44 110.6 127.78 110.7 107.26 130.23 107.45 130.05 139.16 75.74 138.62"/><path d="M111.07,107.64l18.78.18-.17,31-53.57-.54,0-10.43,34.06.33H111v-.76l.09-19.76m-.74-.76-.1,20.52-34.82-.34,0,11.93,55.06.55.19-32.46-20.28-.2Z"/><polygon class="cls-2" points="130.42 139.54 130.3 149.21 125.8 152.82 75.19 152.31 75.36 138.99 130.42 139.54"/><polygon class="cls-2" points="54.59 138.77 54.42 152.09 34.19 151.78 34.35 138.56 54.59 138.77"/><polygon class="cls-9" points="34.73 138.19 34.91 106.49 89.22 107.04 89.16 118.23 54.34 117.87 54.21 138.39 34.73 138.19"/><path d="M35.28,106.87l53.57.54-.06,10.44-34.07-.35H54v.76L53.84,138l-18.73-.19.17-30.95m-.74-.75-.19,32.44,20.24.21.13-20.52,34.81.36.07-11.94-55.06-.55Z"/><polygon class="cls-2" points="92.02 176.65 92.24 193.83 111.4 190.44 129.81 184.75 148.82 172.34 160.41 157.46 163.51 147.51 163.05 134.1 154.25 151.29 136.35 163.85 109.37 174 92.02 176.65"/><polygon class="cls-2" points="80.04 177.27 80.26 194.14 72.41 193.64 72.18 175.93 80.04 177.27"/><path class="cls-28" d="M158.41,101.16C147,82,117,68.53,81.85,69S17.1,83.67,6.14,103.14l-4.81.06.21,16.87c.36,27.63,36.9,49.56,81.61,49s80.66-23.45,80.3-51.09l-.22-16.86Z"/><path class="cls-2" d="M83.16,170.34c-45.35.59-82.54-22-82.91-50.26L0,101.93l5.38-.07c11.75-20,42.33-33.73,76.44-34.17s65,12.46,77.3,32.17l5.37-.07.24,18.16C165.11,146.25,128.51,169.75,83.16,170.34ZM2.64,104.48l.2,15.57c.35,26.87,36.37,48.28,80.29,47.71s79.38-22.9,79-49.78L162,102.41l-4.26.06-.39-.64c-11.54-19.31-41.85-32-75.44-31.55S18.3,84.17,7.27,103.78l-.37.64Z"/><ellipse class="cls-3" cx="82.25" cy="102.15" rx="80.96" ry="50.04" transform="translate(-1.32 1.08) rotate(-0.74)"/><path class="cls-29" d="M163.25,105.07c.36,27.63-35.59,50.5-80.3,51.08s-81.24-21.34-81.6-49,35.59-50.5,80.3-51.08S162.89,77.44,163.25,105.07Z"/><path class="cls-2" d="M82.92,153.48c-45.36.59-82.55-22-82.92-50.26s36.23-51.81,81.58-52.4,82.55,22,82.91,50.26S128.26,152.89,82.92,153.48ZM81.62,53.41c-43.93.57-79.38,22.9-79,49.78S39,151.46,82.88,150.89s79.38-22.9,79-49.77S125.54,52.84,81.62,53.41Z"/><path class="cls-30" d="M146.9,99.06c.27,20.79-28.46,38-64.16,38.48s-64.87-16-65.14-36.8,28.45-38,64.16-38.48S146.63,78.27,146.9,99.06Z"/><path class="cls-2" d="M82.75,138.84c-36.36.47-66.17-16.61-66.44-38.08S45.38,61.44,81.74,61s66.17,16.61,66.45,38.08S119.12,138.36,82.75,138.84Zm-1-75.28C46.84,64,18.63,80.68,18.89,100.72s28.9,36,63.83,35.53,63.15-17.13,62.89-37.17S116.71,63.1,81.78,63.56Z"/><path class="cls-31" d="M81.76,62.26C46.05,62.73,17.33,80,17.6,100.74a22.34,22.34,0,0,0,.83,5.47c4.34-18.24,31-32.56,63.47-33s59.5,13.2,64.31,31.32a23,23,0,0,0,.69-5.49C146.63,78.28,117.46,61.8,81.76,62.26Z"/><path class="cls-2" d="M145.47,107.25l-.51-2.36c-4.7-17.72-31.8-30.78-63-30.37s-58,14.16-62.23,32L19,109.39l-1.83-2.84a23.52,23.52,0,0,1-.87-5.79C16,79.29,45.38,61.44,81.74,61s66.17,16.61,66.45,38.08a24.07,24.07,0,0,1-.72,5.8ZM81.78,63.56C46.84,64,18.63,80.69,18.89,100.73c0,.07,0,.14,0,.22,7.69-16.71,33-28.63,63-29S137.49,82.8,145.61,99.3a1.62,1.62,0,0,1,0-.22C145.35,79,116.71,63.1,81.78,63.56Z"/><polygon class="cls-7" points="71.04 63.26 71.17 73.89 53.17 77.54 35.53 85.37 22.88 96.76 18.43 106.21 17.55 96.83 22.85 85.54 32.46 76.31 48.39 68.12 67.97 63.3 71.04 63.26"/><polygon class="cls-2" points="89.53 93.71 89.37 107.03 54.55 106.67 54.72 93.35 89.53 93.71"/><polygon class="cls-8" points="110.23 102.5 110.06 115.82 110.16 95.3 110.33 81.98 110.23 102.5"/><polygon class="cls-8" points="75.36 114.09 75.19 127.41 75.25 115.48 75.41 102.16 75.36 114.09"/><polygon class="cls-9" points="75.74 113.72 75.78 102.54 110.6 102.88 110.7 82.36 130.23 82.55 130.05 114.27 75.74 113.72"/><path d="M111.07,82.74l18.78.18-.17,31-53.57-.54,0-10.43,34.06.33H111v-.76l.09-19.76m-.74-.76-.1,20.52-34.82-.34,0,11.93,55.06.55.19-32.46L110.33,82Z"/><polygon class="cls-2" points="130.42 114.64 130.3 124.31 125.8 127.92 75.19 127.41 75.36 114.09 130.42 114.64"/><polygon class="cls-2" points="54.59 113.87 54.42 127.19 34.19 126.88 34.35 113.66 54.59 113.87"/><polygon class="cls-9" points="34.73 113.29 34.91 81.59 89.22 82.14 89.16 93.33 54.34 92.97 54.21 113.49 34.73 113.29"/><path d="M35.28,82l53.57.54L88.79,93,54.72,92.6H54v.76l-.13,19.76-18.73-.19L35.28,82m-.74-.75-.19,32.44,20.24.21.13-20.52,34.81.36.07-11.94-55.06-.55Z"/><polygon class="cls-2" points="92.02 151.75 92.24 168.93 111.4 165.54 129.81 159.85 148.82 147.44 160.41 132.56 163.51 122.61 163.05 109.2 154.25 126.39 136.35 138.95 109.37 149.1 92.02 151.75"/><polygon class="cls-2" points="80.04 152.37 80.26 169.24 72.41 168.74 72.18 151.03 80.04 152.37"/><path class="cls-32" d="M158.41,75.76C147,56.58,117,43.12,81.85,43.58S17.1,58.27,6.14,77.73l-4.81.07.21,16.86c.36,27.63,36.9,49.56,81.61,49s80.66-23.45,80.3-51.08l-.22-16.87Z"/><path class="cls-2" d="M83.16,144.94C37.81,145.53.62,123,.25,94.68L0,76.52l5.38-.07c11.75-20,42.33-33.72,76.44-34.17s65,12.46,77.3,32.17l5.37-.07.24,18.16C165.11,120.84,128.51,144.35,83.16,144.94ZM2.64,79.07l.2,15.57c.35,26.88,36.37,48.28,80.29,47.71s79.38-22.9,79-49.78L162,77l-4.26.06-.39-.64c-11.54-19.31-41.85-32-75.44-31.55S18.3,58.77,7.27,78.37L6.9,79Z"/><ellipse class="cls-3" cx="82.25" cy="76.74" rx="80.96" ry="50.04" transform="matrix(1, -0.01, 0.01, 1, -0.99, 1.07)"/><path class="cls-33" d="M163.25,79.66c.36,27.64-35.59,50.51-80.3,51.09s-81.24-21.35-81.6-49,35.59-50.51,80.3-51.09S162.89,52,163.25,79.66Z"/><path class="cls-2" d="M82.92,128.07C37.56,128.66.37,106.11,0,77.81S36.23,26,81.58,25.42s82.55,21.95,82.91,50.26S128.26,127.48,82.92,128.07ZM81.62,28c-43.93.57-79.38,22.9-79,49.77S39,126.05,82.88,125.48s79.38-22.89,79-49.77S125.54,27.44,81.62,28Z"/><path class="cls-34" d="M146.9,73.66c.27,20.78-28.46,38-64.16,38.48s-64.87-16-65.14-36.81,28.45-38,64.16-38.47S146.63,52.87,146.9,73.66Z"/><path class="cls-2" d="M82.75,113.43c-36.36.47-66.17-16.61-66.44-38.08S45.38,36,81.74,35.56s66.17,16.61,66.45,38.08S119.12,113,82.75,113.43Zm-1-75.28c-34.94.45-63.15,17.13-62.89,37.17s28.9,36,63.83,35.52,63.15-17.13,62.89-37.17S116.71,37.7,81.78,38.15Z"/><path class="cls-35" d="M81.76,36.86c-35.71.46-64.43,17.69-64.16,38.48a22.49,22.49,0,0,0,.83,5.47c4.34-18.25,31-32.57,63.47-33S141.4,61,146.21,79.15a23.07,23.07,0,0,0,.69-5.49C146.63,52.87,117.46,36.39,81.76,36.86Z"/><path class="cls-2" d="M145.47,81.85,145,79.48c-4.7-17.72-31.8-30.77-63-30.37s-58,14.16-62.23,32L19,84l-1.83-2.85a23.45,23.45,0,0,1-.87-5.79C16,53.88,45.38,36,81.74,35.56s66.17,16.61,66.45,38.08a24.14,24.14,0,0,1-.72,5.81ZM81.78,38.15c-34.94.45-63.15,17.13-62.89,37.17,0,.07,0,.15,0,.22,7.69-16.7,33-28.63,63-29s55.61,10.87,63.73,27.38a1.77,1.77,0,0,1,0-.23C145.35,53.63,116.71,37.7,81.78,38.15Z"/><polygon class="cls-7" points="71.04 37.85 71.17 48.48 53.17 52.13 35.53 59.97 22.88 71.36 18.43 80.81 17.55 71.43 22.85 60.13 32.46 50.91 48.39 42.72 67.97 37.9 71.04 37.85"/><polygon class="cls-2" points="89.53 68.3 89.37 81.62 54.55 81.26 54.72 67.94 89.53 68.3"/><polygon class="cls-8" points="110.23 77.09 110.06 90.41 110.16 69.9 110.33 56.58 110.23 77.09"/><polygon class="cls-8" points="75.36 88.69 75.19 102 75.25 90.07 75.41 76.75 75.36 88.69"/><polygon class="cls-9" points="75.74 88.31 75.78 77.13 110.6 77.47 110.7 56.95 130.23 57.14 130.05 88.86 75.74 88.31"/><path d="M111.07,57.33l18.78.18-.17,31-53.57-.54,0-10.43,34.06.33H111V77.1l.09-19.77m-.74-.75-.1,20.51-34.82-.34,0,11.94,55.06.55.19-32.47-20.28-.19Z"/><polygon class="cls-2" points="130.42 89.24 130.3 98.9 125.8 102.51 75.19 102 75.36 88.69 130.42 89.24"/><polygon class="cls-2" points="54.59 88.46 54.42 101.78 34.19 101.48 34.35 88.26 54.59 88.46"/><polygon class="cls-9" points="34.73 87.89 34.91 56.19 89.22 56.73 89.16 67.92 54.34 67.56 54.21 88.08 34.73 87.89"/><path d="M35.28,56.57l53.57.53-.06,10.44-34.07-.35H54v.75L53.84,87.7l-18.73-.19.17-30.94m-.74-.76-.19,32.45,20.24.2.13-20.52,34.81.36.07-11.94-55.06-.55Z"/><polygon class="cls-2" points="92.02 126.34 92.24 143.52 111.4 140.13 129.81 134.44 148.82 122.03 160.41 107.16 163.51 97.2 163.05 83.79 154.25 100.99 136.35 113.54 109.37 123.69 92.02 126.34"/><polygon class="cls-2" points="80.04 126.97 80.26 143.83 72.41 143.33 72.18 125.62 80.04 126.97"/><path class="cls-36" d="M158.41,50.35C147,31.17,117,17.71,81.85,18.17S17.1,32.86,6.14,52.33l-4.81.06.21,16.86c.36,27.64,36.9,49.57,81.61,49s80.66-23.46,80.3-51.09l-.22-16.86Z"/><path class="cls-2" d="M83.16,119.53C37.81,120.12.62,97.57.25,69.27L0,51.11,5.39,51C17.14,31,47.72,17.32,81.83,16.88s65,12.45,77.3,32.17L164.5,49l.24,18.15C165.11,95.44,128.51,118.94,83.16,119.53ZM2.64,53.67l.2,15.57c.35,26.87,36.37,48.27,80.29,47.7s79.38-22.9,79-49.77L162,51.6l-4.26,0L157.3,51c-11.54-19.3-41.85-32-75.44-31.55S18.3,33.36,7.27,53l-.37.65Z"/><ellipse class="cls-3" cx="82.25" cy="51.34" rx="80.96" ry="50.04" transform="translate(-0.66 1.07) rotate(-0.74)"/><path class="cls-37" d="M163.25,54.26c.36,27.63-35.59,50.5-80.3,51.08S1.71,84,1.35,56.36,36.94,5.86,81.65,5.28,162.89,26.63,163.25,54.26Z"/><path class="cls-2" d="M82.92,102.66C37.56,103.25.37,80.71,0,52.41S36.23.6,81.58,0s82.55,22,82.91,50.26S128.26,102.08,82.92,102.66ZM81.62,2.6c-43.93.57-79.38,22.9-79,49.77S39,100.65,82.88,100.08s79.38-22.9,79-49.78S125.54,2,81.62,2.6Z"/><path class="cls-38" d="M146.9,48.25c.27,20.79-28.46,38-64.16,38.48s-64.87-16-65.14-36.8,28.45-38,64.16-38.48S146.63,27.46,146.9,48.25Z"/><path class="cls-2" d="M82.75,88c-36.36.47-66.17-16.61-66.44-38.08S45.38,10.63,81.74,10.16s66.17,16.6,66.45,38.07S119.12,87.55,82.75,88Zm-1-75.28c-34.94.46-63.15,17.13-62.89,37.17s28.9,36,63.83,35.52,63.15-17.12,62.89-37.16S116.71,12.29,81.78,12.74Z"/><path class="cls-39" d="M81.76,11.45c-35.71.46-64.43,17.69-64.16,38.48a22.42,22.42,0,0,0,.83,5.47c4.34-18.24,31-32.57,63.47-33s59.5,13.21,64.31,31.33a23,23,0,0,0,.69-5.49C146.63,27.46,117.46,11,81.76,11.45Z"/><path class="cls-2" d="M145.47,56.44,145,54.07c-4.7-17.71-31.8-30.77-63-30.37s-58,14.17-62.23,32L19,58.58l-1.83-2.85A23.38,23.38,0,0,1,16.31,50C16,28.48,45.38,10.63,81.74,10.16s66.17,16.6,66.45,38.07a24.14,24.14,0,0,1-.72,5.81ZM81.78,12.74c-34.94.46-63.15,17.13-62.89,37.17,0,.08,0,.15,0,.22,7.69-16.7,33-28.62,63-29S137.49,32,145.61,48.49a1.62,1.62,0,0,1,0-.22C145.35,28.23,116.71,12.29,81.78,12.74Z"/><polygon class="cls-7" points="71.04 12.45 71.17 23.07 53.17 26.73 35.53 34.56 22.88 45.95 18.43 55.4 17.55 46.02 22.85 34.73 32.46 25.5 48.39 17.31 67.97 12.49 71.04 12.45"/><polygon class="cls-2" points="89.53 42.89 89.37 56.21 54.55 55.85 54.72 42.54 89.53 42.89"/><polygon class="cls-8" points="110.23 51.69 110.06 65 110.16 44.49 110.33 31.17 110.23 51.69"/><polygon class="cls-8" points="75.36 63.28 75.19 76.6 75.25 64.67 75.41 51.35 75.36 63.28"/><polygon class="cls-40" points="76.11 62.54 76.16 52.1 110.97 52.44 111.07 31.93 129.85 32.11 129.68 63.07 76.11 62.54"/><path d="M111.82,32.68l17.28.17-.17,29.47-52.06-.53,0-8.93,33.31.33h1.51V51.69l.09-19m-1.49-1.51-.1,20.52-34.82-.34,0,11.93,55.06.55.19-32.47-20.28-.19Z"/><polygon class="cls-2" points="130.42 63.83 130.3 73.5 125.8 77.1 75.19 76.6 75.36 63.28 130.42 63.83"/><polygon class="cls-2" points="54.59 63.05 54.42 76.37 34.19 76.07 34.35 62.85 54.59 63.05"/><polygon class="cls-41" points="35.11 62.11 35.28 31.16 88.84 31.7 88.79 42.14 53.97 41.78 53.84 62.3 35.11 62.11"/><path d="M36,31.92l52.06.52,0,8.94L54.73,41l-1.5,0v1.51l-.12,19-17.24-.18L36,31.92M34.54,30.4l-.19,32.45,20.24.2.13-20.51,34.81.35L89.6,31,34.54,30.4Z"/><polygon class="cls-2" points="92.02 100.94 92.24 118.12 111.4 114.72 129.81 109.04 148.82 96.62 160.41 81.75 163.51 71.79 163.05 58.38 154.25 75.58 136.35 88.14 109.37 98.28 92.02 100.94"/><polygon class="cls-2" points="80.04 101.56 80.26 118.42 72.41 117.92 72.18 100.22 80.04 101.56"/></g><g id="_7-3" data-name="7"><path class="cls-42" d="M298,255.12c-11.39-19.06-41.2-32.44-76.11-32s-64.37,14.6-75.26,33.95l-4.79.07.22,16.76c.36,27.47,36.68,49.27,81.12,48.69s80.19-23.31,79.83-50.78l-.22-16.76Z"/><path class="cls-2" d="M223.24,323.89c-45.09.59-82.06-21.83-82.43-50l-.23-18.05,5.34-.07c11.69-19.91,42.09-33.53,76-34s64.65,12.39,76.85,32l5.34-.07.23,18.05C304.7,299.94,268.32,323.31,223.24,323.89Zm-80.06-65.47.21,15.47c.34,26.72,36.15,48,79.81,47.43s78.91-22.77,78.57-49.48l-.21-15.48-4.24.05-.38-.63c-11.47-19.19-41.61-31.8-75-31.37s-63.19,13.82-74.16,33.31l-.36.64Z"/><ellipse class="cls-3" cx="222.33" cy="256.1" rx="80.48" ry="49.74" transform="translate(-3.31 2.91) rotate(-0.74)"/><path class="cls-43" d="M302.86,259c.35,27.47-35.39,50.21-79.83,50.79s-80.77-21.23-81.12-48.7,35.38-50.2,79.82-50.78S302.5,231.53,302.86,259Z"/><path class="cls-2" d="M223,307.13c-45.08.58-82.06-21.83-82.42-50s36-51.5,81.1-52.08,82.05,21.82,82.42,50S268.07,306.54,223,307.13Zm-1.29-99.48c-43.67.57-78.91,22.76-78.56,49.48s36.15,48,79.82,47.42,78.91-22.76,78.56-49.48S265.36,207.08,221.7,207.65Z"/><path class="cls-44" d="M286.6,253c.26,20.67-28.29,37.79-63.79,38.25s-64.48-15.91-64.75-36.58,28.29-37.79,63.78-38.25S286.33,232.37,286.6,253Z"/><path class="cls-2" d="M222.83,292.57c-36.15.47-65.78-16.51-66.06-37.85s28.91-39.09,65.06-39.56,65.77,16.51,66,37.85S259,292.1,222.83,292.57Zm-1-74.84c-34.73.45-62.77,17-62.51,37S188.07,290.45,222.8,290s62.77-17,62.51-36.95S256.59,217.28,221.86,217.73Z"/><path class="cls-45" d="M221.84,216.45c-35.49.46-64.05,17.58-63.78,38.25a22.18,22.18,0,0,0,.83,5.44C163.2,242,189.68,227.76,222,227.35s59.15,13.12,63.93,31.14a22.76,22.76,0,0,0,.69-5.46C286.33,232.37,257.34,216,221.84,216.45Z"/><path class="cls-2" d="M285.18,261.17l-.51-2.35C280,241.21,253.06,228.23,222,228.63s-57.65,14.08-61.86,31.81l-.68,2.86-1.81-2.83a23.21,23.21,0,0,1-.88-5.75c-.27-21.34,28.91-39.09,65.06-39.56s65.77,16.51,66,37.86a23.41,23.41,0,0,1-.72,5.77Zm-63.32-43.44c-34.73.45-62.77,17-62.51,37v.22c7.64-16.6,32.77-28.45,62.62-28.84s55.27,10.8,63.34,27.21v-.22C285.05,233.13,256.59,217.28,221.86,217.73Z"/><polygon class="cls-7" points="211.18 217.44 211.32 228 193.42 231.63 175.89 239.42 163.31 250.74 158.89 260.14 158.01 250.81 163.28 239.59 172.84 230.41 188.67 222.27 208.13 217.48 211.18 217.44"/><polygon class="cls-2" points="229.57 247.71 229.41 260.95 194.79 260.59 194.96 247.35 229.57 247.71"/><polygon class="cls-8" points="250.14 256.45 249.98 269.69 250.08 249.29 250.24 236.05 250.14 256.45"/><polygon class="cls-8" points="215.48 267.97 215.32 281.21 215.37 269.35 215.53 256.11 215.48 267.97"/><polygon class="cls-9" points="215.86 267.6 215.91 256.49 250.51 256.83 250.62 236.43 270.02 236.62 269.85 268.14 215.86 267.6"/><path d="M251,236.81l18.66.18-.18,30.77-53.24-.53.05-10.36,33.85.33h.76v-.75l.1-19.64m-.75-.76-.1,20.4-34.61-.34L215.48,268l54.74.55.18-32.27-20.16-.2Z"/><polygon class="cls-2" points="270.22 268.52 270.1 278.13 265.63 281.72 215.32 281.21 215.48 267.97 270.22 268.52"/><polygon class="cls-2" points="194.83 267.75 194.67 280.99 174.55 280.69 174.72 267.55 194.83 267.75"/><polygon class="cls-9" points="175.09 267.17 175.27 235.67 229.26 236.21 229.2 247.33 194.59 246.97 194.46 267.37 175.09 267.17"/><path d="M175.64,236.05l53.24.53L228.82,247,195,246.6h-.76v.76L194.08,267l-18.61-.19.17-30.75m-.74-.76-.18,32.26,20.11.2.13-20.4,34.61.36.07-11.87-54.74-.55Z"/><polygon class="cls-2" points="232.04 305.41 232.26 322.49 251.31 319.11 269.61 313.46 288.51 301.12 300.03 286.33 303.11 276.44 302.65 263.1 293.9 280.2 276.11 292.68 249.29 302.77 232.04 305.41"/><polygon class="cls-2" points="220.13 306.03 220.35 322.79 212.54 322.3 212.31 304.69 220.13 306.03"/><path class="cls-46" d="M298,230.36c-11.39-19.06-41.2-32.44-76.11-32s-64.37,14.6-75.26,34l-4.79.06.22,16.77c.36,27.47,36.68,49.27,81.12,48.69s80.19-23.31,79.83-50.78l-.22-16.77Z"/><path class="cls-2" d="M223.24,299.14c-45.09.58-82.06-21.83-82.43-50l-.23-18,5.34-.07c11.69-19.9,42.09-33.52,76-34s64.65,12.38,76.85,32l5.34-.07.23,18.05C304.7,275.19,268.32,298.55,223.24,299.14Zm-80.06-65.48.21,15.48c.34,26.72,36.15,48,79.81,47.43s78.91-22.77,78.57-49.49l-.21-15.47-4.24,0-.38-.63c-11.47-19.2-41.61-31.8-75-31.37s-63.19,13.82-74.16,33.3l-.36.65Z"/><ellipse class="cls-3" cx="222.33" cy="231.35" rx="80.48" ry="49.74" transform="translate(-2.99 2.91) rotate(-0.74)"/><path class="cls-47" d="M302.86,234.25c.35,27.47-35.39,50.21-79.83,50.78s-80.77-21.22-81.12-48.69,35.38-50.21,79.82-50.78S302.5,206.78,302.86,234.25Z"/><path class="cls-2" d="M223,282.37c-45.08.59-82.06-21.83-82.42-50s36-51.5,81.1-52.09,82.05,21.83,82.42,50S268.07,281.79,223,282.37ZM221.7,182.9c-43.67.56-78.91,22.76-78.56,49.48s36.15,48,79.82,47.42,78.91-22.76,78.56-49.48S265.36,182.33,221.7,182.9Z"/><path class="cls-48" d="M286.6,228.28c.26,20.66-28.29,37.79-63.79,38.25S158.33,250.61,158.06,230s28.29-37.8,63.78-38.26S286.33,207.61,286.6,228.28Z"/><path class="cls-2" d="M222.83,267.82c-36.15.47-65.78-16.51-66.06-37.86s28.91-39.08,65.06-39.55,65.77,16.51,66,37.85S259,267.35,222.83,267.82Zm-1-74.84c-34.73.45-62.77,17-62.51,37s28.72,35.77,63.45,35.31,62.77-17,62.51-37S256.59,192.53,221.86,193Z"/><path class="cls-49" d="M221.84,191.69c-35.49.46-64.05,17.59-63.78,38.26a22.25,22.25,0,0,0,.83,5.44c4.31-18.14,30.79-32.38,63.09-32.8s59.15,13.13,63.93,31.15a22.82,22.82,0,0,0,.69-5.46C286.33,207.61,257.34,191.23,221.84,191.69Z"/><path class="cls-2" d="M285.18,236.42l-.51-2.35c-4.67-17.62-31.61-30.6-62.67-30.19s-57.65,14.07-61.86,31.8l-.68,2.87-1.81-2.83a23.28,23.28,0,0,1-.88-5.75c-.27-21.35,28.91-39.09,65.06-39.56s65.77,16.51,66,37.85a23.29,23.29,0,0,1-.72,5.77ZM221.86,193c-34.73.45-62.77,17-62.51,37v.22C167,213.54,192.12,201.69,222,201.3s55.27,10.81,63.34,27.22v-.22C285.05,208.37,256.59,192.53,221.86,193Z"/><polygon class="cls-7" points="211.18 192.69 211.32 203.25 193.42 206.88 175.89 214.67 163.31 225.99 158.89 235.39 158.01 226.06 163.28 214.83 172.84 205.66 188.67 197.52 208.13 192.73 211.18 192.69"/><polygon class="cls-2" points="229.57 222.95 229.41 236.19 194.79 235.84 194.96 222.6 229.57 222.95"/><polygon class="cls-8" points="250.14 231.69 249.98 244.94 250.08 224.54 250.24 211.3 250.14 231.69"/><polygon class="cls-8" points="215.48 243.22 215.32 256.46 215.37 244.6 215.53 231.36 215.48 243.22"/><polygon class="cls-9" points="215.86 242.85 215.91 231.74 250.51 232.07 250.62 211.68 270.02 211.86 269.85 243.39 215.86 242.85"/><path d="M251,212.06l18.66.17L269.47,243l-53.24-.53.05-10.37,33.85.33h.76v-.75l.1-19.64m-.75-.76-.1,20.39-34.61-.33-.05,11.86,54.74.55.18-32.28-20.16-.19Z"/><polygon class="cls-2" points="270.22 243.77 270.1 253.37 265.63 256.96 215.32 256.46 215.48 243.22 270.22 243.77"/><polygon class="cls-2" points="194.83 242.99 194.67 256.23 174.55 255.93 174.72 242.79 194.83 242.99"/><polygon class="cls-9" points="175.09 242.42 175.27 210.91 229.26 211.46 229.2 222.57 194.59 222.22 194.46 242.61 175.09 242.42"/><path d="M175.64,211.29l53.24.54-.06,10.37L195,221.85h-.76v.75l-.13,19.65-18.61-.19.17-30.76m-.74-.76-.18,32.26,20.11.2L195,222.6l34.61.35.07-11.87-54.74-.55Z"/><polygon class="cls-2" points="232.04 280.65 232.26 297.73 251.31 294.36 269.61 288.71 288.51 276.37 300.03 261.58 303.11 251.68 302.65 238.35 293.9 255.45 276.11 267.93 249.29 278.02 232.04 280.65"/><polygon class="cls-2" points="220.13 281.27 220.35 298.04 212.54 297.54 212.31 279.94 220.13 281.27"/><path class="cls-50" d="M298,205.11c-11.39-19.07-41.2-32.45-76.11-32s-64.37,14.6-75.26,33.95l-4.79.07.22,16.76c.36,27.47,36.68,49.27,81.12,48.69s80.19-23.31,79.83-50.78l-.22-16.76Z"/><path class="cls-2" d="M223.24,273.88c-45.09.59-82.06-21.83-82.43-50l-.23-18,5.34-.07c11.69-19.91,42.09-33.53,76-34s64.65,12.39,76.85,32l5.34-.07.23,18C304.7,249.93,268.32,273.3,223.24,273.88Zm-80.06-65.47.21,15.47c.34,26.72,36.15,48,79.81,47.43s78.91-22.77,78.57-49.48l-.21-15.48-4.24.05-.38-.63c-11.47-19.2-41.61-31.8-75-31.37s-63.19,13.82-74.16,33.31l-.36.64Z"/><ellipse class="cls-3" cx="222.33" cy="206.09" rx="80.48" ry="49.74" transform="translate(-2.66 2.9) rotate(-0.74)"/><path class="cls-51" d="M302.86,209c.35,27.47-35.39,50.21-79.83,50.79s-80.77-21.23-81.12-48.7,35.38-50.2,79.82-50.78S302.5,181.52,302.86,209Z"/><path class="cls-2" d="M223,257.11c-45.08.59-82.06-21.82-82.42-50s36-51.5,81.1-52.08,82.05,21.82,82.42,50S268.07,256.53,223,257.11Zm-1.29-99.47c-43.67.57-78.91,22.76-78.56,49.48s36.15,48,79.82,47.42,78.91-22.76,78.56-49.48S265.36,157.07,221.7,157.64Z"/><path class="cls-52" d="M286.6,203c.26,20.67-28.29,37.79-63.79,38.25s-64.48-15.91-64.75-36.58,28.29-37.79,63.78-38.25S286.33,182.35,286.6,203Z"/><path class="cls-2" d="M222.83,242.56c-36.15.47-65.78-16.51-66.06-37.85s28.91-39.09,65.06-39.56,65.77,16.51,66,37.85S259,242.09,222.83,242.56Zm-1-74.84c-34.73.45-62.77,17-62.51,36.95S188.07,240.44,222.8,240s62.77-17,62.51-37S256.59,167.27,221.86,167.72Z"/><path class="cls-53" d="M221.84,166.44c-35.49.46-64.05,17.58-63.78,38.25a22.18,22.18,0,0,0,.83,5.44c4.31-18.14,30.79-32.38,63.09-32.8s59.15,13.13,63.93,31.15a22.76,22.76,0,0,0,.69-5.46C286.33,182.36,257.34,166,221.84,166.44Z"/><path class="cls-2" d="M285.18,211.16l-.51-2.35C280,191.2,253.06,178.22,222,178.62s-57.65,14.08-61.86,31.81l-.68,2.86-1.81-2.83a23.21,23.21,0,0,1-.88-5.75c-.27-21.34,28.91-39.09,65.06-39.56s65.77,16.51,66,37.86a23.41,23.41,0,0,1-.72,5.77Zm-63.32-43.44c-34.73.45-62.77,17-62.51,36.95v.22c7.64-16.6,32.77-28.46,62.62-28.84s55.27,10.8,63.34,27.21V203C285.05,183.12,256.59,167.27,221.86,167.72Z"/><polygon class="cls-7" points="211.18 167.43 211.32 177.99 193.42 181.62 175.89 189.41 163.31 200.73 158.89 210.13 158.01 200.8 163.28 189.58 172.84 180.41 188.67 172.26 208.13 167.47 211.18 167.43"/><polygon class="cls-2" points="229.57 197.7 229.41 210.94 194.79 210.58 194.96 197.34 229.57 197.7"/><polygon class="cls-8" points="250.14 206.44 249.98 219.68 250.08 199.28 250.24 186.04 250.14 206.44"/><polygon class="cls-8" points="215.48 217.96 215.32 231.2 215.37 219.34 215.53 206.1 215.48 217.96"/><polygon class="cls-9" points="215.86 217.59 215.91 206.48 250.51 206.82 250.62 186.42 270.02 186.61 269.85 218.13 215.86 217.59"/><path d="M251,186.8l18.66.18-.18,30.77-53.24-.53.05-10.36,33.85.33h.76v-.75l.1-19.64m-.75-.76-.1,20.4-34.61-.34L215.48,218l54.74.55.18-32.28L250.24,186Z"/><polygon class="cls-2" points="270.22 218.51 270.1 228.12 265.63 231.71 215.32 231.2 215.48 217.96 270.22 218.51"/><polygon class="cls-2" points="194.83 217.74 194.67 230.98 174.55 230.68 174.72 217.53 194.83 217.74"/><polygon class="cls-9" points="175.09 217.16 175.27 185.66 229.26 186.2 229.2 197.32 194.59 196.96 194.46 217.36 175.09 217.16"/><path d="M175.64,186l53.24.53-.06,10.37L195,196.59h-.76v.76L194.08,217l-18.61-.19.17-30.75m-.74-.76-.18,32.25,20.11.21.13-20.4,34.61.36.07-11.87-54.74-.55Z"/><polygon class="cls-2" points="232.04 255.4 232.26 272.48 251.31 269.1 269.61 263.45 288.51 251.11 300.03 236.32 303.11 226.43 302.65 213.09 293.9 230.19 276.11 242.67 249.29 252.76 232.04 255.4"/><polygon class="cls-2" points="220.13 256.02 220.35 272.78 212.54 272.29 212.31 254.68 220.13 256.02"/><path class="cls-54" d="M298,179.85c-11.39-19.06-41.2-32.44-76.11-32s-64.37,14.6-75.26,34l-4.79.06.22,16.76c.36,27.47,36.68,49.27,81.12,48.7s80.19-23.32,79.83-50.79l-.22-16.76Z"/><path class="cls-2" d="M223.24,248.62c-45.09.59-82.06-21.82-82.43-50l-.23-18,5.34-.07c11.69-19.91,42.09-33.53,76-34s64.65,12.39,76.85,32l5.34-.07.23,18C304.7,224.67,268.32,248,223.24,248.62Zm-80.06-65.47.21,15.48c.34,26.71,36.15,48,79.81,47.42s78.91-22.76,78.57-49.48l-.21-15.48-4.24.06-.38-.64c-11.47-19.19-41.61-31.8-75-31.36s-63.19,13.81-74.16,33.3l-.36.64Z"/><ellipse class="cls-3" cx="222.33" cy="180.83" rx="80.48" ry="49.74" transform="translate(-2.33 2.9) rotate(-0.74)"/><path class="cls-55" d="M302.86,183.74c.35,27.47-35.39,50.2-79.83,50.78s-80.77-21.22-81.12-48.69,35.38-50.21,79.82-50.79S302.5,156.27,302.86,183.74Z"/><path class="cls-2" d="M223,231.86c-45.08.58-82.06-21.83-82.42-50s36-51.51,81.1-52.09,82.05,21.83,82.42,50S268.07,231.27,223,231.86Zm-1.29-99.48c-43.67.57-78.91,22.77-78.56,49.48s36.15,48,79.82,47.43,78.91-22.77,78.56-49.48S265.36,131.82,221.7,132.38Z"/><path class="cls-56" d="M286.6,177.76c.26,20.67-28.29,37.8-63.79,38.26s-64.48-15.92-64.75-36.59,28.29-37.79,63.78-38.25S286.33,157.1,286.6,177.76Z"/><path class="cls-2" d="M222.83,217.3c-36.15.47-65.78-16.51-66.06-37.85s28.91-39.09,65.06-39.56,65.77,16.52,66,37.86S259,216.83,222.83,217.3Zm-1-74.83c-34.73.45-62.77,17-62.51,36.95s28.72,35.76,63.45,35.31,62.77-17,62.51-36.95S256.59,142,221.86,142.47Z"/><path class="cls-57" d="M221.84,141.18c-35.49.46-64.05,17.59-63.78,38.25a22.18,22.18,0,0,0,.83,5.44c4.31-18.13,30.79-32.37,63.09-32.79s59.15,13.12,63.93,31.14a22.76,22.76,0,0,0,.69-5.46C286.33,157.1,257.34,140.72,221.84,141.18Z"/><path class="cls-2" d="M285.18,185.9l-.51-2.35C280,165.94,253.06,153,222,153.36s-57.65,14.08-61.86,31.81l-.68,2.86-1.81-2.83a23.21,23.21,0,0,1-.88-5.75c-.27-21.34,28.91-39.09,65.06-39.56s65.77,16.52,66,37.86a23.35,23.35,0,0,1-.72,5.77Zm-63.32-43.43c-34.73.45-62.77,17-62.51,36.95v.22C167,163,192.12,151.18,222,150.79S277.24,161.6,285.31,178v-.22C285.05,157.86,256.59,142,221.86,142.47Z"/><polygon class="cls-7" points="211.18 142.17 211.32 152.73 193.42 156.37 175.89 164.16 163.31 175.48 158.89 184.87 158.01 175.55 163.28 164.32 172.84 155.15 188.67 147.01 208.13 142.21 211.18 142.17"/><polygon class="cls-2" points="229.57 172.44 229.41 185.68 194.79 185.32 194.96 172.08 229.57 172.44"/><polygon class="cls-8" points="250.14 181.18 249.98 194.42 250.08 174.03 250.24 160.78 250.14 181.18"/><polygon class="cls-8" points="215.48 192.7 215.32 205.94 215.37 194.08 215.53 180.84 215.48 192.7"/><polygon class="cls-58" points="216.23 191.96 216.28 181.6 250.89 181.94 250.99 161.54 269.65 161.72 269.47 192.5 216.23 191.96"/><path d="M251.73,162.3l17.16.16-.16,29.28L217,191.22l0-8.86,33.1.32h1.5v-1.5l.09-18.89m-1.49-1.52-.1,20.4-34.61-.34-.05,11.86,54.74.55L270.4,161l-20.16-.2Z"/><polygon class="cls-2" points="270.22 193.25 270.1 202.86 265.63 206.45 215.32 205.94 215.48 192.7 270.22 193.25"/><polygon class="cls-2" points="194.83 192.48 194.67 205.72 174.55 205.42 174.72 192.28 194.83 192.48"/><polygon class="cls-59" points="175.47 191.53 175.64 160.78 228.88 161.31 228.82 171.68 194.21 171.33 194.09 191.72 175.47 191.53"/><path d="M176.39,161.54l51.74.51,0,8.87L195,170.58h-1.5v1.5L193.34,191l-17.12-.17.17-29.25M174.9,160l-.18,32.26,20.11.2.13-20.4,34.61.36.07-11.87L174.9,160Z"/><polygon class="cls-2" points="232.04 230.14 232.26 247.22 251.31 243.84 269.61 238.19 288.51 225.85 300.03 211.06 303.11 201.17 302.65 187.84 293.9 204.93 276.11 217.42 249.29 227.5 232.04 230.14"/><polygon class="cls-2" points="220.13 230.76 220.35 247.53 212.54 247.03 212.31 229.42 220.13 230.76"/></g><g id="_7-4" data-name="7"><path class="cls-60" d="M195.88,305.42c-11.39-19.06-41.2-32.44-76.11-32S55.4,288,44.51,307.39l-4.79.06.22,16.77c.36,27.47,36.67,49.27,81.12,48.69s80.19-23.31,79.83-50.78l-.22-16.77Z"/><path class="cls-2" d="M121.08,374.2c-45.09.58-82.06-21.83-82.43-50l-.23-18.05,5.34-.07c11.68-19.9,42.08-33.52,76-34s64.65,12.38,76.85,32l5.34-.07.23,18.05C202.54,350.25,166.16,373.61,121.08,374.2ZM41,308.72l.2,15.48c.35,26.72,36.16,48,79.82,47.43S200,348.86,199.6,322.14l-.2-15.47-4.24.05-.38-.63c-11.47-19.2-41.61-31.8-75-31.37S56.6,288.54,45.63,308l-.36.65Z"/><ellipse class="cls-3" cx="120.17" cy="306.41" rx="80.48" ry="49.74" transform="translate(-3.97 1.59) rotate(-0.74)"/><path class="cls-61" d="M200.69,309.31c.36,27.47-35.38,50.21-79.83,50.78S40.1,338.87,39.74,311.4s35.39-50.21,79.83-50.78S200.34,281.84,200.69,309.31Z"/><path class="cls-2" d="M120.83,357.43c-45.08.59-82.06-21.83-82.42-50s36-51.5,81.09-52.09,82.06,21.83,82.43,50S165.91,356.85,120.83,357.43ZM119.54,258c-43.67.56-78.91,22.76-78.56,49.48s36.15,48,79.82,47.42,78.91-22.76,78.56-49.48S163.2,257.39,119.54,258Z"/><path class="cls-62" d="M184.44,303.34c.26,20.66-28.29,37.79-63.79,38.25S56.17,325.67,55.9,305s28.29-37.8,63.78-38.26S184.17,282.67,184.44,303.34Z"/><path class="cls-2" d="M120.67,342.88c-36.15.47-65.78-16.51-66.06-37.86s28.91-39.08,65.05-39.55,65.78,16.51,66.06,37.85S156.82,342.41,120.67,342.88Zm-1-74.84c-34.73.45-62.77,17-62.51,36.95s28.72,35.77,63.45,35.31,62.77-17,62.51-36.95S154.42,267.59,119.7,268Z"/><path class="cls-63" d="M119.68,266.75c-35.49.46-64.05,17.59-63.78,38.26a21.78,21.78,0,0,0,.83,5.44c4.3-18.14,30.79-32.38,63.09-32.8S179,290.78,183.75,308.8a22.82,22.82,0,0,0,.69-5.46C184.17,282.67,155.17,266.29,119.68,266.75Z"/><path class="cls-2" d="M183,311.48l-.5-2.35c-4.67-17.62-31.62-30.6-62.67-30.19S62.19,293,58,310.74l-.68,2.87-1.82-2.83a23.71,23.71,0,0,1-.87-5.75c-.28-21.35,28.91-39.09,65.05-39.56s65.78,16.51,66.06,37.85a23.29,23.29,0,0,1-.72,5.77ZM119.7,268c-34.73.45-62.77,17-62.51,36.95v.22c7.64-16.61,32.77-28.46,62.62-28.85s55.27,10.81,63.34,27.22v-.22C182.89,283.43,154.42,267.59,119.7,268Z"/><polygon class="cls-7" points="109.02 267.75 109.16 278.31 91.26 281.94 73.73 289.73 61.15 301.05 56.73 310.45 55.85 301.12 61.12 289.89 70.68 280.72 86.5 272.58 105.97 267.79 109.02 267.75"/><polygon class="cls-2" points="127.41 298.01 127.25 311.25 92.63 310.9 92.8 297.66 127.41 298.01"/><polygon class="cls-8" points="147.98 306.75 147.82 320 147.92 299.6 148.08 286.36 147.98 306.75"/><polygon class="cls-8" points="113.32 318.28 113.16 331.52 113.21 319.66 113.37 306.42 113.32 318.28"/><polygon class="cls-9" points="113.69 317.91 113.74 306.8 148.35 307.13 148.45 286.74 167.86 286.92 167.69 318.45 113.69 317.91"/><path d="M148.83,287.12l18.65.17-.17,30.78-53.24-.53.05-10.37,33.85.33h.76v-.75l.1-19.64m-.75-.76-.1,20.39-34.61-.33-.05,11.86,54.74.55.18-32.28-20.16-.19Z"/><polygon class="cls-2" points="168.06 318.83 167.94 328.43 163.47 332.02 113.16 331.52 113.32 318.28 168.06 318.83"/><polygon class="cls-2" points="92.67 318.05 92.5 331.29 72.39 330.99 72.55 317.85 92.67 318.05"/><polygon class="cls-9" points="72.93 317.48 73.11 285.97 127.1 286.51 127.03 297.63 92.42 297.28 92.3 317.67 72.93 317.48"/><path d="M73.48,286.35l53.24.54-.06,10.37-33.85-.35h-.76v.75l-.13,19.65-18.61-.19.17-30.76m-.74-.76-.19,32.26,20.12.2.13-20.39,34.61.35.06-11.87-54.73-.55Z"/><polygon class="cls-2" points="129.88 355.71 130.1 372.79 149.15 369.42 167.45 363.77 186.34 351.43 197.87 336.64 200.95 326.74 200.49 313.41 191.74 330.51 173.95 342.99 147.13 353.08 129.88 355.71"/><polygon class="cls-2" points="117.97 356.33 118.19 373.1 110.38 372.6 110.15 355 117.97 356.33"/><path class="cls-64" d="M195.88,280.67c-11.39-19.06-41.2-32.44-76.11-32s-64.37,14.61-75.26,34l-4.79.06.22,16.77c.36,27.46,36.67,49.27,81.12,48.69s80.19-23.32,79.83-50.79l-.22-16.76Z"/><path class="cls-2" d="M121.08,349.44C76,350,39,327.62,38.65,299.48l-.23-18.05,5.34-.07c11.68-19.9,42.08-33.52,76-34s64.65,12.38,76.85,32l5.34-.07.23,18.05C202.54,325.49,166.16,348.86,121.08,349.44ZM41,284l.2,15.48c.35,26.71,36.16,48,79.82,47.42S200,324.11,199.6,297.39l-.2-15.48-4.24.06-.38-.64c-11.47-19.19-41.61-31.8-75-31.36s-63.18,13.81-74.15,33.3l-.36.64Z"/><ellipse class="cls-3" cx="120.17" cy="281.65" rx="80.48" ry="49.74" transform="translate(-3.65 1.58) rotate(-0.74)"/><path class="cls-65" d="M200.69,284.56c.36,27.47-35.38,50.2-79.83,50.78S40.1,314.12,39.74,286.65s35.39-50.21,79.83-50.79S200.34,257.09,200.69,284.56Z"/><path class="cls-2" d="M120.83,332.68c-45.08.58-82.06-21.83-82.42-50s36-51.5,81.09-52.09,82.06,21.83,82.43,50S165.91,332.09,120.83,332.68Zm-1.29-99.48C75.87,233.77,40.63,256,41,282.68s36.15,48,79.82,47.43,78.91-22.77,78.56-49.48S163.2,232.64,119.54,233.2Z"/><path class="cls-66" d="M184.44,278.58c.26,20.67-28.29,37.8-63.79,38.26S56.17,300.92,55.9,280.25,84.19,242.46,119.68,242,184.17,257.92,184.44,278.58Z"/><path class="cls-2" d="M120.67,318.12c-36.15.47-65.78-16.51-66.06-37.85s28.91-39.08,65.05-39.55,65.78,16.51,66.06,37.85S156.82,317.65,120.67,318.12Zm-1-74.83c-34.73.45-62.77,17-62.51,37S85.91,316,120.64,315.55s62.77-17,62.51-36.95S154.42,242.84,119.7,243.29Z"/><path class="cls-67" d="M119.68,242c-35.49.46-64.05,17.59-63.78,38.25a21.64,21.64,0,0,0,.83,5.44c4.3-18.13,30.79-32.37,63.09-32.79S179,266,183.75,284a22.74,22.74,0,0,0,.69-5.45C184.17,257.92,155.17,241.54,119.68,242Z"/><path class="cls-2" d="M183,286.73l-.5-2.36c-4.67-17.61-31.62-30.59-62.67-30.19S62.19,268.26,58,286l-.68,2.86L55.48,286a23.64,23.64,0,0,1-.87-5.75c-.28-21.34,28.91-39.08,65.05-39.55s65.78,16.51,66.06,37.85a23.35,23.35,0,0,1-.72,5.77ZM119.7,243.29c-34.73.45-62.77,17-62.51,37v.22C64.83,263.85,90,252,119.81,251.61s55.27,10.81,63.34,27.21v-.22C182.89,258.68,154.42,242.84,119.7,243.29Z"/><polygon class="cls-7" points="109.02 242.99 109.16 253.56 91.26 257.19 73.73 264.98 61.15 276.3 56.73 285.69 55.85 276.37 61.12 265.14 70.68 255.97 86.5 247.83 105.97 243.03 109.02 242.99"/><polygon class="cls-2" points="127.41 273.26 127.25 286.5 92.63 286.14 92.8 272.9 127.41 273.26"/><polygon class="cls-8" points="147.98 282 147.82 295.24 147.92 274.85 148.08 261.61 147.98 282"/><polygon class="cls-8" points="113.32 293.52 113.16 306.76 113.21 294.9 113.37 281.66 113.32 293.52"/><polygon class="cls-9" points="113.69 293.15 113.74 282.04 148.35 282.38 148.45 261.98 167.86 262.17 167.69 293.69 113.69 293.15"/><path d="M148.83,262.36l18.65.18-.17,30.78-53.24-.54.05-10.36,33.85.33h.76V282l.1-19.64m-.75-.75L148,282l-34.61-.34-.05,11.86,54.74.55.18-32.27-20.16-.19Z"/><polygon class="cls-2" points="168.06 294.07 167.94 303.68 163.47 307.27 113.16 306.76 113.32 293.52 168.06 294.07"/><polygon class="cls-2" points="92.67 293.3 92.5 306.54 72.39 306.24 72.55 293.1 92.67 293.3"/><polygon class="cls-9" points="72.93 292.73 73.11 261.22 127.1 261.76 127.03 272.88 92.42 272.53 92.3 292.92 72.93 292.73"/><path d="M73.48,261.6l53.24.53-.06,10.37-33.85-.35h-.76v.75l-.13,19.64-18.61-.18.17-30.76m-.74-.76-.19,32.26,20.12.2.13-20.4,34.61.36.06-11.87-54.73-.55Z"/><polygon class="cls-2" points="129.88 330.96 130.1 348.04 149.15 344.67 167.45 339.01 186.34 326.67 197.87 311.88 200.95 301.99 200.49 288.66 191.74 305.75 173.95 318.24 147.13 328.32 129.88 330.96"/><polygon class="cls-2" points="117.97 331.58 118.19 348.35 110.38 347.85 110.15 330.24 117.97 331.58"/><path class="cls-68" d="M195.88,255.41c-11.39-19.06-41.2-32.44-76.11-32S55.4,238,44.51,257.38l-4.79.06.22,16.77c.36,27.47,36.67,49.27,81.12,48.69s80.19-23.31,79.83-50.78l-.22-16.77Z"/><path class="cls-2" d="M121.08,324.19c-45.09.58-82.06-21.83-82.43-50l-.23-18.05,5.34-.07c11.68-19.9,42.08-33.52,76-34s64.65,12.38,76.85,32l5.34-.07.23,18.05C202.54,300.24,166.16,323.6,121.08,324.19ZM41,258.71l.2,15.48c.35,26.72,36.16,48,79.82,47.43S200,298.85,199.6,272.13l-.2-15.47-4.24,0-.38-.63c-11.47-19.2-41.61-31.8-75-31.37S56.6,238.53,45.63,258l-.36.65Z"/><ellipse class="cls-3" cx="120.17" cy="256.4" rx="80.48" ry="49.74" transform="translate(-3.32 1.58) rotate(-0.74)"/><path class="cls-69" d="M200.69,259.3c.36,27.47-35.38,50.21-79.83,50.78S40.1,288.86,39.74,261.39s35.39-50.21,79.83-50.78S200.34,231.83,200.69,259.3Z"/><path class="cls-2" d="M120.83,307.42c-45.08.59-82.06-21.83-82.42-50s36-51.5,81.09-52.09,82.06,21.83,82.43,50S165.91,306.84,120.83,307.42ZM119.54,208c-43.67.56-78.91,22.76-78.56,49.48s36.15,48,79.82,47.42,78.91-22.76,78.56-49.48S163.2,207.38,119.54,208Z"/><path class="cls-70" d="M184.44,253.33c.26,20.66-28.29,37.79-63.79,38.25S56.17,275.66,55.9,255s28.29-37.8,63.78-38.26S184.17,232.66,184.44,253.33Z"/><path class="cls-2" d="M120.67,292.87c-36.15.46-65.78-16.52-66.06-37.86s28.91-39.08,65.05-39.55,65.78,16.51,66.06,37.85S156.82,292.4,120.67,292.87Zm-1-74.84c-34.73.45-62.77,17-62.51,36.95s28.72,35.76,63.45,35.31,62.77-17,62.51-37S154.42,217.58,119.7,218Z"/><path class="cls-71" d="M119.68,216.74C84.19,217.2,55.63,234.33,55.9,255a21.78,21.78,0,0,0,.83,5.44c4.3-18.14,30.79-32.38,63.09-32.8s59.15,13.13,63.93,31.15a22.82,22.82,0,0,0,.69-5.46C184.17,232.66,155.17,216.28,119.68,216.74Z"/><path class="cls-2" d="M183,261.47l-.5-2.35c-4.67-17.62-31.62-30.6-62.67-30.19S62.19,243,58,260.73l-.68,2.87-1.82-2.83a23.71,23.71,0,0,1-.87-5.76c-.28-21.34,28.91-39.08,65.05-39.55s65.78,16.51,66.06,37.85a23.29,23.29,0,0,1-.72,5.77ZM119.7,218c-34.73.45-62.77,17-62.51,36.95v.22c7.64-16.61,32.77-28.46,62.62-28.85s55.27,10.81,63.34,27.22v-.22C182.89,233.42,154.42,217.58,119.7,218Z"/><polygon class="cls-7" points="109.02 217.74 109.16 228.3 91.26 231.93 73.73 239.72 61.15 251.04 56.73 260.44 55.85 251.11 61.12 239.88 70.68 230.71 86.5 222.57 105.97 217.78 109.02 217.74"/><polygon class="cls-2" points="127.41 248 127.25 261.24 92.63 260.89 92.8 247.65 127.41 248"/><polygon class="cls-8" points="147.98 256.74 147.82 269.99 147.92 249.59 148.08 236.35 147.98 256.74"/><polygon class="cls-8" points="113.32 268.27 113.16 281.51 113.21 269.65 113.37 256.41 113.32 268.27"/><polygon class="cls-9" points="113.69 267.9 113.74 256.78 148.35 257.12 148.45 236.73 167.86 236.91 167.69 268.44 113.69 267.9"/><path d="M148.83,237.11l18.65.17-.17,30.78-53.24-.54.05-10.36,33.85.33h.76v-.75l.1-19.64m-.75-.76-.1,20.39-34.61-.33-.05,11.86,54.74.55.18-32.28-20.16-.19Z"/><polygon class="cls-2" points="168.06 268.82 167.94 278.42 163.47 282.01 113.16 281.51 113.32 268.27 168.06 268.82"/><polygon class="cls-2" points="92.67 268.04 92.5 281.28 72.39 280.98 72.55 267.84 92.67 268.04"/><polygon class="cls-9" points="72.93 267.47 73.11 235.96 127.1 236.5 127.03 247.62 92.42 247.27 92.3 267.66 72.93 267.47"/><path d="M73.48,236.34l53.24.54-.06,10.37-33.85-.35h-.76v.75l-.13,19.65-18.61-.19.17-30.76m-.74-.76-.19,32.26,20.12.2.13-20.39,34.61.35.06-11.87-54.73-.55Z"/><polygon class="cls-2" points="129.88 305.7 130.1 322.78 149.15 319.41 167.45 313.76 186.34 301.42 197.87 286.63 200.95 276.73 200.49 263.4 191.74 280.5 173.95 292.98 147.13 303.07 129.88 305.7"/><polygon class="cls-2" points="117.97 306.32 118.19 323.09 110.38 322.59 110.15 304.99 117.97 306.32"/><path class="cls-72" d="M195.88,230.16c-11.39-19.07-41.2-32.45-76.11-32s-64.37,14.6-75.26,34l-4.79.07L39.94,249c.36,27.47,36.67,49.27,81.12,48.69s80.19-23.31,79.83-50.78l-.22-16.77Z"/><path class="cls-2" d="M121.08,298.93C76,299.52,39,277.1,38.65,249l-.23-18.05,5.34-.07c11.68-19.91,42.08-33.53,76-34s64.65,12.39,76.85,32l5.34-.07.23,18.05C202.54,275,166.16,298.34,121.08,298.93ZM41,233.46l.2,15.47c.35,26.72,36.16,48,79.82,47.43S200,273.59,199.6,246.88l-.2-15.48-4.24,0-.38-.63c-11.47-19.2-41.61-31.8-75-31.37s-63.18,13.82-74.15,33.3l-.36.65Z"/><ellipse class="cls-3" cx="120.17" cy="231.14" rx="80.48" ry="49.74" transform="translate(-2.99 1.58) rotate(-0.74)"/><path class="cls-73" d="M200.69,234c.36,27.47-35.38,50.21-79.83,50.79S40.1,263.6,39.74,236.13s35.39-50.2,79.83-50.78S200.34,206.57,200.69,234Z"/><path class="cls-2" d="M120.83,282.16c-45.08.59-82.06-21.82-82.42-50s36-51.5,81.09-52.08,82.06,21.82,82.43,50S165.91,281.58,120.83,282.16Zm-1.29-99.47c-43.67.57-78.91,22.76-78.56,49.48s36.15,48,79.82,47.42,78.91-22.76,78.56-49.48S163.2,182.12,119.54,182.69Z"/><path class="cls-74" d="M184.44,228.07c.26,20.67-28.29,37.79-63.79,38.25S56.17,250.4,55.9,229.74,84.19,192,119.68,191.49,184.17,207.4,184.44,228.07Z"/><path class="cls-2" d="M120.67,267.61c-36.15.47-65.78-16.51-66.06-37.85s28.91-39.09,65.05-39.56,65.78,16.51,66.06,37.85S156.82,267.14,120.67,267.61Zm-1-74.84c-34.73.45-62.77,17-62.51,36.95S85.91,265.49,120.64,265s62.77-17,62.51-37S154.42,192.32,119.7,192.77Z"/><path class="cls-75" d="M119.68,191.49c-35.49.46-64.05,17.58-63.78,38.25a21.71,21.71,0,0,0,.83,5.44C61,217,87.52,202.8,119.82,202.38s59.15,13.13,63.93,31.15a22.76,22.76,0,0,0,.69-5.46C184.17,207.4,155.17,191,119.68,191.49Z"/><path class="cls-2" d="M183,236.21l-.5-2.35c-4.67-17.61-31.62-30.59-62.67-30.19S62.19,217.75,58,235.48l-.68,2.86-1.82-2.83a23.64,23.64,0,0,1-.87-5.75c-.28-21.35,28.91-39.09,65.05-39.56s65.78,16.51,66.06,37.85a23.29,23.29,0,0,1-.72,5.77ZM119.7,192.77c-34.73.45-62.77,17-62.51,36.95v.22c7.64-16.6,32.77-28.46,62.62-28.84s55.27,10.8,63.34,27.21v-.22C182.89,208.16,154.42,192.32,119.7,192.77Z"/><polygon class="cls-7" points="109.02 192.48 109.16 203.04 91.26 206.67 73.73 214.46 61.15 225.78 56.73 235.18 55.85 225.85 61.12 214.63 70.68 205.45 86.5 197.31 105.97 192.52 109.02 192.48"/><polygon class="cls-2" points="127.41 222.75 127.25 235.99 92.63 235.63 92.8 222.39 127.41 222.75"/><polygon class="cls-8" points="147.98 231.49 147.82 244.73 147.92 224.33 148.08 211.09 147.98 231.49"/><polygon class="cls-8" points="113.32 243.01 113.16 256.25 113.21 244.39 113.37 231.15 113.32 243.01"/><polygon class="cls-76" points="114.07 242.27 114.12 231.91 148.73 232.24 148.83 211.85 167.49 212.03 167.31 242.8 114.07 242.27"/><path d="M149.57,212.61l17.16.16L166.57,242l-51.75-.51,0-8.87L148,233h1.5v-1.51l.09-18.88m-1.49-1.52-.1,20.4-34.61-.34L113.32,243l54.74.55.18-32.28-20.16-.19Z"/><polygon class="cls-2" points="168.06 243.56 167.94 253.17 163.47 256.75 113.16 256.25 113.32 243.01 168.06 243.56"/><polygon class="cls-2" points="92.67 242.79 92.5 256.03 72.39 255.73 72.55 242.58 92.67 242.79"/><polygon class="cls-77" points="73.31 241.84 73.48 211.09 126.72 211.62 126.66 221.99 92.05 221.63 91.92 242.03 73.31 241.84"/><path d="M74.23,211.84l51.74.52,0,8.87-33.11-.34h-1.5v1.5l-.12,18.89-17.12-.17.17-29.26m-1.49-1.51-.19,32.25,20.12.21.13-20.4,34.61.36.06-11.87-54.73-.55Z"/><polygon class="cls-2" points="129.88 280.45 130.1 297.53 149.15 294.15 167.45 288.5 186.34 276.16 197.87 261.37 200.95 251.47 200.49 238.14 191.74 255.24 173.95 267.72 147.13 277.81 129.88 280.45"/><polygon class="cls-2" points="117.97 281.07 118.19 297.83 110.38 297.33 110.15 279.73 117.97 281.07"/><path class="cls-78" d="M195.88,203.82c-11.39-19.06-41.2-32.44-76.11-32s-64.37,14.6-75.26,34l-4.79.06.22,16.76c.36,27.47,36.67,49.27,81.12,48.7s80.19-23.32,79.83-50.79l-.22-16.76Z"/><path class="cls-2" d="M121.08,272.59c-45.09.59-82.06-21.82-82.43-50l-.23-18,5.34-.07c11.68-19.91,42.08-33.52,76-34s64.65,12.39,76.85,32l5.34-.07.23,18C202.54,248.64,166.16,272,121.08,272.59ZM41,207.12l.2,15.48c.35,26.71,36.16,48,79.82,47.42S200,247.26,199.6,220.54l-.2-15.48-4.24.06-.38-.64c-11.47-19.19-41.61-31.8-75-31.36s-63.18,13.81-74.15,33.3l-.36.64Z"/><ellipse class="cls-3" cx="120.17" cy="204.8" rx="80.48" ry="49.74" transform="translate(-2.65 1.58) rotate(-0.74)"/><path class="cls-79" d="M200.69,207.71c.36,27.47-35.38,50.2-79.83,50.78S40.1,237.27,39.74,209.8,75.13,159.59,119.57,159,200.34,180.24,200.69,207.71Z"/><path class="cls-2" d="M120.83,255.83c-45.08.58-82.06-21.83-82.42-50s36-51.5,81.09-52.09,82.06,21.83,82.43,50S165.91,255.24,120.83,255.83Zm-1.29-99.48c-43.67.57-78.91,22.77-78.56,49.48s36.15,48,79.82,47.43,78.91-22.77,78.56-49.48S163.2,155.79,119.54,156.35Z"/><path class="cls-80" d="M184.44,201.73c.26,20.67-28.29,37.8-63.79,38.26S56.17,224.07,55.9,203.4s28.29-37.79,63.78-38.25S184.17,181.07,184.44,201.73Z"/><path class="cls-2" d="M120.67,241.27c-36.15.47-65.78-16.51-66.06-37.85s28.91-39.09,65.05-39.56,65.78,16.52,66.06,37.86S156.82,240.8,120.67,241.27Zm-1-74.83c-34.73.45-62.77,17-62.51,36.95s28.72,35.76,63.45,35.31,62.77-17,62.51-36.95S154.42,166,119.7,166.44Z"/><path class="cls-81" d="M119.68,165.15c-35.49.46-64.05,17.59-63.78,38.25a21.71,21.71,0,0,0,.83,5.44c4.3-18.13,30.79-32.37,63.09-32.79s59.15,13.13,63.93,31.14a22.76,22.76,0,0,0,.69-5.46C184.17,181.07,155.17,164.69,119.68,165.15Z"/><path class="cls-2" d="M183,209.88l-.5-2.36c-4.67-17.61-31.62-30.59-62.67-30.19S62.19,191.41,58,209.14L57.3,212l-1.82-2.83a23.64,23.64,0,0,1-.87-5.75c-.28-21.34,28.91-39.09,65.05-39.56s65.78,16.52,66.06,37.86a23.35,23.35,0,0,1-.72,5.77ZM119.7,166.44c-34.73.45-62.77,17-62.51,36.95v.22C64.83,187,90,175.15,119.81,174.76s55.27,10.81,63.34,27.21v-.22C182.89,181.83,154.42,166,119.7,166.44Z"/><polygon class="cls-7" points="109.02 166.14 109.16 176.7 91.26 180.34 73.73 188.13 61.15 199.45 56.73 208.84 55.85 199.52 61.12 188.29 70.68 179.12 86.5 170.98 105.97 166.18 109.02 166.14"/><polygon class="cls-2" points="127.41 196.41 127.25 209.65 92.63 209.29 92.8 196.05 127.41 196.41"/><polygon class="cls-8" points="147.98 205.15 147.82 218.39 147.92 198 148.08 184.75 147.98 205.15"/><polygon class="cls-8" points="113.32 216.67 113.16 229.91 113.21 218.05 113.37 204.81 113.32 216.67"/><polygon class="cls-9" points="113.69 216.3 113.74 205.19 148.35 205.53 148.45 185.13 167.86 185.32 167.69 216.84 113.69 216.3"/><path d="M148.83,185.51l18.65.18-.17,30.77-53.24-.53.05-10.36,33.85.33h.76v-.76l.1-19.64m-.75-.76-.1,20.4-34.61-.34-.05,11.86,54.74.55.18-32.27-20.16-.2Z"/><polygon class="cls-2" points="168.06 217.22 167.94 226.83 163.47 230.42 113.16 229.91 113.32 216.67 168.06 217.22"/><polygon class="cls-2" points="92.67 216.45 92.5 229.69 72.39 229.39 72.55 216.25 92.67 216.45"/><polygon class="cls-9" points="72.93 215.88 73.11 184.37 127.1 184.91 127.03 196.03 92.42 195.68 92.3 216.07 72.93 215.88"/><path d="M73.48,184.75l53.24.53-.06,10.37-33.85-.35h-.76v.75l-.13,19.64-18.61-.18.17-30.76m-.74-.76-.19,32.26,20.12.2.13-20.4,34.61.36.06-11.87L72.74,184Z"/><polygon class="cls-2" points="129.88 254.11 130.1 271.19 149.15 267.81 167.45 262.16 186.34 249.82 197.87 235.03 200.95 225.14 200.49 211.81 191.74 228.9 173.95 241.39 147.13 251.47 129.88 254.11"/><polygon class="cls-2" points="117.97 254.73 118.19 271.5 110.38 271 110.15 253.39 117.97 254.73"/><path class="cls-82" d="M195.88,178.56c-11.39-19.06-41.2-32.44-76.11-32s-64.37,14.61-75.26,34l-4.79.06.22,16.77c.36,27.47,36.67,49.27,81.12,48.69s80.19-23.31,79.83-50.78l-.22-16.77Z"/><path class="cls-2" d="M121.08,247.34c-45.09.58-82.06-21.83-82.43-50l-.23-18.05,5.34-.07c11.68-19.9,42.08-33.52,76-34s64.65,12.38,76.85,32l5.34-.07.23,18.05C202.54,223.39,166.16,246.75,121.08,247.34ZM41,181.86l.2,15.48c.35,26.72,36.16,48,79.82,47.42S200,222,199.6,195.28l-.2-15.48-4.24.06-.38-.64c-11.47-19.19-41.61-31.79-75-31.36s-63.18,13.82-74.15,33.3l-.36.65Z"/><ellipse class="cls-3" cx="120.17" cy="179.55" rx="80.48" ry="49.74" transform="translate(-2.32 1.58) rotate(-0.74)"/><path class="cls-83" d="M200.69,182.45c.36,27.47-35.38,50.2-79.83,50.78S40.1,212,39.74,184.54s35.39-50.21,79.83-50.78S200.34,155,200.69,182.45Z"/><path class="cls-2" d="M120.83,230.57c-45.08.59-82.06-21.83-82.42-50s36-51.5,81.09-52.09,82.06,21.83,82.43,50S165.91,230,120.83,230.57Zm-1.29-99.48c-43.67.57-78.91,22.77-78.56,49.49s36.15,48,79.82,47.42,78.91-22.76,78.56-49.48S163.2,130.53,119.54,131.09Z"/><path class="cls-84" d="M184.44,176.48c.26,20.66-28.29,37.79-63.79,38.25S56.17,198.81,55.9,178.15s28.29-37.8,63.78-38.26S184.17,155.81,184.44,176.48Z"/><path class="cls-2" d="M120.67,216c-36.15.47-65.78-16.51-66.06-37.85s28.91-39.08,65.05-39.55,65.78,16.51,66.06,37.85S156.82,215.55,120.67,216Zm-1-74.83c-34.73.45-62.77,17-62.51,36.95s28.72,35.76,63.45,35.31,62.77-17,62.51-36.95S154.42,140.73,119.7,141.18Z"/><path class="cls-85" d="M119.68,139.89c-35.49.46-64.05,17.59-63.78,38.26a21.78,21.78,0,0,0,.83,5.44c4.3-18.14,30.79-32.38,63.09-32.8s59.15,13.13,63.93,31.15a22.82,22.82,0,0,0,.69-5.46C184.17,155.81,155.17,139.43,119.68,139.89Z"/><path class="cls-2" d="M183,184.62l-.5-2.35c-4.67-17.62-31.62-30.6-62.67-30.19S62.19,166.15,58,183.88l-.68,2.87-1.82-2.84a23.57,23.57,0,0,1-.87-5.75c-.28-21.34,28.91-39.08,65.05-39.55s65.78,16.51,66.06,37.85a23.29,23.29,0,0,1-.72,5.77ZM119.7,141.18c-34.73.45-62.77,17-62.51,36.95v.22c7.64-16.61,32.77-28.46,62.62-28.85s55.27,10.81,63.34,27.21v-.22C182.89,156.57,154.42,140.73,119.7,141.18Z"/><polygon class="cls-7" points="109.02 140.89 109.16 151.45 91.26 155.08 73.73 162.87 61.15 174.19 56.73 183.59 55.85 174.26 61.12 163.03 70.68 153.86 86.5 145.72 105.97 140.93 109.02 140.89"/><polygon class="cls-2" points="127.41 171.15 127.25 184.39 92.63 184.04 92.8 170.8 127.41 171.15"/><polygon class="cls-8" points="147.98 179.89 147.82 193.13 147.92 172.74 148.08 159.5 147.98 179.89"/><polygon class="cls-8" points="113.32 191.42 113.16 204.66 113.21 192.8 113.37 179.56 113.32 191.42"/><polygon class="cls-86" points="114.07 190.67 114.12 180.31 148.73 180.65 148.83 160.25 167.49 160.43 167.31 191.21 114.07 190.67"/><path d="M149.57,161l17.16.17-.16,29.27-51.75-.52,0-8.86,33.11.32,1.5,0V179.9l.09-18.89m-1.49-1.51-.1,20.39-34.61-.33-.05,11.86,54.74.55.18-32.28-20.16-.19Z"/><polygon class="cls-2" points="168.06 191.97 167.94 201.57 163.47 205.16 113.16 204.66 113.32 191.42 168.06 191.97"/><polygon class="cls-2" points="92.67 191.19 92.5 204.43 72.39 204.13 72.55 190.99 92.67 191.19"/><polygon class="cls-87" points="73.31 190.25 73.48 159.49 126.72 160.03 126.66 170.4 92.05 170.04 91.92 190.44 73.31 190.25"/><path d="M74.23,160.25l51.74.52,0,8.87-33.11-.34-1.5,0v1.51l-.12,18.89-17.12-.17.17-29.26m-1.49-1.52L72.55,191l20.12.2.13-20.39,34.61.35.06-11.87-54.73-.55Z"/><polygon class="cls-2" points="129.88 228.85 130.1 245.93 149.15 242.56 167.45 236.91 186.34 224.56 197.87 209.78 200.95 199.88 200.49 186.55 191.74 203.65 173.95 216.13 147.13 226.22 129.88 228.85"/><polygon class="cls-2" points="117.97 229.47 118.19 246.24 110.38 245.74 110.15 228.14 117.97 229.47"/></g></g></g></svg>