<svg width="14" height="15" viewBox="0 0 14 15" fill="none" xmlns="http://www.w3.org/2000/svg">
<path d="M0.5 4.58333C0.5 5.17239 0.532215 5.61162 0.606056 5.94388C0.678636 6.27046 0.784614 6.46225 0.911181 6.58882C1.03775 6.71538 1.22954 6.82136 1.55611 6.89394C1.88837 6.96778 2.3276 7 2.91665 7C3.5057 7 3.94493 6.96778 4.27718 6.89394C4.60376 6.82136 4.79555 6.71538 4.92212 6.58882C5.04868 6.46225 5.15466 6.27046 5.22724 5.94388C5.30108 5.61162 5.3333 5.17239 5.3333 4.58333C5.3333 3.99428 5.30108 3.55504 5.22724 3.22279C5.15466 2.89621 5.04868 2.70442 4.92212 2.57785C4.79555 2.45128 4.60376 2.3453 4.27718 2.27272C3.94493 2.19888 3.5057 2.16667 2.91665 2.16667C2.3276 2.16667 1.88837 2.19888 1.55611 2.27272C1.22954 2.3453 1.03775 2.45128 0.911181 2.57785C0.784614 2.70442 0.678636 2.89621 0.606056 3.22279C0.532215 3.55504 0.5 3.99428 0.5 4.58333Z" stroke="white" stroke-linecap="round" stroke-linejoin="round"/>
<path d="M0.5 11.5833C0.5 12.1724 0.532215 12.6116 0.606056 12.9439C0.678636 13.2705 0.784614 13.4622 0.911181 13.5888C1.03775 13.7154 1.22954 13.8214 1.55611 13.8939C1.88837 13.9678 2.3276 14 2.91665 14C3.5057 14 3.94493 13.9678 4.27718 13.8939C4.60376 13.8214 4.79555 13.7154 4.92212 13.5888C5.04868 13.4622 5.15466 13.2705 5.22724 12.9439C5.30108 12.6116 5.3333 12.1724 5.3333 11.5833C5.3333 10.9943 5.30108 10.555 5.22724 10.2228C5.15466 9.89621 5.04868 9.70442 4.92212 9.57785C4.79555 9.45128 4.60376 9.3453 4.27718 9.27272C3.94493 9.19888 3.5057 9.16667 2.91665 9.16667C2.3276 9.16667 1.88837 9.19888 1.55611 9.27272C1.22954 9.3453 1.03775 9.45128 0.911181 9.57785C0.784614 9.70442 0.678636 9.89621 0.606056 10.2228C0.532215 10.555 0.5 10.9943 0.5 11.5833Z" stroke="white" stroke-linecap="round" stroke-linejoin="round"/>
<path d="M7.5 4C7.5 4.70915 7.53865 5.24489 7.62965 5.65435C7.71939 6.05813 7.85325 6.30783 8.02271 6.47729C8.19217 6.64675 8.44187 6.78061 8.84565 6.87035C9.25511 6.96135 9.79085 7 10.5 7C11.2092 7 11.7449 6.96135 12.1543 6.87035C12.5581 6.78061 12.8078 6.64675 12.9773 6.47729C13.1468 6.30783 13.2806 6.05813 13.3703 5.65435C13.4613 5.24489 13.5 4.70915 13.5 4C13.5 3.29085 13.4613 2.75511 13.3703 2.34565C13.2806 1.94187 13.1468 1.69217 12.9773 1.52271C12.8078 1.35325 12.5581 1.21939 12.1543 1.12965C11.7449 1.03865 11.2092 1 10.5 1C9.79085 1 9.25511 1.03865 8.84565 1.12965C8.44187 1.21939 8.19217 1.35325 8.02271 1.52271C7.85325 1.69217 7.71939 1.94187 7.62965 2.34565C7.53865 2.75511 7.5 3.29085 7.5 4Z" stroke="white" stroke-linecap="round" stroke-linejoin="round"/>
<path d="M7.5 11.5833C7.5 12.1724 7.53222 12.6116 7.60606 12.9439C7.67864 13.2705 7.78462 13.4622 7.91118 13.5888C8.03775 13.7154 8.22954 13.8214 8.55612 13.8939C8.88837 13.9678 9.3276 14 9.91666 14C10.5057 14 10.9449 13.9678 11.2772 13.8939C11.6038 13.8214 11.7956 13.7154 11.9221 13.5888C12.0487 13.4622 12.1547 13.2705 12.2273 12.9439C12.3011 12.6116 12.3333 12.1724 12.3333 11.5833C12.3333 10.9943 12.3011 10.555 12.2273 10.2228C12.1547 9.89621 12.0487 9.70442 11.9221 9.57785C11.7956 9.45128 11.6038 9.3453 11.2772 9.27272C10.9449 9.19888 10.5057 9.16667 9.91666 9.16667C9.3276 9.16667 8.88837 9.19888 8.55612 9.27272C8.22954 9.3453 8.03775 9.45128 7.91118 9.57785C7.78462 9.70442 7.67864 9.89621 7.60606 10.2228C7.53222 10.555 7.5 10.9943 7.5 11.5833Z" stroke="white" stroke-linecap="round" stroke-linejoin="round"/>
</svg>
